G75*
%MOIN*%
%OFA0B0*%
%FSLAX25Y25*%
%IPPOS*%
%LPD*%
%AMOC8*
5,1,8,0,0,1.08239X$1,22.5*
%
%ADD10C,0.06555*%
%ADD11C,0.06000*%
%ADD12C,0.04500*%
%ADD13C,0.07400*%
%ADD14C,0.06600*%
%ADD15C,0.01600*%
%ADD16C,0.01181*%
%ADD17C,0.01800*%
%ADD18C,0.01200*%
D10*
X0039654Y0103847D03*
X0049654Y0103847D03*
X0059654Y0103847D03*
X0069654Y0103847D03*
X0079654Y0103847D03*
X0089654Y0103847D03*
X0099654Y0103847D03*
X0109654Y0103847D03*
X0119654Y0103847D03*
X0129654Y0103847D03*
X0139654Y0103847D03*
X0149654Y0103847D03*
X0159654Y0103847D03*
X0169654Y0103847D03*
X0179654Y0103847D03*
X0189654Y0103847D03*
X0199654Y0103847D03*
X0209654Y0103847D03*
X0219654Y0103847D03*
X0229654Y0103847D03*
X0229654Y0113847D03*
X0219654Y0113847D03*
X0209654Y0113847D03*
X0199654Y0113847D03*
X0189654Y0113847D03*
X0179654Y0113847D03*
X0169654Y0113847D03*
X0159654Y0113847D03*
X0149654Y0113847D03*
X0139654Y0113847D03*
X0129654Y0113847D03*
X0119654Y0113847D03*
X0109654Y0113847D03*
X0099654Y0113847D03*
X0089654Y0113847D03*
X0079654Y0113847D03*
X0069654Y0113847D03*
X0059654Y0113847D03*
X0049654Y0113847D03*
X0039654Y0113847D03*
D11*
X0080698Y0064721D02*
X0080698Y0058721D01*
X0090698Y0058721D02*
X0090698Y0064721D01*
X0100698Y0064721D02*
X0100698Y0058721D01*
X0110698Y0058721D02*
X0110698Y0064721D01*
X0120698Y0064721D02*
X0120698Y0058721D01*
X0130698Y0058721D02*
X0130698Y0064721D01*
X0154312Y0060855D02*
X0160312Y0060855D01*
X0160312Y0050855D02*
X0154312Y0050855D01*
X0144564Y0042391D02*
X0138564Y0042391D01*
X0154312Y0040855D02*
X0160312Y0040855D01*
X0144564Y0032391D02*
X0138564Y0032391D01*
X0154312Y0030855D02*
X0160312Y0030855D01*
X0144564Y0022391D02*
X0138564Y0022391D01*
X0138564Y0012391D02*
X0144564Y0012391D01*
X0053296Y0051950D02*
X0053296Y0057950D01*
X0043296Y0057950D02*
X0043296Y0051950D01*
X0033296Y0051950D02*
X0033296Y0057950D01*
X0023296Y0057950D02*
X0023296Y0051950D01*
X0013296Y0051950D02*
X0013296Y0057950D01*
X0154312Y0070855D02*
X0160312Y0070855D01*
X0160312Y0080855D02*
X0154312Y0080855D01*
X0154312Y0090855D02*
X0160312Y0090855D01*
D12*
X0080166Y0039483D02*
X0080166Y0034983D01*
X0075166Y0034983D02*
X0075166Y0039483D01*
X0070166Y0039483D02*
X0070166Y0034983D01*
X0065166Y0034983D02*
X0065166Y0039483D01*
D13*
X0054202Y0043139D03*
X0042159Y0031369D03*
X0053729Y0022469D03*
X0053729Y0013611D03*
X0042159Y0013569D03*
X0016559Y0013569D03*
X0016559Y0031369D03*
X0024202Y0043139D03*
X0083729Y0022469D03*
X0083729Y0013611D03*
D14*
X0049654Y0113847D02*
X0039654Y0113847D01*
D15*
X0013003Y0008628D02*
X0015982Y0007660D01*
X0017548Y0007537D01*
X0249832Y0007537D01*
X0251398Y0007660D01*
X0254376Y0008628D01*
X0256910Y0010469D01*
X0258751Y0013003D01*
X0259719Y0015982D01*
X0259843Y0017548D01*
X0259843Y0112036D01*
X0259719Y0113602D01*
X0258751Y0116581D01*
X0256910Y0119115D01*
X0254376Y0120956D01*
X0251398Y0121924D01*
X0249832Y0122047D01*
X0017548Y0122047D01*
X0015982Y0121924D01*
X0013003Y0120956D01*
X0010469Y0119115D01*
X0008628Y0116581D01*
X0007660Y0113602D01*
X0007537Y0112036D01*
X0007537Y0017548D01*
X0007660Y0015982D01*
X0008628Y0013003D01*
X0010469Y0010469D01*
X0013003Y0008628D01*
X0012582Y0008934D02*
X0014423Y0008934D01*
X0013670Y0009246D02*
X0015545Y0008469D01*
X0017574Y0008469D01*
X0019448Y0009246D01*
X0020883Y0010680D01*
X0021659Y0012555D01*
X0021659Y0014584D01*
X0020883Y0016458D01*
X0019448Y0017893D01*
X0017574Y0018669D01*
X0015545Y0018669D01*
X0013670Y0017893D01*
X0012235Y0016458D01*
X0011459Y0014584D01*
X0011459Y0012555D01*
X0012235Y0010680D01*
X0013670Y0009246D01*
X0012383Y0010533D02*
X0010423Y0010533D01*
X0009262Y0012131D02*
X0011635Y0012131D01*
X0011459Y0013730D02*
X0008392Y0013730D01*
X0007873Y0015328D02*
X0011767Y0015328D01*
X0012704Y0016927D02*
X0007586Y0016927D01*
X0007537Y0018525D02*
X0015197Y0018525D01*
X0017922Y0018525D02*
X0040169Y0018525D01*
X0040169Y0018265D02*
X0039270Y0017893D01*
X0037835Y0016458D01*
X0037059Y0014584D01*
X0037059Y0012555D01*
X0037835Y0010680D01*
X0039270Y0009246D01*
X0041145Y0008469D01*
X0043174Y0008469D01*
X0045048Y0009246D01*
X0046483Y0010680D01*
X0047259Y0012555D01*
X0047259Y0014584D01*
X0046483Y0016458D01*
X0045048Y0017893D01*
X0044150Y0018265D01*
X0044150Y0021649D01*
X0061516Y0039016D01*
X0061516Y0034257D01*
X0062072Y0032916D01*
X0063099Y0031889D01*
X0064440Y0031333D01*
X0065892Y0031333D01*
X0067234Y0031889D01*
X0067666Y0032321D01*
X0068099Y0031889D01*
X0068176Y0031857D01*
X0068176Y0027684D01*
X0064952Y0024460D01*
X0058425Y0024460D01*
X0058053Y0025358D01*
X0056618Y0026793D01*
X0054744Y0027569D01*
X0052715Y0027569D01*
X0050840Y0026793D01*
X0049406Y0025358D01*
X0048629Y0023484D01*
X0048629Y0021455D01*
X0049406Y0019580D01*
X0050840Y0018146D01*
X0051095Y0018040D01*
X0050840Y0017935D01*
X0049406Y0016500D01*
X0048629Y0014625D01*
X0048629Y0012597D01*
X0049406Y0010722D01*
X0050840Y0009287D01*
X0052715Y0008511D01*
X0054744Y0008511D01*
X0056618Y0009287D01*
X0058053Y0010722D01*
X0058425Y0011620D01*
X0065617Y0011620D01*
X0080991Y0026994D01*
X0082157Y0028161D01*
X0082157Y0031857D01*
X0082234Y0031889D01*
X0083260Y0032916D01*
X0083816Y0034257D01*
X0083816Y0040209D01*
X0083260Y0041551D01*
X0082234Y0042577D01*
X0080892Y0043133D01*
X0079440Y0043133D01*
X0078099Y0042577D01*
X0077949Y0042428D01*
X0077748Y0042629D01*
X0077085Y0043072D01*
X0076347Y0043377D01*
X0075565Y0043533D01*
X0075166Y0043533D01*
X0074767Y0043533D01*
X0073985Y0043377D01*
X0073248Y0043072D01*
X0072584Y0042629D01*
X0072383Y0042428D01*
X0072234Y0042577D01*
X0070892Y0043133D01*
X0069440Y0043133D01*
X0068099Y0042577D01*
X0067666Y0042145D01*
X0067234Y0042577D01*
X0065892Y0043133D01*
X0065633Y0043133D01*
X0070538Y0048038D01*
X0071704Y0049204D01*
X0071704Y0099633D01*
X0072304Y0099882D01*
X0073620Y0101198D01*
X0074332Y0102917D01*
X0074332Y0104778D01*
X0073620Y0106497D01*
X0072304Y0107813D01*
X0070585Y0108525D01*
X0068724Y0108525D01*
X0067005Y0107813D01*
X0065689Y0106497D01*
X0064977Y0104778D01*
X0064977Y0102917D01*
X0065689Y0101198D01*
X0067005Y0099882D01*
X0067723Y0099584D01*
X0067723Y0050853D01*
X0059302Y0042432D01*
X0059302Y0044153D01*
X0058525Y0046027D01*
X0057090Y0047462D01*
X0055525Y0048110D01*
X0055788Y0048219D01*
X0057026Y0049457D01*
X0057696Y0051074D01*
X0057696Y0058825D01*
X0057026Y0060442D01*
X0055857Y0061611D01*
X0058421Y0061611D01*
X0058721Y0061311D01*
X0060627Y0061311D01*
X0061974Y0062658D01*
X0061974Y0064564D01*
X0061673Y0064864D01*
X0061656Y0099614D01*
X0062304Y0099882D01*
X0063620Y0101198D01*
X0064332Y0102917D01*
X0064332Y0104778D01*
X0063620Y0106497D01*
X0062304Y0107813D01*
X0060585Y0108525D01*
X0058724Y0108525D01*
X0057005Y0107813D01*
X0055689Y0106497D01*
X0054977Y0104778D01*
X0054977Y0102917D01*
X0055689Y0101198D01*
X0057005Y0099882D01*
X0057656Y0099612D01*
X0057657Y0098673D01*
X0054063Y0102267D01*
X0054332Y0102917D01*
X0054332Y0104778D01*
X0053620Y0106497D01*
X0052304Y0107813D01*
X0050585Y0108525D01*
X0048724Y0108525D01*
X0047005Y0107813D01*
X0045689Y0106497D01*
X0044977Y0104778D01*
X0044977Y0102917D01*
X0045689Y0101198D01*
X0047005Y0099882D01*
X0048724Y0099170D01*
X0050585Y0099170D01*
X0051234Y0099439D01*
X0054918Y0095755D01*
X0054918Y0070729D01*
X0036247Y0070729D01*
X0035076Y0069558D01*
X0026493Y0060975D01*
X0025788Y0061680D01*
X0024171Y0062350D01*
X0022421Y0062350D01*
X0020804Y0061680D01*
X0019566Y0060442D01*
X0018896Y0058825D01*
X0018896Y0051074D01*
X0019566Y0049457D01*
X0020804Y0048219D01*
X0021972Y0047735D01*
X0021313Y0047462D01*
X0019878Y0046027D01*
X0019102Y0044153D01*
X0019102Y0042124D01*
X0019878Y0040250D01*
X0021313Y0038815D01*
X0023187Y0038039D01*
X0025216Y0038039D01*
X0027090Y0038815D01*
X0028525Y0040250D01*
X0029302Y0042124D01*
X0029302Y0044153D01*
X0028525Y0046027D01*
X0027090Y0047462D01*
X0025525Y0048110D01*
X0025788Y0048219D01*
X0027026Y0049457D01*
X0027696Y0051074D01*
X0027696Y0056521D01*
X0028896Y0057721D01*
X0028896Y0051074D01*
X0029566Y0049457D01*
X0030804Y0048219D01*
X0032421Y0047550D01*
X0034171Y0047550D01*
X0035788Y0048219D01*
X0037026Y0049457D01*
X0037696Y0051074D01*
X0037696Y0058825D01*
X0037026Y0060442D01*
X0036762Y0060706D01*
X0037668Y0061611D01*
X0040169Y0061611D01*
X0039635Y0061077D01*
X0039191Y0060465D01*
X0038848Y0059792D01*
X0038614Y0059074D01*
X0038496Y0058327D01*
X0038496Y0055150D01*
X0043096Y0055150D01*
X0043096Y0054750D01*
X0038496Y0054750D01*
X0038496Y0051572D01*
X0038614Y0050826D01*
X0038848Y0050107D01*
X0039191Y0049434D01*
X0039635Y0048823D01*
X0040169Y0048288D01*
X0040780Y0047844D01*
X0041453Y0047501D01*
X0042172Y0047268D01*
X0042918Y0047150D01*
X0043096Y0047150D01*
X0043096Y0054750D01*
X0043496Y0054750D01*
X0043496Y0055150D01*
X0048096Y0055150D01*
X0048096Y0058327D01*
X0047978Y0059074D01*
X0047744Y0059792D01*
X0047401Y0060465D01*
X0046957Y0061077D01*
X0046423Y0061611D01*
X0046423Y0061611D01*
X0050735Y0061611D01*
X0049566Y0060442D01*
X0048896Y0058825D01*
X0048896Y0051074D01*
X0049566Y0049457D01*
X0050804Y0048219D01*
X0051972Y0047735D01*
X0051313Y0047462D01*
X0049878Y0046027D01*
X0049102Y0044153D01*
X0049102Y0042124D01*
X0049878Y0040250D01*
X0051313Y0038815D01*
X0053187Y0038039D01*
X0054909Y0038039D01*
X0047631Y0030761D01*
X0047659Y0030936D01*
X0047659Y0031169D01*
X0042359Y0031169D01*
X0042359Y0025869D01*
X0042592Y0025869D01*
X0042767Y0025897D01*
X0040169Y0023299D01*
X0040169Y0018265D01*
X0040169Y0020124D02*
X0007537Y0020124D01*
X0007537Y0021722D02*
X0040169Y0021722D01*
X0040191Y0023321D02*
X0007537Y0023321D01*
X0007537Y0024919D02*
X0041789Y0024919D01*
X0041726Y0025869D02*
X0041959Y0025869D01*
X0041959Y0031169D01*
X0042359Y0031169D01*
X0042359Y0031569D01*
X0047659Y0031569D01*
X0047659Y0031802D01*
X0047524Y0032657D01*
X0047256Y0033481D01*
X0046863Y0034252D01*
X0046354Y0034952D01*
X0045742Y0035564D01*
X0045042Y0036073D01*
X0044270Y0036466D01*
X0043447Y0036734D01*
X0042592Y0036869D01*
X0042359Y0036869D01*
X0042359Y0031569D01*
X0041959Y0031569D01*
X0041959Y0031169D01*
X0036659Y0031169D01*
X0036659Y0030936D01*
X0036794Y0030081D01*
X0037062Y0029258D01*
X0037455Y0028487D01*
X0037964Y0027786D01*
X0038576Y0027174D01*
X0039276Y0026665D01*
X0040048Y0026272D01*
X0040871Y0026005D01*
X0041726Y0025869D01*
X0041959Y0026518D02*
X0042359Y0026518D01*
X0042359Y0028116D02*
X0041959Y0028116D01*
X0041959Y0029715D02*
X0042359Y0029715D01*
X0037724Y0028116D02*
X0020518Y0028116D01*
X0020883Y0028480D02*
X0021659Y0030355D01*
X0021659Y0032384D01*
X0020883Y0034258D01*
X0019448Y0035693D01*
X0017574Y0036469D01*
X0015545Y0036469D01*
X0013670Y0035693D01*
X0012235Y0034258D01*
X0011459Y0032384D01*
X0011459Y0030355D01*
X0012235Y0028480D01*
X0013670Y0027046D01*
X0015545Y0026269D01*
X0017574Y0026269D01*
X0019448Y0027046D01*
X0020883Y0028480D01*
X0021394Y0029715D02*
X0036914Y0029715D01*
X0036659Y0031569D02*
X0041959Y0031569D01*
X0041959Y0036869D01*
X0041726Y0036869D01*
X0040871Y0036734D01*
X0040048Y0036466D01*
X0039276Y0036073D01*
X0038576Y0035564D01*
X0037964Y0034952D01*
X0037455Y0034252D01*
X0037062Y0033481D01*
X0036794Y0032657D01*
X0036659Y0031802D01*
X0036659Y0031569D01*
X0036877Y0032912D02*
X0021440Y0032912D01*
X0021659Y0031313D02*
X0041959Y0031313D01*
X0042359Y0031313D02*
X0048183Y0031313D01*
X0047441Y0032912D02*
X0049782Y0032912D01*
X0051380Y0034510D02*
X0046675Y0034510D01*
X0044972Y0036109D02*
X0052979Y0036109D01*
X0054577Y0037707D02*
X0007537Y0037707D01*
X0007537Y0039306D02*
X0020822Y0039306D01*
X0019607Y0040904D02*
X0007537Y0040904D01*
X0007537Y0042503D02*
X0019102Y0042503D01*
X0019102Y0044101D02*
X0007537Y0044101D01*
X0007537Y0045700D02*
X0019742Y0045700D01*
X0021149Y0047298D02*
X0007537Y0047298D01*
X0007537Y0048897D02*
X0010126Y0048897D01*
X0009566Y0049457D02*
X0010804Y0048219D01*
X0012421Y0047550D01*
X0014171Y0047550D01*
X0015788Y0048219D01*
X0017026Y0049457D01*
X0017696Y0051074D01*
X0017696Y0058825D01*
X0017026Y0060442D01*
X0015788Y0061680D01*
X0014171Y0062350D01*
X0012421Y0062350D01*
X0010804Y0061680D01*
X0009566Y0060442D01*
X0008896Y0058825D01*
X0008896Y0051074D01*
X0009566Y0049457D01*
X0009136Y0050495D02*
X0007537Y0050495D01*
X0007537Y0052094D02*
X0008896Y0052094D01*
X0008896Y0053692D02*
X0007537Y0053692D01*
X0007537Y0055291D02*
X0008896Y0055291D01*
X0008896Y0056889D02*
X0007537Y0056889D01*
X0007537Y0058488D02*
X0008896Y0058488D01*
X0009419Y0060086D02*
X0007537Y0060086D01*
X0007537Y0061685D02*
X0010816Y0061685D01*
X0015776Y0061685D02*
X0020816Y0061685D01*
X0019419Y0060086D02*
X0017173Y0060086D01*
X0017696Y0058488D02*
X0018896Y0058488D01*
X0018896Y0056889D02*
X0017696Y0056889D01*
X0017696Y0055291D02*
X0018896Y0055291D01*
X0018896Y0053692D02*
X0017696Y0053692D01*
X0017696Y0052094D02*
X0018896Y0052094D01*
X0019136Y0050495D02*
X0017456Y0050495D01*
X0016466Y0048897D02*
X0020126Y0048897D01*
X0026466Y0048897D02*
X0030126Y0048897D01*
X0029136Y0050495D02*
X0027456Y0050495D01*
X0027696Y0052094D02*
X0028896Y0052094D01*
X0028896Y0053692D02*
X0027696Y0053692D01*
X0027696Y0055291D02*
X0028896Y0055291D01*
X0028896Y0056889D02*
X0028064Y0056889D01*
X0037173Y0060086D02*
X0038998Y0060086D01*
X0038521Y0058488D02*
X0037696Y0058488D01*
X0037696Y0056889D02*
X0038496Y0056889D01*
X0038496Y0055291D02*
X0037696Y0055291D01*
X0037696Y0053692D02*
X0038496Y0053692D01*
X0038496Y0052094D02*
X0037696Y0052094D01*
X0037456Y0050495D02*
X0038722Y0050495D01*
X0039581Y0048897D02*
X0036466Y0048897D01*
X0042078Y0047298D02*
X0027254Y0047298D01*
X0028661Y0045700D02*
X0049742Y0045700D01*
X0049102Y0044101D02*
X0029302Y0044101D01*
X0029302Y0042503D02*
X0049102Y0042503D01*
X0049607Y0040904D02*
X0028796Y0040904D01*
X0027581Y0039306D02*
X0050822Y0039306D01*
X0058609Y0036109D02*
X0061516Y0036109D01*
X0061516Y0034510D02*
X0057010Y0034510D01*
X0055412Y0032912D02*
X0062076Y0032912D01*
X0068176Y0031313D02*
X0053813Y0031313D01*
X0052215Y0029715D02*
X0068176Y0029715D01*
X0068176Y0028116D02*
X0050616Y0028116D01*
X0050565Y0026518D02*
X0049018Y0026518D01*
X0049224Y0024919D02*
X0047419Y0024919D01*
X0048629Y0023321D02*
X0045821Y0023321D01*
X0044222Y0021722D02*
X0048629Y0021722D01*
X0049181Y0020124D02*
X0044150Y0020124D01*
X0044150Y0018525D02*
X0050461Y0018525D01*
X0049832Y0016927D02*
X0046014Y0016927D01*
X0046951Y0015328D02*
X0048920Y0015328D01*
X0048629Y0013730D02*
X0047259Y0013730D01*
X0047084Y0012131D02*
X0048822Y0012131D01*
X0049595Y0010533D02*
X0046335Y0010533D01*
X0044295Y0008934D02*
X0051693Y0008934D01*
X0055765Y0008934D02*
X0081693Y0008934D01*
X0080840Y0009287D02*
X0082715Y0008511D01*
X0084744Y0008511D01*
X0086618Y0009287D01*
X0088053Y0010722D01*
X0088829Y0012597D01*
X0088829Y0014625D01*
X0088053Y0016500D01*
X0086618Y0017935D01*
X0086363Y0018040D01*
X0086618Y0018146D01*
X0088053Y0019580D01*
X0088425Y0020479D01*
X0098097Y0020479D01*
X0099263Y0021645D01*
X0106463Y0028845D01*
X0107629Y0030011D01*
X0107629Y0055567D01*
X0108205Y0054991D01*
X0109822Y0054321D01*
X0111573Y0054321D01*
X0113190Y0054991D01*
X0114428Y0056229D01*
X0115098Y0057846D01*
X0115098Y0065596D01*
X0114428Y0067214D01*
X0113190Y0068451D01*
X0111573Y0069121D01*
X0109822Y0069121D01*
X0108205Y0068451D01*
X0107629Y0067875D01*
X0107629Y0099007D01*
X0108065Y0099443D01*
X0108724Y0099170D01*
X0110585Y0099170D01*
X0112304Y0099882D01*
X0113620Y0101198D01*
X0114332Y0102917D01*
X0114332Y0104778D01*
X0113620Y0106497D01*
X0112304Y0107813D01*
X0110585Y0108525D01*
X0108724Y0108525D01*
X0107005Y0107813D01*
X0105689Y0106497D01*
X0104977Y0104778D01*
X0104977Y0102917D01*
X0105250Y0102258D01*
X0104814Y0101822D01*
X0103648Y0100656D01*
X0103648Y0067993D01*
X0103190Y0068451D01*
X0102717Y0068647D01*
X0102717Y0074858D01*
X0103017Y0075158D01*
X0103017Y0077064D01*
X0101670Y0078411D01*
X0099765Y0078411D01*
X0098417Y0077064D01*
X0098417Y0075158D01*
X0098717Y0074858D01*
X0098717Y0068663D01*
X0098205Y0068451D01*
X0096967Y0067214D01*
X0096298Y0065596D01*
X0096298Y0057846D01*
X0096967Y0056229D01*
X0098205Y0054991D01*
X0099822Y0054321D01*
X0101573Y0054321D01*
X0103190Y0054991D01*
X0103648Y0055449D01*
X0103648Y0031660D01*
X0096448Y0024460D01*
X0088425Y0024460D01*
X0088053Y0025358D01*
X0086618Y0026793D01*
X0084744Y0027569D01*
X0082715Y0027569D01*
X0080840Y0026793D01*
X0079406Y0025358D01*
X0078629Y0023484D01*
X0078629Y0021455D01*
X0079406Y0019580D01*
X0080840Y0018146D01*
X0081095Y0018040D01*
X0080840Y0017935D01*
X0079406Y0016500D01*
X0078629Y0014625D01*
X0078629Y0012597D01*
X0079406Y0010722D01*
X0080840Y0009287D01*
X0079595Y0010533D02*
X0057863Y0010533D01*
X0066127Y0012131D02*
X0078822Y0012131D01*
X0078629Y0013730D02*
X0067726Y0013730D01*
X0069324Y0015328D02*
X0078920Y0015328D01*
X0079832Y0016927D02*
X0070923Y0016927D01*
X0072521Y0018525D02*
X0080461Y0018525D01*
X0079181Y0020124D02*
X0074120Y0020124D01*
X0075718Y0021722D02*
X0078629Y0021722D01*
X0078629Y0023321D02*
X0077317Y0023321D01*
X0078915Y0024919D02*
X0079224Y0024919D01*
X0080514Y0026518D02*
X0080565Y0026518D01*
X0082112Y0028116D02*
X0100104Y0028116D01*
X0098506Y0026518D02*
X0086893Y0026518D01*
X0088235Y0024919D02*
X0096907Y0024919D01*
X0100939Y0023321D02*
X0133851Y0023321D01*
X0133882Y0023515D02*
X0133764Y0022768D01*
X0133764Y0022591D01*
X0141364Y0022591D01*
X0141364Y0027191D01*
X0138186Y0027191D01*
X0137440Y0027072D01*
X0136721Y0026839D01*
X0136048Y0026496D01*
X0135437Y0026052D01*
X0134903Y0025518D01*
X0134458Y0024906D01*
X0134115Y0024233D01*
X0133882Y0023515D01*
X0133764Y0022191D02*
X0133764Y0022013D01*
X0133882Y0021267D01*
X0134115Y0020548D01*
X0134458Y0019875D01*
X0134903Y0019264D01*
X0135437Y0018729D01*
X0136048Y0018285D01*
X0136721Y0017942D01*
X0137440Y0017709D01*
X0138186Y0017591D01*
X0141364Y0017591D01*
X0141364Y0022190D01*
X0141764Y0022190D01*
X0141764Y0017591D01*
X0144942Y0017591D01*
X0145688Y0017709D01*
X0146406Y0017942D01*
X0147080Y0018285D01*
X0147691Y0018729D01*
X0148225Y0019264D01*
X0148669Y0019875D01*
X0149012Y0020548D01*
X0149246Y0021267D01*
X0149364Y0022013D01*
X0149364Y0022191D01*
X0141764Y0022191D01*
X0141764Y0022591D01*
X0141364Y0022591D01*
X0141364Y0022191D01*
X0133764Y0022191D01*
X0133810Y0021722D02*
X0099340Y0021722D01*
X0102537Y0024919D02*
X0134468Y0024919D01*
X0136091Y0026518D02*
X0104136Y0026518D01*
X0105734Y0028116D02*
X0137385Y0028116D01*
X0137689Y0027991D02*
X0145439Y0027991D01*
X0147056Y0028660D01*
X0148294Y0029898D01*
X0148964Y0031515D01*
X0148964Y0033266D01*
X0148294Y0034883D01*
X0147056Y0036121D01*
X0145439Y0036791D01*
X0137689Y0036791D01*
X0136071Y0036121D01*
X0134834Y0034883D01*
X0134164Y0033266D01*
X0134164Y0031515D01*
X0134834Y0029898D01*
X0136071Y0028660D01*
X0137689Y0027991D01*
X0135017Y0029715D02*
X0107333Y0029715D01*
X0107629Y0031313D02*
X0134248Y0031313D01*
X0134164Y0032912D02*
X0107629Y0032912D01*
X0107629Y0034510D02*
X0134679Y0034510D01*
X0136059Y0036109D02*
X0107629Y0036109D01*
X0107629Y0037707D02*
X0151237Y0037707D01*
X0151819Y0037125D02*
X0150582Y0038363D01*
X0149912Y0039980D01*
X0149912Y0041730D01*
X0150582Y0043348D01*
X0151819Y0044585D01*
X0153437Y0045255D01*
X0161187Y0045255D01*
X0162804Y0044585D01*
X0164042Y0043348D01*
X0164712Y0041730D01*
X0164712Y0039980D01*
X0164042Y0038363D01*
X0162804Y0037125D01*
X0161187Y0036455D01*
X0153437Y0036455D01*
X0151819Y0037125D01*
X0152469Y0035303D02*
X0151796Y0034960D01*
X0151185Y0034516D01*
X0150651Y0033982D01*
X0150206Y0033371D01*
X0149863Y0032698D01*
X0149630Y0031979D01*
X0149512Y0031233D01*
X0149512Y0031055D01*
X0157112Y0031055D01*
X0157112Y0035655D01*
X0153934Y0035655D01*
X0153188Y0035537D01*
X0152469Y0035303D01*
X0151179Y0034510D02*
X0148448Y0034510D01*
X0148964Y0032912D02*
X0149973Y0032912D01*
X0149525Y0031313D02*
X0148880Y0031313D01*
X0149512Y0030655D02*
X0149512Y0030477D01*
X0149630Y0029731D01*
X0149863Y0029013D01*
X0150206Y0028339D01*
X0150651Y0027728D01*
X0151185Y0027194D01*
X0151796Y0026750D01*
X0152469Y0026407D01*
X0153188Y0026173D01*
X0153934Y0026055D01*
X0157112Y0026055D01*
X0157112Y0030655D01*
X0157512Y0030655D01*
X0157512Y0031055D01*
X0165112Y0031055D01*
X0165112Y0031233D01*
X0164994Y0031979D01*
X0164760Y0032698D01*
X0164417Y0033371D01*
X0163973Y0033982D01*
X0163439Y0034516D01*
X0162828Y0034960D01*
X0162154Y0035303D01*
X0161436Y0035537D01*
X0160690Y0035655D01*
X0157512Y0035655D01*
X0157512Y0031055D01*
X0157112Y0031055D01*
X0157112Y0030655D01*
X0149512Y0030655D01*
X0149635Y0029715D02*
X0148110Y0029715D01*
X0150369Y0028116D02*
X0145742Y0028116D01*
X0145688Y0027072D02*
X0144942Y0027191D01*
X0141764Y0027191D01*
X0141764Y0022591D01*
X0149364Y0022591D01*
X0149364Y0022768D01*
X0149246Y0023515D01*
X0149012Y0024233D01*
X0148669Y0024906D01*
X0148225Y0025518D01*
X0147691Y0026052D01*
X0147080Y0026496D01*
X0146406Y0026839D01*
X0145688Y0027072D01*
X0147037Y0026518D02*
X0152252Y0026518D01*
X0148660Y0024919D02*
X0222743Y0024919D01*
X0222743Y0026518D02*
X0162372Y0026518D01*
X0162154Y0026407D02*
X0162828Y0026750D01*
X0163439Y0027194D01*
X0163973Y0027728D01*
X0164417Y0028339D01*
X0164760Y0029013D01*
X0164994Y0029731D01*
X0165112Y0030477D01*
X0165112Y0030655D01*
X0157512Y0030655D01*
X0157512Y0026055D01*
X0160690Y0026055D01*
X0161436Y0026173D01*
X0162154Y0026407D01*
X0164255Y0028116D02*
X0222743Y0028116D01*
X0222743Y0029715D02*
X0164988Y0029715D01*
X0165099Y0031313D02*
X0222743Y0031313D01*
X0222743Y0032912D02*
X0164651Y0032912D01*
X0163445Y0034510D02*
X0222743Y0034510D01*
X0222743Y0036109D02*
X0147068Y0036109D01*
X0145439Y0037991D02*
X0147056Y0038660D01*
X0148294Y0039898D01*
X0148964Y0041515D01*
X0148964Y0043266D01*
X0148294Y0044883D01*
X0147056Y0046121D01*
X0145439Y0046791D01*
X0137689Y0046791D01*
X0136071Y0046121D01*
X0134834Y0044883D01*
X0134164Y0043266D01*
X0134164Y0041515D01*
X0134834Y0039898D01*
X0136071Y0038660D01*
X0137689Y0037991D01*
X0145439Y0037991D01*
X0147702Y0039306D02*
X0150191Y0039306D01*
X0149912Y0040904D02*
X0148711Y0040904D01*
X0148964Y0042503D02*
X0150232Y0042503D01*
X0151335Y0044101D02*
X0148618Y0044101D01*
X0147477Y0045700D02*
X0222743Y0045700D01*
X0222743Y0047298D02*
X0162978Y0047298D01*
X0162804Y0047125D02*
X0164042Y0048363D01*
X0164712Y0049980D01*
X0164712Y0051730D01*
X0164042Y0053348D01*
X0162804Y0054585D01*
X0161187Y0055255D01*
X0153437Y0055255D01*
X0151819Y0054585D01*
X0150582Y0053348D01*
X0150439Y0053003D01*
X0148731Y0053003D01*
X0148422Y0053313D01*
X0146517Y0053313D01*
X0145169Y0051965D01*
X0145169Y0050060D01*
X0146517Y0048713D01*
X0148422Y0048713D01*
X0148731Y0049022D01*
X0150309Y0049022D01*
X0150582Y0048363D01*
X0151819Y0047125D01*
X0153437Y0046455D01*
X0161187Y0046455D01*
X0162804Y0047125D01*
X0164263Y0048897D02*
X0222743Y0048897D01*
X0222743Y0050495D02*
X0164712Y0050495D01*
X0164561Y0052094D02*
X0222743Y0052094D01*
X0222743Y0053692D02*
X0163697Y0053692D01*
X0162235Y0056889D02*
X0222743Y0056889D01*
X0222743Y0055291D02*
X0133490Y0055291D01*
X0133190Y0054991D02*
X0134428Y0056229D01*
X0135098Y0057846D01*
X0135098Y0065596D01*
X0134428Y0067214D01*
X0133190Y0068451D01*
X0132573Y0068707D01*
X0150439Y0068707D01*
X0150582Y0068363D01*
X0151819Y0067125D01*
X0153437Y0066455D01*
X0161187Y0066455D01*
X0162804Y0067125D01*
X0164042Y0068363D01*
X0164712Y0069980D01*
X0164712Y0071730D01*
X0164042Y0073348D01*
X0162804Y0074585D01*
X0161187Y0075255D01*
X0153437Y0075255D01*
X0151819Y0074585D01*
X0150582Y0073348D01*
X0150309Y0072688D01*
X0126094Y0072688D01*
X0125784Y0072998D01*
X0123879Y0072998D01*
X0122531Y0071650D01*
X0122531Y0069745D01*
X0123879Y0068398D01*
X0125784Y0068398D01*
X0126094Y0068707D01*
X0128823Y0068707D01*
X0128205Y0068451D01*
X0126967Y0067214D01*
X0126298Y0065596D01*
X0126298Y0057846D01*
X0126967Y0056229D01*
X0128205Y0054991D01*
X0129822Y0054321D01*
X0131573Y0054321D01*
X0133190Y0054991D01*
X0134701Y0056889D02*
X0152388Y0056889D01*
X0151819Y0057125D02*
X0153437Y0056455D01*
X0161187Y0056455D01*
X0162804Y0057125D01*
X0164042Y0058363D01*
X0164712Y0059980D01*
X0164712Y0061730D01*
X0164042Y0063348D01*
X0162804Y0064585D01*
X0161187Y0065255D01*
X0153437Y0065255D01*
X0151819Y0064585D01*
X0150582Y0063348D01*
X0150374Y0062846D01*
X0144794Y0062846D01*
X0144485Y0063155D01*
X0142580Y0063155D01*
X0141232Y0061808D01*
X0141232Y0059902D01*
X0142580Y0058555D01*
X0144485Y0058555D01*
X0144794Y0058865D01*
X0150374Y0058865D01*
X0150582Y0058363D01*
X0151819Y0057125D01*
X0150530Y0058488D02*
X0135098Y0058488D01*
X0135098Y0060086D02*
X0141232Y0060086D01*
X0141232Y0061685D02*
X0135098Y0061685D01*
X0135098Y0063283D02*
X0150555Y0063283D01*
X0152536Y0064882D02*
X0135098Y0064882D01*
X0134731Y0066480D02*
X0153375Y0066480D01*
X0150865Y0068079D02*
X0133562Y0068079D01*
X0127833Y0068079D02*
X0123562Y0068079D01*
X0123190Y0068451D02*
X0121573Y0069121D01*
X0119822Y0069121D01*
X0118205Y0068451D01*
X0116967Y0067214D01*
X0116298Y0065596D01*
X0116298Y0057846D01*
X0116967Y0056229D01*
X0118205Y0054991D01*
X0119822Y0054321D01*
X0121573Y0054321D01*
X0123190Y0054991D01*
X0124428Y0056229D01*
X0125098Y0057846D01*
X0125098Y0065596D01*
X0124428Y0067214D01*
X0123190Y0068451D01*
X0122599Y0069677D02*
X0107629Y0069677D01*
X0107629Y0068079D02*
X0107833Y0068079D01*
X0103648Y0068079D02*
X0103562Y0068079D01*
X0103648Y0069677D02*
X0102717Y0069677D01*
X0102717Y0071276D02*
X0103648Y0071276D01*
X0103648Y0072874D02*
X0102717Y0072874D01*
X0102717Y0074473D02*
X0103648Y0074473D01*
X0103648Y0076072D02*
X0103017Y0076072D01*
X0102411Y0077670D02*
X0103648Y0077670D01*
X0099024Y0077670D02*
X0071704Y0077670D01*
X0071704Y0076072D02*
X0098417Y0076072D01*
X0098717Y0074473D02*
X0071704Y0074473D01*
X0071704Y0072874D02*
X0098717Y0072874D01*
X0098717Y0071276D02*
X0071704Y0071276D01*
X0067723Y0071276D02*
X0061670Y0071276D01*
X0061669Y0072874D02*
X0067723Y0072874D01*
X0067723Y0074473D02*
X0061669Y0074473D01*
X0061668Y0076072D02*
X0067723Y0076072D01*
X0067723Y0077670D02*
X0061667Y0077670D01*
X0061666Y0079269D02*
X0067723Y0079269D01*
X0067723Y0080867D02*
X0061666Y0080867D01*
X0061665Y0082466D02*
X0067723Y0082466D01*
X0067723Y0084064D02*
X0061664Y0084064D01*
X0061663Y0085663D02*
X0067723Y0085663D01*
X0067723Y0087261D02*
X0061662Y0087261D01*
X0061662Y0088860D02*
X0067723Y0088860D01*
X0067723Y0090458D02*
X0061661Y0090458D01*
X0061660Y0092057D02*
X0067723Y0092057D01*
X0067723Y0093655D02*
X0061659Y0093655D01*
X0061659Y0095254D02*
X0067723Y0095254D01*
X0067723Y0096852D02*
X0061658Y0096852D01*
X0061657Y0098451D02*
X0067723Y0098451D01*
X0071704Y0098451D02*
X0103648Y0098451D01*
X0103648Y0096852D02*
X0071704Y0096852D01*
X0071704Y0095254D02*
X0103648Y0095254D01*
X0103648Y0093655D02*
X0071704Y0093655D01*
X0071704Y0092057D02*
X0103648Y0092057D01*
X0103648Y0090458D02*
X0071704Y0090458D01*
X0071704Y0088860D02*
X0103648Y0088860D01*
X0103648Y0087261D02*
X0071704Y0087261D01*
X0071704Y0085663D02*
X0103648Y0085663D01*
X0103648Y0084064D02*
X0071704Y0084064D01*
X0071704Y0082466D02*
X0103648Y0082466D01*
X0103648Y0080867D02*
X0071704Y0080867D01*
X0071704Y0079269D02*
X0103648Y0079269D01*
X0107629Y0079269D02*
X0116945Y0079269D01*
X0116626Y0079587D02*
X0117973Y0078240D01*
X0119879Y0078240D01*
X0120188Y0078550D01*
X0150504Y0078550D01*
X0150582Y0078363D01*
X0151819Y0077125D01*
X0153437Y0076455D01*
X0161187Y0076455D01*
X0162804Y0077125D01*
X0164042Y0078363D01*
X0164712Y0079980D01*
X0164712Y0081730D01*
X0164042Y0083348D01*
X0162804Y0084585D01*
X0161187Y0085255D01*
X0153437Y0085255D01*
X0151819Y0084585D01*
X0150582Y0083348D01*
X0150243Y0082531D01*
X0120188Y0082531D01*
X0119879Y0082840D01*
X0117973Y0082840D01*
X0116626Y0081493D01*
X0116626Y0079587D01*
X0116626Y0080867D02*
X0107629Y0080867D01*
X0107629Y0082466D02*
X0117599Y0082466D01*
X0107629Y0084064D02*
X0151298Y0084064D01*
X0151819Y0087125D02*
X0153437Y0086455D01*
X0161187Y0086455D01*
X0162804Y0087125D01*
X0164042Y0088363D01*
X0164712Y0089980D01*
X0164712Y0091730D01*
X0164042Y0093348D01*
X0162804Y0094585D01*
X0161187Y0095255D01*
X0153437Y0095255D01*
X0151819Y0094585D01*
X0150582Y0093348D01*
X0149912Y0091730D01*
X0149912Y0089980D01*
X0150582Y0088363D01*
X0151819Y0087125D01*
X0151683Y0087261D02*
X0107629Y0087261D01*
X0107629Y0085663D02*
X0222743Y0085663D01*
X0222743Y0087261D02*
X0162940Y0087261D01*
X0164248Y0088860D02*
X0222743Y0088860D01*
X0222743Y0090458D02*
X0164712Y0090458D01*
X0164577Y0092057D02*
X0222743Y0092057D01*
X0222743Y0093655D02*
X0163734Y0093655D01*
X0161191Y0095254D02*
X0222743Y0095254D01*
X0222743Y0096852D02*
X0107629Y0096852D01*
X0107629Y0095254D02*
X0153433Y0095254D01*
X0150889Y0093655D02*
X0107629Y0093655D01*
X0107629Y0092057D02*
X0150047Y0092057D01*
X0149912Y0090458D02*
X0107629Y0090458D01*
X0107629Y0088860D02*
X0150376Y0088860D01*
X0163325Y0084064D02*
X0222743Y0084064D01*
X0222743Y0082466D02*
X0164407Y0082466D01*
X0164712Y0080867D02*
X0222743Y0080867D01*
X0222743Y0079269D02*
X0164417Y0079269D01*
X0163349Y0077670D02*
X0222743Y0077670D01*
X0222743Y0076072D02*
X0107629Y0076072D01*
X0107629Y0077670D02*
X0151274Y0077670D01*
X0151707Y0074473D02*
X0107629Y0074473D01*
X0107629Y0072874D02*
X0123756Y0072874D01*
X0122531Y0071276D02*
X0107629Y0071276D01*
X0113562Y0068079D02*
X0117833Y0068079D01*
X0116664Y0066480D02*
X0114731Y0066480D01*
X0115098Y0064882D02*
X0116298Y0064882D01*
X0116298Y0063283D02*
X0115098Y0063283D01*
X0115098Y0061685D02*
X0116298Y0061685D01*
X0116298Y0060086D02*
X0115098Y0060086D01*
X0115098Y0058488D02*
X0116298Y0058488D01*
X0116694Y0056889D02*
X0114701Y0056889D01*
X0113490Y0055291D02*
X0117905Y0055291D01*
X0123490Y0055291D02*
X0127905Y0055291D01*
X0126694Y0056889D02*
X0124701Y0056889D01*
X0125098Y0058488D02*
X0126298Y0058488D01*
X0126298Y0060086D02*
X0125098Y0060086D01*
X0125098Y0061685D02*
X0126298Y0061685D01*
X0126298Y0063283D02*
X0125098Y0063283D01*
X0125098Y0064882D02*
X0126298Y0064882D01*
X0126664Y0066480D02*
X0124731Y0066480D01*
X0125907Y0072874D02*
X0150386Y0072874D01*
X0162916Y0074473D02*
X0222743Y0074473D01*
X0222743Y0072874D02*
X0164238Y0072874D01*
X0164712Y0071276D02*
X0222743Y0071276D01*
X0226724Y0071276D02*
X0239967Y0071276D01*
X0239967Y0072874D02*
X0226724Y0072874D01*
X0226724Y0074473D02*
X0239967Y0074473D01*
X0239967Y0076072D02*
X0226724Y0076072D01*
X0226724Y0077670D02*
X0239967Y0077670D01*
X0239967Y0079269D02*
X0226724Y0079269D01*
X0226724Y0080867D02*
X0239967Y0080867D01*
X0239967Y0082466D02*
X0226724Y0082466D01*
X0226724Y0084064D02*
X0239967Y0084064D01*
X0239967Y0085663D02*
X0226724Y0085663D01*
X0226724Y0087261D02*
X0239967Y0087261D01*
X0239967Y0088860D02*
X0226724Y0088860D01*
X0226724Y0090458D02*
X0239967Y0090458D01*
X0239967Y0092057D02*
X0226724Y0092057D01*
X0226724Y0093655D02*
X0239967Y0093655D01*
X0239967Y0095254D02*
X0226724Y0095254D01*
X0226724Y0096852D02*
X0239967Y0096852D01*
X0239967Y0098451D02*
X0226724Y0098451D01*
X0226993Y0099505D02*
X0227705Y0099142D01*
X0228465Y0098895D01*
X0229255Y0098770D01*
X0229362Y0098770D01*
X0229362Y0103555D01*
X0229947Y0103555D01*
X0229947Y0104140D01*
X0229362Y0104140D01*
X0229362Y0108925D01*
X0229255Y0108925D01*
X0228465Y0108800D01*
X0227705Y0108553D01*
X0226993Y0108190D01*
X0226724Y0107994D01*
X0226724Y0109593D01*
X0225558Y0110759D01*
X0225558Y0110759D01*
X0224059Y0112258D01*
X0224332Y0112917D01*
X0224332Y0114778D01*
X0223620Y0116497D01*
X0222304Y0117813D01*
X0220585Y0118525D01*
X0218724Y0118525D01*
X0217005Y0117813D01*
X0215689Y0116497D01*
X0214977Y0114778D01*
X0214977Y0112917D01*
X0215689Y0111198D01*
X0217005Y0109882D01*
X0218724Y0109170D01*
X0220585Y0109170D01*
X0221244Y0109443D01*
X0222743Y0107944D01*
X0222743Y0107374D01*
X0222304Y0107813D01*
X0220585Y0108525D01*
X0218724Y0108525D01*
X0217005Y0107813D01*
X0215689Y0106497D01*
X0214977Y0104778D01*
X0214977Y0102917D01*
X0215689Y0101198D01*
X0217005Y0099882D01*
X0218724Y0099170D01*
X0220585Y0099170D01*
X0222304Y0099882D01*
X0222743Y0100320D01*
X0222743Y0018810D01*
X0222433Y0018501D01*
X0222433Y0016595D01*
X0223780Y0015248D01*
X0225686Y0015248D01*
X0227033Y0016595D01*
X0227033Y0018501D01*
X0226724Y0018810D01*
X0226724Y0099700D01*
X0226993Y0099505D01*
X0229362Y0100049D02*
X0229947Y0100049D01*
X0229947Y0098770D02*
X0230054Y0098770D01*
X0230843Y0098895D01*
X0231603Y0099142D01*
X0232316Y0099505D01*
X0232962Y0099974D01*
X0233527Y0100539D01*
X0233997Y0101186D01*
X0234360Y0101898D01*
X0234607Y0102658D01*
X0234732Y0103448D01*
X0234732Y0103555D01*
X0229947Y0103555D01*
X0229947Y0098770D01*
X0233037Y0100049D02*
X0239967Y0100049D01*
X0239967Y0101648D02*
X0234232Y0101648D01*
X0234700Y0103246D02*
X0239967Y0103246D01*
X0239967Y0103338D02*
X0239967Y0030621D01*
X0239657Y0030312D01*
X0239657Y0028406D01*
X0241005Y0027059D01*
X0242910Y0027059D01*
X0244257Y0028406D01*
X0244257Y0030312D01*
X0243948Y0030621D01*
X0243948Y0103338D01*
X0243948Y0104987D01*
X0234332Y0114603D01*
X0234332Y0114778D01*
X0233620Y0116497D01*
X0232304Y0117813D01*
X0230585Y0118525D01*
X0228724Y0118525D01*
X0227005Y0117813D01*
X0225689Y0116497D01*
X0224977Y0114778D01*
X0224977Y0112917D01*
X0225689Y0111198D01*
X0227005Y0109882D01*
X0228724Y0109170D01*
X0230585Y0109170D01*
X0232304Y0109882D01*
X0232863Y0110441D01*
X0239967Y0103338D01*
X0238460Y0104845D02*
X0234637Y0104845D01*
X0234607Y0105036D02*
X0234732Y0104247D01*
X0234732Y0104140D01*
X0229947Y0104140D01*
X0229947Y0108925D01*
X0230054Y0108925D01*
X0230843Y0108800D01*
X0231603Y0108553D01*
X0232316Y0108190D01*
X0232962Y0107720D01*
X0233527Y0107155D01*
X0233997Y0106508D01*
X0234360Y0105796D01*
X0234607Y0105036D01*
X0234030Y0106443D02*
X0236861Y0106443D01*
X0235263Y0108042D02*
X0232520Y0108042D01*
X0231721Y0109640D02*
X0233664Y0109640D01*
X0229947Y0108042D02*
X0229362Y0108042D01*
X0229362Y0106443D02*
X0229947Y0106443D01*
X0229947Y0104845D02*
X0229362Y0104845D01*
X0229362Y0103246D02*
X0229947Y0103246D01*
X0229947Y0101648D02*
X0229362Y0101648D01*
X0222743Y0100049D02*
X0222471Y0100049D01*
X0222743Y0098451D02*
X0107629Y0098451D01*
X0103648Y0100049D02*
X0102471Y0100049D01*
X0102304Y0099882D02*
X0103620Y0101198D01*
X0104332Y0102917D01*
X0104332Y0104778D01*
X0103620Y0106497D01*
X0102304Y0107813D01*
X0100585Y0108525D01*
X0098724Y0108525D01*
X0097005Y0107813D01*
X0095689Y0106497D01*
X0094977Y0104778D01*
X0094977Y0102917D01*
X0095689Y0101198D01*
X0097005Y0099882D01*
X0098724Y0099170D01*
X0100585Y0099170D01*
X0102304Y0099882D01*
X0103806Y0101648D02*
X0104640Y0101648D01*
X0104332Y0103246D02*
X0104977Y0103246D01*
X0105005Y0104845D02*
X0104304Y0104845D01*
X0103642Y0106443D02*
X0105667Y0106443D01*
X0107558Y0108042D02*
X0101751Y0108042D01*
X0101603Y0109142D02*
X0102316Y0109505D01*
X0102962Y0109974D01*
X0103527Y0110539D01*
X0103997Y0111186D01*
X0104360Y0111898D01*
X0104607Y0112658D01*
X0104732Y0113448D01*
X0104732Y0113555D01*
X0099947Y0113555D01*
X0099947Y0114140D01*
X0099362Y0114140D01*
X0099362Y0118925D01*
X0099255Y0118925D01*
X0098465Y0118800D01*
X0097705Y0118553D01*
X0096993Y0118190D01*
X0096347Y0117720D01*
X0095781Y0117155D01*
X0095312Y0116508D01*
X0094949Y0115796D01*
X0094702Y0115036D01*
X0094577Y0114247D01*
X0094577Y0114140D01*
X0099362Y0114140D01*
X0099362Y0113555D01*
X0094577Y0113555D01*
X0094577Y0113448D01*
X0094702Y0112658D01*
X0094949Y0111898D01*
X0095312Y0111186D01*
X0095781Y0110539D01*
X0096347Y0109974D01*
X0096993Y0109505D01*
X0097705Y0109142D01*
X0098465Y0108895D01*
X0099255Y0108770D01*
X0099362Y0108770D01*
X0099362Y0113555D01*
X0099947Y0113555D01*
X0099947Y0108770D01*
X0100054Y0108770D01*
X0100843Y0108895D01*
X0101603Y0109142D01*
X0102502Y0109640D02*
X0107588Y0109640D01*
X0107005Y0109882D02*
X0108724Y0109170D01*
X0110585Y0109170D01*
X0112304Y0109882D01*
X0113620Y0111198D01*
X0114332Y0112917D01*
X0114332Y0114778D01*
X0113620Y0116497D01*
X0112304Y0117813D01*
X0110585Y0118525D01*
X0108724Y0118525D01*
X0107005Y0117813D01*
X0105689Y0116497D01*
X0104977Y0114778D01*
X0104977Y0112917D01*
X0105689Y0111198D01*
X0107005Y0109882D01*
X0105672Y0111239D02*
X0104024Y0111239D01*
X0099947Y0111239D02*
X0099362Y0111239D01*
X0099362Y0109640D02*
X0099947Y0109640D01*
X0097558Y0108042D02*
X0091751Y0108042D01*
X0092304Y0107813D02*
X0090585Y0108525D01*
X0088724Y0108525D01*
X0087005Y0107813D01*
X0085689Y0106497D01*
X0084977Y0104778D01*
X0084977Y0102917D01*
X0085689Y0101198D01*
X0087005Y0099882D01*
X0088724Y0099170D01*
X0090585Y0099170D01*
X0092304Y0099882D01*
X0093620Y0101198D01*
X0094332Y0102917D01*
X0094332Y0104778D01*
X0093620Y0106497D01*
X0092304Y0107813D01*
X0093642Y0106443D02*
X0095667Y0106443D01*
X0095005Y0104845D02*
X0094304Y0104845D01*
X0094332Y0103246D02*
X0094977Y0103246D01*
X0095502Y0101648D02*
X0093806Y0101648D01*
X0092471Y0100049D02*
X0096837Y0100049D01*
X0086837Y0100049D02*
X0083037Y0100049D01*
X0082962Y0099974D02*
X0083527Y0100539D01*
X0083997Y0101186D01*
X0084360Y0101898D01*
X0084607Y0102658D01*
X0084732Y0103448D01*
X0084732Y0103555D01*
X0079947Y0103555D01*
X0079947Y0104140D01*
X0079362Y0104140D01*
X0079362Y0108925D01*
X0079255Y0108925D01*
X0078465Y0108800D01*
X0077705Y0108553D01*
X0076993Y0108190D01*
X0076347Y0107720D01*
X0075781Y0107155D01*
X0075312Y0106508D01*
X0074949Y0105796D01*
X0074702Y0105036D01*
X0074577Y0104247D01*
X0074577Y0104140D01*
X0079362Y0104140D01*
X0079362Y0103555D01*
X0074577Y0103555D01*
X0074577Y0103448D01*
X0074702Y0102658D01*
X0074949Y0101898D01*
X0075312Y0101186D01*
X0075781Y0100539D01*
X0076347Y0099974D01*
X0076993Y0099505D01*
X0077705Y0099142D01*
X0078465Y0098895D01*
X0079255Y0098770D01*
X0079362Y0098770D01*
X0079362Y0103555D01*
X0079947Y0103555D01*
X0079947Y0098770D01*
X0080054Y0098770D01*
X0080843Y0098895D01*
X0081603Y0099142D01*
X0082316Y0099505D01*
X0082962Y0099974D01*
X0084232Y0101648D02*
X0085502Y0101648D01*
X0084977Y0103246D02*
X0084700Y0103246D01*
X0084732Y0104140D02*
X0084732Y0104247D01*
X0084607Y0105036D01*
X0084360Y0105796D01*
X0083997Y0106508D01*
X0083527Y0107155D01*
X0082962Y0107720D01*
X0082316Y0108190D01*
X0081603Y0108553D01*
X0080843Y0108800D01*
X0080054Y0108925D01*
X0079947Y0108925D01*
X0079947Y0104140D01*
X0084732Y0104140D01*
X0084637Y0104845D02*
X0085005Y0104845D01*
X0085667Y0106443D02*
X0084030Y0106443D01*
X0082520Y0108042D02*
X0087558Y0108042D01*
X0087588Y0109640D02*
X0081721Y0109640D01*
X0082304Y0109882D02*
X0083620Y0111198D01*
X0084332Y0112917D01*
X0084332Y0114778D01*
X0083620Y0116497D01*
X0082304Y0117813D01*
X0080585Y0118525D01*
X0078724Y0118525D01*
X0077005Y0117813D01*
X0075689Y0116497D01*
X0074977Y0114778D01*
X0074977Y0112917D01*
X0075689Y0111198D01*
X0077005Y0109882D01*
X0078724Y0109170D01*
X0080585Y0109170D01*
X0082304Y0109882D01*
X0083637Y0111239D02*
X0085672Y0111239D01*
X0085689Y0111198D02*
X0087005Y0109882D01*
X0088724Y0109170D01*
X0090585Y0109170D01*
X0092304Y0109882D01*
X0093620Y0111198D01*
X0094332Y0112917D01*
X0094332Y0114778D01*
X0093620Y0116497D01*
X0092304Y0117813D01*
X0090585Y0118525D01*
X0088724Y0118525D01*
X0087005Y0117813D01*
X0085689Y0116497D01*
X0084977Y0114778D01*
X0084977Y0112917D01*
X0085689Y0111198D01*
X0085010Y0112837D02*
X0084299Y0112837D01*
X0084332Y0114436D02*
X0084977Y0114436D01*
X0085497Y0116034D02*
X0083811Y0116034D01*
X0082484Y0117633D02*
X0086825Y0117633D01*
X0092484Y0117633D02*
X0096259Y0117633D01*
X0095070Y0116034D02*
X0093811Y0116034D01*
X0094332Y0114436D02*
X0094607Y0114436D01*
X0094673Y0112837D02*
X0094299Y0112837D01*
X0093637Y0111239D02*
X0095285Y0111239D01*
X0096806Y0109640D02*
X0091721Y0109640D01*
X0099362Y0112837D02*
X0099947Y0112837D01*
X0099947Y0114140D02*
X0104732Y0114140D01*
X0104732Y0114247D01*
X0104607Y0115036D01*
X0104360Y0115796D01*
X0103997Y0116508D01*
X0103527Y0117155D01*
X0102962Y0117720D01*
X0102316Y0118190D01*
X0101603Y0118553D01*
X0100843Y0118800D01*
X0100054Y0118925D01*
X0099947Y0118925D01*
X0099947Y0114140D01*
X0099947Y0114436D02*
X0099362Y0114436D01*
X0099362Y0116034D02*
X0099947Y0116034D01*
X0099947Y0117633D02*
X0099362Y0117633D01*
X0103050Y0117633D02*
X0106825Y0117633D01*
X0105497Y0116034D02*
X0104239Y0116034D01*
X0104702Y0114436D02*
X0104977Y0114436D01*
X0105010Y0112837D02*
X0104635Y0112837D01*
X0111721Y0109640D02*
X0117588Y0109640D01*
X0117005Y0109882D02*
X0118724Y0109170D01*
X0120585Y0109170D01*
X0122304Y0109882D01*
X0123620Y0111198D01*
X0124332Y0112917D01*
X0124332Y0114778D01*
X0123620Y0116497D01*
X0122304Y0117813D01*
X0120585Y0118525D01*
X0118724Y0118525D01*
X0117005Y0117813D01*
X0115689Y0116497D01*
X0114977Y0114778D01*
X0114977Y0112917D01*
X0115689Y0111198D01*
X0117005Y0109882D01*
X0115672Y0111239D02*
X0113637Y0111239D01*
X0114299Y0112837D02*
X0115010Y0112837D01*
X0114977Y0114436D02*
X0114332Y0114436D01*
X0113811Y0116034D02*
X0115497Y0116034D01*
X0116825Y0117633D02*
X0112484Y0117633D01*
X0122484Y0117633D02*
X0126259Y0117633D01*
X0126347Y0117720D02*
X0125781Y0117155D01*
X0125312Y0116508D01*
X0124949Y0115796D01*
X0124702Y0115036D01*
X0124577Y0114247D01*
X0124577Y0114140D01*
X0129362Y0114140D01*
X0129362Y0118925D01*
X0129255Y0118925D01*
X0128465Y0118800D01*
X0127705Y0118553D01*
X0126993Y0118190D01*
X0126347Y0117720D01*
X0125070Y0116034D02*
X0123811Y0116034D01*
X0124332Y0114436D02*
X0124607Y0114436D01*
X0124577Y0113555D02*
X0124577Y0113448D01*
X0124702Y0112658D01*
X0124949Y0111898D01*
X0125312Y0111186D01*
X0125781Y0110539D01*
X0126347Y0109974D01*
X0126993Y0109505D01*
X0127705Y0109142D01*
X0128465Y0108895D01*
X0129255Y0108770D01*
X0129362Y0108770D01*
X0129362Y0113555D01*
X0124577Y0113555D01*
X0124673Y0112837D02*
X0124299Y0112837D01*
X0123637Y0111239D02*
X0125285Y0111239D01*
X0126806Y0109640D02*
X0121721Y0109640D01*
X0120585Y0108525D02*
X0118724Y0108525D01*
X0117005Y0107813D01*
X0115689Y0106497D01*
X0114977Y0104778D01*
X0114977Y0102917D01*
X0115689Y0101198D01*
X0117005Y0099882D01*
X0118724Y0099170D01*
X0120585Y0099170D01*
X0122304Y0099882D01*
X0123620Y0101198D01*
X0124332Y0102917D01*
X0124332Y0104778D01*
X0123620Y0106497D01*
X0122304Y0107813D01*
X0120585Y0108525D01*
X0121751Y0108042D02*
X0127558Y0108042D01*
X0127005Y0107813D02*
X0125689Y0106497D01*
X0124977Y0104778D01*
X0124977Y0102917D01*
X0125689Y0101198D01*
X0127005Y0099882D01*
X0128724Y0099170D01*
X0130585Y0099170D01*
X0132304Y0099882D01*
X0133620Y0101198D01*
X0134332Y0102917D01*
X0134332Y0104778D01*
X0133620Y0106497D01*
X0132304Y0107813D01*
X0130585Y0108525D01*
X0128724Y0108525D01*
X0127005Y0107813D01*
X0125667Y0106443D02*
X0123642Y0106443D01*
X0124304Y0104845D02*
X0125005Y0104845D01*
X0124977Y0103246D02*
X0124332Y0103246D01*
X0123806Y0101648D02*
X0125502Y0101648D01*
X0126837Y0100049D02*
X0122471Y0100049D01*
X0116837Y0100049D02*
X0112471Y0100049D01*
X0113806Y0101648D02*
X0115502Y0101648D01*
X0114977Y0103246D02*
X0114332Y0103246D01*
X0114304Y0104845D02*
X0115005Y0104845D01*
X0115667Y0106443D02*
X0113642Y0106443D01*
X0111751Y0108042D02*
X0117558Y0108042D01*
X0129362Y0109640D02*
X0129947Y0109640D01*
X0129947Y0108770D02*
X0130054Y0108770D01*
X0130843Y0108895D01*
X0131603Y0109142D01*
X0132316Y0109505D01*
X0132962Y0109974D01*
X0133527Y0110539D01*
X0133997Y0111186D01*
X0134360Y0111898D01*
X0134607Y0112658D01*
X0134732Y0113448D01*
X0134732Y0113555D01*
X0129947Y0113555D01*
X0129947Y0114140D01*
X0129362Y0114140D01*
X0129362Y0113555D01*
X0129947Y0113555D01*
X0129947Y0108770D01*
X0131751Y0108042D02*
X0137558Y0108042D01*
X0137005Y0107813D02*
X0135689Y0106497D01*
X0134977Y0104778D01*
X0134977Y0102917D01*
X0135689Y0101198D01*
X0137005Y0099882D01*
X0138724Y0099170D01*
X0140585Y0099170D01*
X0142304Y0099882D01*
X0143620Y0101198D01*
X0144332Y0102917D01*
X0144332Y0104778D01*
X0143620Y0106497D01*
X0142304Y0107813D01*
X0140585Y0108525D01*
X0138724Y0108525D01*
X0137005Y0107813D01*
X0135667Y0106443D02*
X0133642Y0106443D01*
X0134304Y0104845D02*
X0135005Y0104845D01*
X0134977Y0103246D02*
X0134332Y0103246D01*
X0133806Y0101648D02*
X0135502Y0101648D01*
X0136837Y0100049D02*
X0132471Y0100049D01*
X0142471Y0100049D02*
X0146837Y0100049D01*
X0147005Y0099882D02*
X0148724Y0099170D01*
X0150585Y0099170D01*
X0152304Y0099882D01*
X0153620Y0101198D01*
X0154332Y0102917D01*
X0154332Y0104778D01*
X0153620Y0106497D01*
X0152304Y0107813D01*
X0150585Y0108525D01*
X0148724Y0108525D01*
X0147005Y0107813D01*
X0145689Y0106497D01*
X0144977Y0104778D01*
X0144977Y0102917D01*
X0145689Y0101198D01*
X0147005Y0099882D01*
X0145502Y0101648D02*
X0143806Y0101648D01*
X0144332Y0103246D02*
X0144977Y0103246D01*
X0145005Y0104845D02*
X0144304Y0104845D01*
X0143642Y0106443D02*
X0145667Y0106443D01*
X0147558Y0108042D02*
X0141751Y0108042D01*
X0141721Y0109640D02*
X0147588Y0109640D01*
X0147005Y0109882D02*
X0148724Y0109170D01*
X0150585Y0109170D01*
X0152304Y0109882D01*
X0153620Y0111198D01*
X0154332Y0112917D01*
X0154332Y0114778D01*
X0153620Y0116497D01*
X0152304Y0117813D01*
X0150585Y0118525D01*
X0148724Y0118525D01*
X0147005Y0117813D01*
X0145689Y0116497D01*
X0144977Y0114778D01*
X0144977Y0112917D01*
X0145689Y0111198D01*
X0147005Y0109882D01*
X0145672Y0111239D02*
X0143637Y0111239D01*
X0143620Y0111198D02*
X0144332Y0112917D01*
X0144332Y0114778D01*
X0143620Y0116497D01*
X0142304Y0117813D01*
X0140585Y0118525D01*
X0138724Y0118525D01*
X0137005Y0117813D01*
X0135689Y0116497D01*
X0134977Y0114778D01*
X0134977Y0112917D01*
X0135689Y0111198D01*
X0137005Y0109882D01*
X0138724Y0109170D01*
X0140585Y0109170D01*
X0142304Y0109882D01*
X0143620Y0111198D01*
X0144299Y0112837D02*
X0145010Y0112837D01*
X0144977Y0114436D02*
X0144332Y0114436D01*
X0143811Y0116034D02*
X0145497Y0116034D01*
X0146825Y0117633D02*
X0142484Y0117633D01*
X0136825Y0117633D02*
X0133050Y0117633D01*
X0132962Y0117720D02*
X0132316Y0118190D01*
X0131603Y0118553D01*
X0130843Y0118800D01*
X0130054Y0118925D01*
X0129947Y0118925D01*
X0129947Y0114140D01*
X0134732Y0114140D01*
X0134732Y0114247D01*
X0134607Y0115036D01*
X0134360Y0115796D01*
X0133997Y0116508D01*
X0133527Y0117155D01*
X0132962Y0117720D01*
X0134239Y0116034D02*
X0135497Y0116034D01*
X0134977Y0114436D02*
X0134702Y0114436D01*
X0134635Y0112837D02*
X0135010Y0112837D01*
X0135672Y0111239D02*
X0134024Y0111239D01*
X0132502Y0109640D02*
X0137588Y0109640D01*
X0129947Y0111239D02*
X0129362Y0111239D01*
X0129362Y0112837D02*
X0129947Y0112837D01*
X0129947Y0114436D02*
X0129362Y0114436D01*
X0129362Y0116034D02*
X0129947Y0116034D01*
X0129947Y0117633D02*
X0129362Y0117633D01*
X0151721Y0109640D02*
X0157588Y0109640D01*
X0157005Y0109882D02*
X0158724Y0109170D01*
X0160585Y0109170D01*
X0162304Y0109882D01*
X0163620Y0111198D01*
X0164332Y0112917D01*
X0164332Y0114778D01*
X0163620Y0116497D01*
X0162304Y0117813D01*
X0160585Y0118525D01*
X0158724Y0118525D01*
X0157005Y0117813D01*
X0155689Y0116497D01*
X0154977Y0114778D01*
X0154977Y0112917D01*
X0155689Y0111198D01*
X0157005Y0109882D01*
X0157705Y0108553D02*
X0156993Y0108190D01*
X0156347Y0107720D01*
X0155781Y0107155D01*
X0155312Y0106508D01*
X0154949Y0105796D01*
X0154702Y0105036D01*
X0154577Y0104247D01*
X0154577Y0104140D01*
X0159362Y0104140D01*
X0159362Y0108925D01*
X0159255Y0108925D01*
X0158465Y0108800D01*
X0157705Y0108553D01*
X0156789Y0108042D02*
X0151751Y0108042D01*
X0153642Y0106443D02*
X0155278Y0106443D01*
X0159362Y0106443D02*
X0159947Y0106443D01*
X0159947Y0108042D02*
X0159362Y0108042D01*
X0159947Y0108925D02*
X0160054Y0108925D01*
X0160843Y0108800D01*
X0161603Y0108553D01*
X0162316Y0108190D01*
X0162962Y0107720D01*
X0163527Y0107155D01*
X0163997Y0106508D01*
X0164360Y0105796D01*
X0164607Y0105036D01*
X0164732Y0104247D01*
X0164732Y0104140D01*
X0159947Y0104140D01*
X0159362Y0104140D01*
X0159362Y0103555D01*
X0154577Y0103555D01*
X0154577Y0103448D01*
X0154702Y0102658D01*
X0154949Y0101898D01*
X0155312Y0101186D01*
X0155781Y0100539D01*
X0156347Y0099974D01*
X0156993Y0099505D01*
X0157705Y0099142D01*
X0158465Y0098895D01*
X0159255Y0098770D01*
X0159362Y0098770D01*
X0159362Y0103555D01*
X0159947Y0103555D01*
X0159947Y0104140D01*
X0159947Y0108925D01*
X0161721Y0109640D02*
X0167588Y0109640D01*
X0167005Y0109882D02*
X0168724Y0109170D01*
X0170585Y0109170D01*
X0172304Y0109882D01*
X0173620Y0111198D01*
X0174332Y0112917D01*
X0174332Y0114778D01*
X0173620Y0116497D01*
X0172304Y0117813D01*
X0170585Y0118525D01*
X0168724Y0118525D01*
X0167005Y0117813D01*
X0165689Y0116497D01*
X0164977Y0114778D01*
X0164977Y0112917D01*
X0165689Y0111198D01*
X0167005Y0109882D01*
X0165672Y0111239D02*
X0163637Y0111239D01*
X0164299Y0112837D02*
X0165010Y0112837D01*
X0164977Y0114436D02*
X0164332Y0114436D01*
X0163811Y0116034D02*
X0165497Y0116034D01*
X0166825Y0117633D02*
X0162484Y0117633D01*
X0156825Y0117633D02*
X0152484Y0117633D01*
X0153811Y0116034D02*
X0155497Y0116034D01*
X0154977Y0114436D02*
X0154332Y0114436D01*
X0154299Y0112837D02*
X0155010Y0112837D01*
X0155672Y0111239D02*
X0153637Y0111239D01*
X0162520Y0108042D02*
X0167558Y0108042D01*
X0167005Y0107813D02*
X0165689Y0106497D01*
X0164977Y0104778D01*
X0164977Y0102917D01*
X0165689Y0101198D01*
X0167005Y0099882D01*
X0168724Y0099170D01*
X0170585Y0099170D01*
X0172304Y0099882D01*
X0173620Y0101198D01*
X0174332Y0102917D01*
X0174332Y0104778D01*
X0173620Y0106497D01*
X0172304Y0107813D01*
X0170585Y0108525D01*
X0168724Y0108525D01*
X0167005Y0107813D01*
X0165667Y0106443D02*
X0164030Y0106443D01*
X0164637Y0104845D02*
X0165005Y0104845D01*
X0164732Y0103555D02*
X0159947Y0103555D01*
X0159947Y0098770D01*
X0160054Y0098770D01*
X0160843Y0098895D01*
X0161603Y0099142D01*
X0162316Y0099505D01*
X0162962Y0099974D01*
X0163527Y0100539D01*
X0163997Y0101186D01*
X0164360Y0101898D01*
X0164607Y0102658D01*
X0164732Y0103448D01*
X0164732Y0103555D01*
X0164700Y0103246D02*
X0164977Y0103246D01*
X0165502Y0101648D02*
X0164232Y0101648D01*
X0163037Y0100049D02*
X0166837Y0100049D01*
X0172471Y0100049D02*
X0176837Y0100049D01*
X0177005Y0099882D02*
X0178724Y0099170D01*
X0180585Y0099170D01*
X0182304Y0099882D01*
X0183620Y0101198D01*
X0184332Y0102917D01*
X0184332Y0104778D01*
X0183620Y0106497D01*
X0182304Y0107813D01*
X0180585Y0108525D01*
X0178724Y0108525D01*
X0177005Y0107813D01*
X0175689Y0106497D01*
X0174977Y0104778D01*
X0174977Y0102917D01*
X0175689Y0101198D01*
X0177005Y0099882D01*
X0175502Y0101648D02*
X0173806Y0101648D01*
X0174332Y0103246D02*
X0174977Y0103246D01*
X0175005Y0104845D02*
X0174304Y0104845D01*
X0173642Y0106443D02*
X0175667Y0106443D01*
X0177558Y0108042D02*
X0171751Y0108042D01*
X0171721Y0109640D02*
X0176806Y0109640D01*
X0176993Y0109505D02*
X0177705Y0109142D01*
X0178465Y0108895D01*
X0179255Y0108770D01*
X0179362Y0108770D01*
X0179362Y0113555D01*
X0174577Y0113555D01*
X0174577Y0113448D01*
X0174702Y0112658D01*
X0174949Y0111898D01*
X0175312Y0111186D01*
X0175781Y0110539D01*
X0176347Y0109974D01*
X0176993Y0109505D01*
X0179362Y0109640D02*
X0179947Y0109640D01*
X0179947Y0108770D02*
X0180054Y0108770D01*
X0180843Y0108895D01*
X0181603Y0109142D01*
X0182316Y0109505D01*
X0182962Y0109974D01*
X0183527Y0110539D01*
X0183997Y0111186D01*
X0184360Y0111898D01*
X0184607Y0112658D01*
X0184732Y0113448D01*
X0184732Y0113555D01*
X0179947Y0113555D01*
X0179947Y0114140D01*
X0179362Y0114140D01*
X0179362Y0118925D01*
X0179255Y0118925D01*
X0178465Y0118800D01*
X0177705Y0118553D01*
X0176993Y0118190D01*
X0176347Y0117720D01*
X0175781Y0117155D01*
X0175312Y0116508D01*
X0174949Y0115796D01*
X0174702Y0115036D01*
X0174577Y0114247D01*
X0174577Y0114140D01*
X0179362Y0114140D01*
X0179362Y0113555D01*
X0179947Y0113555D01*
X0179947Y0108770D01*
X0181751Y0108042D02*
X0187558Y0108042D01*
X0187005Y0107813D02*
X0188724Y0108525D01*
X0190585Y0108525D01*
X0192304Y0107813D01*
X0193620Y0106497D01*
X0194332Y0104778D01*
X0194332Y0102917D01*
X0193620Y0101198D01*
X0192304Y0099882D01*
X0190585Y0099170D01*
X0188724Y0099170D01*
X0187005Y0099882D01*
X0185689Y0101198D01*
X0184977Y0102917D01*
X0184977Y0104778D01*
X0185689Y0106497D01*
X0187005Y0107813D01*
X0185667Y0106443D02*
X0183642Y0106443D01*
X0184304Y0104845D02*
X0185005Y0104845D01*
X0184977Y0103246D02*
X0184332Y0103246D01*
X0183806Y0101648D02*
X0185502Y0101648D01*
X0186837Y0100049D02*
X0182471Y0100049D01*
X0192471Y0100049D02*
X0196837Y0100049D01*
X0197005Y0099882D02*
X0198724Y0099170D01*
X0200585Y0099170D01*
X0202304Y0099882D01*
X0203620Y0101198D01*
X0204332Y0102917D01*
X0204332Y0104778D01*
X0203620Y0106497D01*
X0202304Y0107813D01*
X0200585Y0108525D01*
X0198724Y0108525D01*
X0197005Y0107813D01*
X0195689Y0106497D01*
X0194977Y0104778D01*
X0194977Y0102917D01*
X0195689Y0101198D01*
X0197005Y0099882D01*
X0195502Y0101648D02*
X0193806Y0101648D01*
X0194332Y0103246D02*
X0194977Y0103246D01*
X0195005Y0104845D02*
X0194304Y0104845D01*
X0193642Y0106443D02*
X0195667Y0106443D01*
X0197558Y0108042D02*
X0191751Y0108042D01*
X0191721Y0109640D02*
X0196806Y0109640D01*
X0196993Y0109505D02*
X0197705Y0109142D01*
X0198465Y0108895D01*
X0199255Y0108770D01*
X0199362Y0108770D01*
X0199362Y0113555D01*
X0194577Y0113555D01*
X0194577Y0113448D01*
X0194702Y0112658D01*
X0194949Y0111898D01*
X0195312Y0111186D01*
X0195781Y0110539D01*
X0196347Y0109974D01*
X0196993Y0109505D01*
X0199362Y0109640D02*
X0199947Y0109640D01*
X0199947Y0108770D02*
X0200054Y0108770D01*
X0200843Y0108895D01*
X0201603Y0109142D01*
X0202316Y0109505D01*
X0202962Y0109974D01*
X0203527Y0110539D01*
X0203997Y0111186D01*
X0204360Y0111898D01*
X0204607Y0112658D01*
X0204732Y0113448D01*
X0204732Y0113555D01*
X0199947Y0113555D01*
X0199947Y0114140D01*
X0199362Y0114140D01*
X0199362Y0118925D01*
X0199255Y0118925D01*
X0198465Y0118800D01*
X0197705Y0118553D01*
X0196993Y0118190D01*
X0196347Y0117720D01*
X0195781Y0117155D01*
X0195312Y0116508D01*
X0194949Y0115796D01*
X0194702Y0115036D01*
X0194577Y0114247D01*
X0194577Y0114140D01*
X0199362Y0114140D01*
X0199362Y0113555D01*
X0199947Y0113555D01*
X0199947Y0108770D01*
X0201751Y0108042D02*
X0207558Y0108042D01*
X0207005Y0107813D02*
X0205689Y0106497D01*
X0204977Y0104778D01*
X0204977Y0102917D01*
X0205689Y0101198D01*
X0207005Y0099882D01*
X0208724Y0099170D01*
X0210585Y0099170D01*
X0212304Y0099882D01*
X0213620Y0101198D01*
X0214332Y0102917D01*
X0214332Y0104778D01*
X0213620Y0106497D01*
X0212304Y0107813D01*
X0210585Y0108525D01*
X0208724Y0108525D01*
X0207005Y0107813D01*
X0205667Y0106443D02*
X0203642Y0106443D01*
X0204304Y0104845D02*
X0205005Y0104845D01*
X0204977Y0103246D02*
X0204332Y0103246D01*
X0203806Y0101648D02*
X0205502Y0101648D01*
X0206837Y0100049D02*
X0202471Y0100049D01*
X0212471Y0100049D02*
X0216837Y0100049D01*
X0215502Y0101648D02*
X0213806Y0101648D01*
X0214332Y0103246D02*
X0214977Y0103246D01*
X0215005Y0104845D02*
X0214304Y0104845D01*
X0213642Y0106443D02*
X0215667Y0106443D01*
X0217558Y0108042D02*
X0211751Y0108042D01*
X0211721Y0109640D02*
X0217588Y0109640D01*
X0215672Y0111239D02*
X0213637Y0111239D01*
X0213620Y0111198D02*
X0214332Y0112917D01*
X0214332Y0114778D01*
X0213620Y0116497D01*
X0212304Y0117813D01*
X0210585Y0118525D01*
X0208724Y0118525D01*
X0207005Y0117813D01*
X0205689Y0116497D01*
X0204977Y0114778D01*
X0204977Y0112917D01*
X0205689Y0111198D01*
X0207005Y0109882D01*
X0208724Y0109170D01*
X0210585Y0109170D01*
X0212304Y0109882D01*
X0213620Y0111198D01*
X0214299Y0112837D02*
X0215010Y0112837D01*
X0214977Y0114436D02*
X0214332Y0114436D01*
X0213811Y0116034D02*
X0215497Y0116034D01*
X0216825Y0117633D02*
X0212484Y0117633D01*
X0206825Y0117633D02*
X0203050Y0117633D01*
X0202962Y0117720D02*
X0202316Y0118190D01*
X0201603Y0118553D01*
X0200843Y0118800D01*
X0200054Y0118925D01*
X0199947Y0118925D01*
X0199947Y0114140D01*
X0204732Y0114140D01*
X0204732Y0114247D01*
X0204607Y0115036D01*
X0204360Y0115796D01*
X0203997Y0116508D01*
X0203527Y0117155D01*
X0202962Y0117720D01*
X0204239Y0116034D02*
X0205497Y0116034D01*
X0204977Y0114436D02*
X0204702Y0114436D01*
X0204635Y0112837D02*
X0205010Y0112837D01*
X0205672Y0111239D02*
X0204024Y0111239D01*
X0202502Y0109640D02*
X0207588Y0109640D01*
X0199947Y0111239D02*
X0199362Y0111239D01*
X0195285Y0111239D02*
X0193637Y0111239D01*
X0193620Y0111198D02*
X0194332Y0112917D01*
X0194332Y0114778D01*
X0193620Y0116497D01*
X0192304Y0117813D01*
X0190585Y0118525D01*
X0188724Y0118525D01*
X0187005Y0117813D01*
X0185689Y0116497D01*
X0184977Y0114778D01*
X0184977Y0112917D01*
X0185689Y0111198D01*
X0187005Y0109882D01*
X0188724Y0109170D01*
X0190585Y0109170D01*
X0192304Y0109882D01*
X0193620Y0111198D01*
X0194299Y0112837D02*
X0194673Y0112837D01*
X0194607Y0114436D02*
X0194332Y0114436D01*
X0193811Y0116034D02*
X0195070Y0116034D01*
X0196259Y0117633D02*
X0192484Y0117633D01*
X0186825Y0117633D02*
X0183050Y0117633D01*
X0182962Y0117720D02*
X0182316Y0118190D01*
X0181603Y0118553D01*
X0180843Y0118800D01*
X0180054Y0118925D01*
X0179947Y0118925D01*
X0179947Y0114140D01*
X0184732Y0114140D01*
X0184732Y0114247D01*
X0184607Y0115036D01*
X0184360Y0115796D01*
X0183997Y0116508D01*
X0183527Y0117155D01*
X0182962Y0117720D01*
X0184239Y0116034D02*
X0185497Y0116034D01*
X0184977Y0114436D02*
X0184702Y0114436D01*
X0184635Y0112837D02*
X0185010Y0112837D01*
X0185672Y0111239D02*
X0184024Y0111239D01*
X0182502Y0109640D02*
X0187588Y0109640D01*
X0179947Y0111239D02*
X0179362Y0111239D01*
X0179362Y0112837D02*
X0179947Y0112837D01*
X0179947Y0114436D02*
X0179362Y0114436D01*
X0179362Y0116034D02*
X0179947Y0116034D01*
X0179947Y0117633D02*
X0179362Y0117633D01*
X0176259Y0117633D02*
X0172484Y0117633D01*
X0173811Y0116034D02*
X0175070Y0116034D01*
X0174607Y0114436D02*
X0174332Y0114436D01*
X0174299Y0112837D02*
X0174673Y0112837D01*
X0175285Y0111239D02*
X0173637Y0111239D01*
X0159947Y0104845D02*
X0159362Y0104845D01*
X0159362Y0103246D02*
X0159947Y0103246D01*
X0159947Y0101648D02*
X0159362Y0101648D01*
X0159362Y0100049D02*
X0159947Y0100049D01*
X0156272Y0100049D02*
X0152471Y0100049D01*
X0153806Y0101648D02*
X0155076Y0101648D01*
X0154609Y0103246D02*
X0154332Y0103246D01*
X0154304Y0104845D02*
X0154671Y0104845D01*
X0199362Y0112837D02*
X0199947Y0112837D01*
X0199947Y0114436D02*
X0199362Y0114436D01*
X0199362Y0116034D02*
X0199947Y0116034D01*
X0199947Y0117633D02*
X0199362Y0117633D01*
X0221751Y0108042D02*
X0222645Y0108042D01*
X0226724Y0108042D02*
X0226789Y0108042D01*
X0226676Y0109640D02*
X0227588Y0109640D01*
X0225672Y0111239D02*
X0225078Y0111239D01*
X0225010Y0112837D02*
X0224299Y0112837D01*
X0224332Y0114436D02*
X0224977Y0114436D01*
X0225497Y0116034D02*
X0223811Y0116034D01*
X0222484Y0117633D02*
X0226825Y0117633D01*
X0232484Y0117633D02*
X0257987Y0117633D01*
X0258929Y0116034D02*
X0233811Y0116034D01*
X0234499Y0114436D02*
X0259448Y0114436D01*
X0259779Y0112837D02*
X0236097Y0112837D01*
X0237696Y0111239D02*
X0259843Y0111239D01*
X0259843Y0109640D02*
X0239294Y0109640D01*
X0240893Y0108042D02*
X0259843Y0108042D01*
X0259843Y0106443D02*
X0242492Y0106443D01*
X0243948Y0104845D02*
X0259843Y0104845D01*
X0259843Y0103246D02*
X0243948Y0103246D01*
X0243948Y0101648D02*
X0259843Y0101648D01*
X0259843Y0100049D02*
X0243948Y0100049D01*
X0243948Y0098451D02*
X0259843Y0098451D01*
X0259843Y0096852D02*
X0243948Y0096852D01*
X0243948Y0095254D02*
X0259843Y0095254D01*
X0259843Y0093655D02*
X0243948Y0093655D01*
X0243948Y0092057D02*
X0259843Y0092057D01*
X0259843Y0090458D02*
X0243948Y0090458D01*
X0243948Y0088860D02*
X0259843Y0088860D01*
X0259843Y0087261D02*
X0243948Y0087261D01*
X0243948Y0085663D02*
X0259843Y0085663D01*
X0259843Y0084064D02*
X0243948Y0084064D01*
X0243948Y0082466D02*
X0259843Y0082466D01*
X0259843Y0080867D02*
X0243948Y0080867D01*
X0243948Y0079269D02*
X0259843Y0079269D01*
X0259843Y0077670D02*
X0243948Y0077670D01*
X0243948Y0076072D02*
X0259843Y0076072D01*
X0259843Y0074473D02*
X0243948Y0074473D01*
X0243948Y0072874D02*
X0259843Y0072874D01*
X0259843Y0071276D02*
X0243948Y0071276D01*
X0243948Y0069677D02*
X0259843Y0069677D01*
X0259843Y0068079D02*
X0243948Y0068079D01*
X0243948Y0066480D02*
X0259843Y0066480D01*
X0259843Y0064882D02*
X0243948Y0064882D01*
X0243948Y0063283D02*
X0259843Y0063283D01*
X0259843Y0061685D02*
X0243948Y0061685D01*
X0243948Y0060086D02*
X0259843Y0060086D01*
X0259843Y0058488D02*
X0243948Y0058488D01*
X0243948Y0056889D02*
X0259843Y0056889D01*
X0259843Y0055291D02*
X0243948Y0055291D01*
X0243948Y0053692D02*
X0259843Y0053692D01*
X0259843Y0052094D02*
X0243948Y0052094D01*
X0243948Y0050495D02*
X0259843Y0050495D01*
X0259843Y0048897D02*
X0243948Y0048897D01*
X0243948Y0047298D02*
X0259843Y0047298D01*
X0259843Y0045700D02*
X0243948Y0045700D01*
X0243948Y0044101D02*
X0259843Y0044101D01*
X0259843Y0042503D02*
X0243948Y0042503D01*
X0243948Y0040904D02*
X0259843Y0040904D01*
X0259843Y0039306D02*
X0243948Y0039306D01*
X0243948Y0037707D02*
X0259843Y0037707D01*
X0259843Y0036109D02*
X0243948Y0036109D01*
X0243948Y0034510D02*
X0259843Y0034510D01*
X0259843Y0032912D02*
X0243948Y0032912D01*
X0243948Y0031313D02*
X0259843Y0031313D01*
X0259843Y0029715D02*
X0244257Y0029715D01*
X0243967Y0028116D02*
X0259843Y0028116D01*
X0259843Y0026518D02*
X0226724Y0026518D01*
X0226724Y0028116D02*
X0239948Y0028116D01*
X0239657Y0029715D02*
X0226724Y0029715D01*
X0226724Y0031313D02*
X0239967Y0031313D01*
X0239967Y0032912D02*
X0226724Y0032912D01*
X0226724Y0034510D02*
X0239967Y0034510D01*
X0239967Y0036109D02*
X0226724Y0036109D01*
X0226724Y0037707D02*
X0239967Y0037707D01*
X0239967Y0039306D02*
X0226724Y0039306D01*
X0226724Y0040904D02*
X0239967Y0040904D01*
X0239967Y0042503D02*
X0226724Y0042503D01*
X0222743Y0042503D02*
X0164392Y0042503D01*
X0164712Y0040904D02*
X0222743Y0040904D01*
X0222743Y0039306D02*
X0164433Y0039306D01*
X0163386Y0037707D02*
X0222743Y0037707D01*
X0222743Y0044101D02*
X0163288Y0044101D01*
X0151646Y0047298D02*
X0107629Y0047298D01*
X0107629Y0045700D02*
X0135650Y0045700D01*
X0134510Y0044101D02*
X0107629Y0044101D01*
X0107629Y0042503D02*
X0134164Y0042503D01*
X0134417Y0040904D02*
X0107629Y0040904D01*
X0107629Y0039306D02*
X0135426Y0039306D01*
X0146332Y0048897D02*
X0107629Y0048897D01*
X0107629Y0050495D02*
X0145169Y0050495D01*
X0148606Y0048897D02*
X0150360Y0048897D01*
X0145298Y0052094D02*
X0107629Y0052094D01*
X0107629Y0053692D02*
X0150927Y0053692D01*
X0164094Y0058488D02*
X0222743Y0058488D01*
X0222743Y0060086D02*
X0164712Y0060086D01*
X0164712Y0061685D02*
X0222743Y0061685D01*
X0222743Y0063283D02*
X0164069Y0063283D01*
X0162088Y0064882D02*
X0222743Y0064882D01*
X0222743Y0066480D02*
X0161248Y0066480D01*
X0163758Y0068079D02*
X0222743Y0068079D01*
X0222743Y0069677D02*
X0164587Y0069677D01*
X0107905Y0055291D02*
X0107629Y0055291D01*
X0103648Y0055291D02*
X0103490Y0055291D01*
X0103648Y0053692D02*
X0071704Y0053692D01*
X0071704Y0052094D02*
X0103648Y0052094D01*
X0103648Y0050495D02*
X0071704Y0050495D01*
X0071397Y0048897D02*
X0103648Y0048897D01*
X0103648Y0047298D02*
X0069798Y0047298D01*
X0068200Y0045700D02*
X0103648Y0045700D01*
X0103648Y0044101D02*
X0066601Y0044101D01*
X0062570Y0045700D02*
X0058661Y0045700D01*
X0059302Y0044101D02*
X0060971Y0044101D01*
X0059373Y0042503D02*
X0059302Y0042503D01*
X0060207Y0037707D02*
X0061516Y0037707D01*
X0067308Y0042503D02*
X0068024Y0042503D01*
X0072308Y0042503D02*
X0072458Y0042503D01*
X0075166Y0042503D02*
X0075166Y0042503D01*
X0075166Y0043533D02*
X0075166Y0037233D01*
X0075166Y0037233D01*
X0075166Y0030933D01*
X0074767Y0030933D01*
X0073985Y0031089D01*
X0073248Y0031394D01*
X0072584Y0031837D01*
X0072383Y0032038D01*
X0072234Y0031889D01*
X0072157Y0031857D01*
X0072157Y0026035D01*
X0066601Y0020479D01*
X0058425Y0020479D01*
X0058053Y0019580D01*
X0056618Y0018146D01*
X0056363Y0018040D01*
X0056618Y0017935D01*
X0058053Y0016500D01*
X0058425Y0015602D01*
X0063968Y0015602D01*
X0078176Y0029810D01*
X0078176Y0031857D01*
X0078099Y0031889D01*
X0077949Y0032038D01*
X0077748Y0031837D01*
X0077085Y0031394D01*
X0076347Y0031089D01*
X0075565Y0030933D01*
X0075166Y0030933D01*
X0075166Y0037233D01*
X0075166Y0037233D01*
X0075166Y0043533D01*
X0077874Y0042503D02*
X0078024Y0042503D01*
X0075166Y0040904D02*
X0075166Y0040904D01*
X0075166Y0039306D02*
X0075166Y0039306D01*
X0075166Y0037707D02*
X0075166Y0037707D01*
X0075166Y0036109D02*
X0075166Y0036109D01*
X0075166Y0034510D02*
X0075166Y0034510D01*
X0075166Y0032912D02*
X0075166Y0032912D01*
X0075166Y0031313D02*
X0075166Y0031313D01*
X0073443Y0031313D02*
X0072157Y0031313D01*
X0072157Y0029715D02*
X0078081Y0029715D01*
X0076482Y0028116D02*
X0072157Y0028116D01*
X0072157Y0026518D02*
X0074884Y0026518D01*
X0073285Y0024919D02*
X0071041Y0024919D01*
X0067010Y0026518D02*
X0056893Y0026518D01*
X0058235Y0024919D02*
X0065411Y0024919D01*
X0069443Y0023321D02*
X0071687Y0023321D01*
X0070088Y0021722D02*
X0067844Y0021722D01*
X0068490Y0020124D02*
X0058278Y0020124D01*
X0056997Y0018525D02*
X0066891Y0018525D01*
X0065293Y0016927D02*
X0057626Y0016927D01*
X0038304Y0016927D02*
X0020414Y0016927D01*
X0021351Y0015328D02*
X0037367Y0015328D01*
X0037059Y0013730D02*
X0021659Y0013730D01*
X0021484Y0012131D02*
X0037235Y0012131D01*
X0037983Y0010533D02*
X0020735Y0010533D01*
X0018695Y0008934D02*
X0040023Y0008934D01*
X0039566Y0026518D02*
X0018173Y0026518D01*
X0014945Y0026518D02*
X0007537Y0026518D01*
X0007537Y0028116D02*
X0012600Y0028116D01*
X0011724Y0029715D02*
X0007537Y0029715D01*
X0007537Y0031313D02*
X0011459Y0031313D01*
X0011678Y0032912D02*
X0007537Y0032912D01*
X0007537Y0034510D02*
X0012487Y0034510D01*
X0014674Y0036109D02*
X0007537Y0036109D01*
X0018444Y0036109D02*
X0039346Y0036109D01*
X0037643Y0034510D02*
X0020631Y0034510D01*
X0041959Y0034510D02*
X0042359Y0034510D01*
X0042359Y0032912D02*
X0041959Y0032912D01*
X0041959Y0036109D02*
X0042359Y0036109D01*
X0043496Y0047150D02*
X0043674Y0047150D01*
X0044420Y0047268D01*
X0045139Y0047501D01*
X0045812Y0047844D01*
X0046423Y0048288D01*
X0046957Y0048823D01*
X0047401Y0049434D01*
X0047744Y0050107D01*
X0047978Y0050826D01*
X0048096Y0051572D01*
X0048096Y0054750D01*
X0043496Y0054750D01*
X0043496Y0047150D01*
X0043496Y0047298D02*
X0043096Y0047298D01*
X0044514Y0047298D02*
X0051149Y0047298D01*
X0050126Y0048897D02*
X0047011Y0048897D01*
X0047871Y0050495D02*
X0049136Y0050495D01*
X0048896Y0052094D02*
X0048096Y0052094D01*
X0048096Y0053692D02*
X0048896Y0053692D01*
X0048896Y0055291D02*
X0048096Y0055291D01*
X0048096Y0056889D02*
X0048896Y0056889D01*
X0048896Y0058488D02*
X0048071Y0058488D01*
X0047594Y0060086D02*
X0049419Y0060086D01*
X0057173Y0060086D02*
X0067723Y0060086D01*
X0067723Y0058488D02*
X0057696Y0058488D01*
X0057696Y0056889D02*
X0067723Y0056889D01*
X0067723Y0055291D02*
X0057696Y0055291D01*
X0057696Y0053692D02*
X0067723Y0053692D01*
X0067723Y0052094D02*
X0057696Y0052094D01*
X0057456Y0050495D02*
X0067365Y0050495D01*
X0065767Y0048897D02*
X0056466Y0048897D01*
X0057254Y0047298D02*
X0064168Y0047298D01*
X0071704Y0055291D02*
X0077905Y0055291D01*
X0078205Y0054991D02*
X0079822Y0054321D01*
X0081573Y0054321D01*
X0083190Y0054991D01*
X0084428Y0056229D01*
X0085098Y0057846D01*
X0085098Y0065596D01*
X0084428Y0067214D01*
X0083190Y0068451D01*
X0081573Y0069121D01*
X0079822Y0069121D01*
X0078205Y0068451D01*
X0076967Y0067214D01*
X0076298Y0065596D01*
X0076298Y0057846D01*
X0076967Y0056229D01*
X0078205Y0054991D01*
X0076694Y0056889D02*
X0071704Y0056889D01*
X0071704Y0058488D02*
X0076298Y0058488D01*
X0076298Y0060086D02*
X0071704Y0060086D01*
X0071704Y0061685D02*
X0076298Y0061685D01*
X0076298Y0063283D02*
X0071704Y0063283D01*
X0067723Y0063283D02*
X0061974Y0063283D01*
X0061001Y0061685D02*
X0067723Y0061685D01*
X0067723Y0064882D02*
X0061673Y0064882D01*
X0061673Y0066480D02*
X0067723Y0066480D01*
X0067723Y0068079D02*
X0061672Y0068079D01*
X0061671Y0069677D02*
X0067723Y0069677D01*
X0071704Y0069677D02*
X0098717Y0069677D01*
X0097833Y0068079D02*
X0094128Y0068079D01*
X0094359Y0067848D02*
X0093825Y0068382D01*
X0093213Y0068827D01*
X0092540Y0069170D01*
X0091822Y0069403D01*
X0091075Y0069521D01*
X0090898Y0069521D01*
X0090898Y0061921D01*
X0095498Y0061921D01*
X0095498Y0065099D01*
X0095379Y0065845D01*
X0095146Y0066564D01*
X0094803Y0067237D01*
X0094359Y0067848D01*
X0095173Y0066480D02*
X0096664Y0066480D01*
X0096298Y0064882D02*
X0095498Y0064882D01*
X0095498Y0063283D02*
X0096298Y0063283D01*
X0096298Y0061685D02*
X0090898Y0061685D01*
X0090898Y0061521D02*
X0090898Y0061921D01*
X0090498Y0061921D01*
X0090498Y0061521D01*
X0090898Y0061521D01*
X0095498Y0061521D01*
X0095498Y0058343D01*
X0095379Y0057597D01*
X0095146Y0056879D01*
X0094803Y0056206D01*
X0094359Y0055594D01*
X0093825Y0055060D01*
X0093213Y0054616D01*
X0092540Y0054273D01*
X0091822Y0054039D01*
X0091075Y0053921D01*
X0090898Y0053921D01*
X0090898Y0061521D01*
X0090498Y0061521D02*
X0090498Y0053921D01*
X0090320Y0053921D01*
X0089574Y0054039D01*
X0088855Y0054273D01*
X0088182Y0054616D01*
X0087571Y0055060D01*
X0087036Y0055594D01*
X0086592Y0056206D01*
X0086249Y0056879D01*
X0086016Y0057597D01*
X0085898Y0058343D01*
X0085898Y0061521D01*
X0090498Y0061521D01*
X0090498Y0061685D02*
X0085098Y0061685D01*
X0085898Y0061921D02*
X0090498Y0061921D01*
X0090498Y0069521D01*
X0090320Y0069521D01*
X0089574Y0069403D01*
X0088855Y0069170D01*
X0088182Y0068827D01*
X0087571Y0068382D01*
X0087036Y0067848D01*
X0086592Y0067237D01*
X0086249Y0066564D01*
X0086016Y0065845D01*
X0085898Y0065099D01*
X0085898Y0061921D01*
X0085898Y0063283D02*
X0085098Y0063283D01*
X0085098Y0064882D02*
X0085898Y0064882D01*
X0086222Y0066480D02*
X0084731Y0066480D01*
X0083562Y0068079D02*
X0087267Y0068079D01*
X0090498Y0068079D02*
X0090898Y0068079D01*
X0090898Y0066480D02*
X0090498Y0066480D01*
X0090498Y0064882D02*
X0090898Y0064882D01*
X0090898Y0063283D02*
X0090498Y0063283D01*
X0090498Y0060086D02*
X0090898Y0060086D01*
X0090898Y0058488D02*
X0090498Y0058488D01*
X0085898Y0058488D02*
X0085098Y0058488D01*
X0085098Y0060086D02*
X0085898Y0060086D01*
X0086246Y0056889D02*
X0084701Y0056889D01*
X0083490Y0055291D02*
X0087340Y0055291D01*
X0090498Y0055291D02*
X0090898Y0055291D01*
X0090898Y0056889D02*
X0090498Y0056889D01*
X0094055Y0055291D02*
X0097905Y0055291D01*
X0096694Y0056889D02*
X0095149Y0056889D01*
X0095498Y0058488D02*
X0096298Y0058488D01*
X0096298Y0060086D02*
X0095498Y0060086D01*
X0077833Y0068079D02*
X0071704Y0068079D01*
X0071704Y0066480D02*
X0076664Y0066480D01*
X0076298Y0064882D02*
X0071704Y0064882D01*
X0054918Y0071276D02*
X0007537Y0071276D01*
X0007537Y0072874D02*
X0054918Y0072874D01*
X0054918Y0074473D02*
X0007537Y0074473D01*
X0007537Y0076072D02*
X0054918Y0076072D01*
X0054918Y0077670D02*
X0007537Y0077670D01*
X0007537Y0079269D02*
X0054918Y0079269D01*
X0054918Y0080867D02*
X0007537Y0080867D01*
X0007537Y0082466D02*
X0054918Y0082466D01*
X0054918Y0084064D02*
X0007537Y0084064D01*
X0007537Y0085663D02*
X0054918Y0085663D01*
X0054918Y0087261D02*
X0007537Y0087261D01*
X0007537Y0088860D02*
X0054918Y0088860D01*
X0054918Y0090458D02*
X0007537Y0090458D01*
X0007537Y0092057D02*
X0054918Y0092057D01*
X0054918Y0093655D02*
X0007537Y0093655D01*
X0007537Y0095254D02*
X0054918Y0095254D01*
X0053821Y0096852D02*
X0007537Y0096852D01*
X0007537Y0098451D02*
X0052222Y0098451D01*
X0056281Y0100049D02*
X0056837Y0100049D01*
X0055502Y0101648D02*
X0054682Y0101648D01*
X0054977Y0103246D02*
X0054332Y0103246D01*
X0054304Y0104845D02*
X0055005Y0104845D01*
X0055667Y0106443D02*
X0053642Y0106443D01*
X0051751Y0108042D02*
X0057558Y0108042D01*
X0057705Y0109142D02*
X0058465Y0108895D01*
X0059255Y0108770D01*
X0059362Y0108770D01*
X0059362Y0113555D01*
X0054577Y0113555D01*
X0054577Y0113448D01*
X0054702Y0112658D01*
X0054949Y0111898D01*
X0055312Y0111186D01*
X0055781Y0110539D01*
X0056347Y0109974D01*
X0056993Y0109505D01*
X0057705Y0109142D01*
X0056806Y0109640D02*
X0051779Y0109640D01*
X0052317Y0109863D02*
X0053639Y0111185D01*
X0054354Y0112912D01*
X0054354Y0114782D01*
X0053639Y0116510D01*
X0052317Y0117832D01*
X0050589Y0118547D01*
X0038719Y0118547D01*
X0036992Y0117832D01*
X0035670Y0116510D01*
X0034954Y0114782D01*
X0034954Y0112912D01*
X0035670Y0111185D01*
X0036992Y0109863D01*
X0038719Y0109147D01*
X0050589Y0109147D01*
X0052317Y0109863D01*
X0053661Y0111239D02*
X0055285Y0111239D01*
X0054673Y0112837D02*
X0054323Y0112837D01*
X0054577Y0114140D02*
X0059362Y0114140D01*
X0059362Y0118925D01*
X0059255Y0118925D01*
X0058465Y0118800D01*
X0057705Y0118553D01*
X0056993Y0118190D01*
X0056347Y0117720D01*
X0055781Y0117155D01*
X0055312Y0116508D01*
X0054949Y0115796D01*
X0054702Y0115036D01*
X0054577Y0114247D01*
X0054577Y0114140D01*
X0054607Y0114436D02*
X0054354Y0114436D01*
X0053836Y0116034D02*
X0055070Y0116034D01*
X0056259Y0117633D02*
X0052516Y0117633D01*
X0059362Y0117633D02*
X0059947Y0117633D01*
X0059947Y0118925D02*
X0060054Y0118925D01*
X0060843Y0118800D01*
X0061603Y0118553D01*
X0062316Y0118190D01*
X0062962Y0117720D01*
X0063527Y0117155D01*
X0063997Y0116508D01*
X0064360Y0115796D01*
X0064607Y0115036D01*
X0064732Y0114247D01*
X0064732Y0114140D01*
X0059947Y0114140D01*
X0059362Y0114140D01*
X0059362Y0113555D01*
X0059947Y0113555D01*
X0059947Y0114140D01*
X0059947Y0118925D01*
X0063050Y0117633D02*
X0066825Y0117633D01*
X0067005Y0117813D02*
X0065689Y0116497D01*
X0064977Y0114778D01*
X0064977Y0112917D01*
X0065689Y0111198D01*
X0067005Y0109882D01*
X0068724Y0109170D01*
X0070585Y0109170D01*
X0072304Y0109882D01*
X0073620Y0111198D01*
X0074332Y0112917D01*
X0074332Y0114778D01*
X0073620Y0116497D01*
X0072304Y0117813D01*
X0070585Y0118525D01*
X0068724Y0118525D01*
X0067005Y0117813D01*
X0065497Y0116034D02*
X0064239Y0116034D01*
X0064702Y0114436D02*
X0064977Y0114436D01*
X0064732Y0113555D02*
X0059947Y0113555D01*
X0059947Y0108770D01*
X0060054Y0108770D01*
X0060843Y0108895D01*
X0061603Y0109142D01*
X0062316Y0109505D01*
X0062962Y0109974D01*
X0063527Y0110539D01*
X0063997Y0111186D01*
X0064360Y0111898D01*
X0064607Y0112658D01*
X0064732Y0113448D01*
X0064732Y0113555D01*
X0064635Y0112837D02*
X0065010Y0112837D01*
X0065672Y0111239D02*
X0064024Y0111239D01*
X0062502Y0109640D02*
X0067588Y0109640D01*
X0067558Y0108042D02*
X0061751Y0108042D01*
X0059947Y0109640D02*
X0059362Y0109640D01*
X0059362Y0111239D02*
X0059947Y0111239D01*
X0059947Y0112837D02*
X0059362Y0112837D01*
X0059362Y0114436D02*
X0059947Y0114436D01*
X0059947Y0116034D02*
X0059362Y0116034D01*
X0072484Y0117633D02*
X0076825Y0117633D01*
X0075497Y0116034D02*
X0073811Y0116034D01*
X0074332Y0114436D02*
X0074977Y0114436D01*
X0075010Y0112837D02*
X0074299Y0112837D01*
X0073637Y0111239D02*
X0075672Y0111239D01*
X0077588Y0109640D02*
X0071721Y0109640D01*
X0071751Y0108042D02*
X0076789Y0108042D01*
X0075278Y0106443D02*
X0073642Y0106443D01*
X0074304Y0104845D02*
X0074671Y0104845D01*
X0074609Y0103246D02*
X0074332Y0103246D01*
X0073806Y0101648D02*
X0075076Y0101648D01*
X0076272Y0100049D02*
X0072471Y0100049D01*
X0079362Y0100049D02*
X0079947Y0100049D01*
X0079947Y0101648D02*
X0079362Y0101648D01*
X0079362Y0103246D02*
X0079947Y0103246D01*
X0079947Y0104845D02*
X0079362Y0104845D01*
X0079362Y0106443D02*
X0079947Y0106443D01*
X0079947Y0108042D02*
X0079362Y0108042D01*
X0065667Y0106443D02*
X0063642Y0106443D01*
X0064304Y0104845D02*
X0065005Y0104845D01*
X0064977Y0103246D02*
X0064332Y0103246D01*
X0063806Y0101648D02*
X0065502Y0101648D01*
X0066837Y0100049D02*
X0062471Y0100049D01*
X0046837Y0100049D02*
X0042471Y0100049D01*
X0042304Y0099882D02*
X0043620Y0101198D01*
X0044332Y0102917D01*
X0044332Y0104778D01*
X0043620Y0106497D01*
X0042304Y0107813D01*
X0040585Y0108525D01*
X0038724Y0108525D01*
X0037005Y0107813D01*
X0035689Y0106497D01*
X0034977Y0104778D01*
X0034977Y0102917D01*
X0035689Y0101198D01*
X0037005Y0099882D01*
X0038724Y0099170D01*
X0040585Y0099170D01*
X0042304Y0099882D01*
X0043806Y0101648D02*
X0045502Y0101648D01*
X0044977Y0103246D02*
X0044332Y0103246D01*
X0044304Y0104845D02*
X0045005Y0104845D01*
X0045667Y0106443D02*
X0043642Y0106443D01*
X0041751Y0108042D02*
X0047558Y0108042D01*
X0037558Y0108042D02*
X0007537Y0108042D01*
X0007537Y0109640D02*
X0037529Y0109640D01*
X0035648Y0111239D02*
X0007537Y0111239D01*
X0007600Y0112837D02*
X0034985Y0112837D01*
X0034954Y0114436D02*
X0007931Y0114436D01*
X0008450Y0116034D02*
X0035473Y0116034D01*
X0036793Y0117633D02*
X0009392Y0117633D01*
X0010629Y0119231D02*
X0256750Y0119231D01*
X0254550Y0120830D02*
X0012829Y0120830D01*
X0007537Y0106443D02*
X0035667Y0106443D01*
X0035005Y0104845D02*
X0007537Y0104845D01*
X0007537Y0103246D02*
X0034977Y0103246D01*
X0035502Y0101648D02*
X0007537Y0101648D01*
X0007537Y0100049D02*
X0036837Y0100049D01*
X0035195Y0069677D02*
X0007537Y0069677D01*
X0007537Y0068079D02*
X0033597Y0068079D01*
X0031998Y0066480D02*
X0007537Y0066480D01*
X0007537Y0064882D02*
X0030400Y0064882D01*
X0028801Y0063283D02*
X0007537Y0063283D01*
X0025776Y0061685D02*
X0027203Y0061685D01*
X0040169Y0061611D02*
X0040169Y0061611D01*
X0043096Y0053692D02*
X0043496Y0053692D01*
X0043496Y0052094D02*
X0043096Y0052094D01*
X0043096Y0050495D02*
X0043496Y0050495D01*
X0043496Y0048897D02*
X0043096Y0048897D01*
X0076889Y0031313D02*
X0078176Y0031313D01*
X0082157Y0031313D02*
X0103301Y0031313D01*
X0103648Y0032912D02*
X0083257Y0032912D01*
X0083816Y0034510D02*
X0103648Y0034510D01*
X0103648Y0036109D02*
X0083816Y0036109D01*
X0083816Y0037707D02*
X0103648Y0037707D01*
X0103648Y0039306D02*
X0083816Y0039306D01*
X0083528Y0040904D02*
X0103648Y0040904D01*
X0103648Y0042503D02*
X0082308Y0042503D01*
X0082157Y0029715D02*
X0101703Y0029715D01*
X0088278Y0020124D02*
X0134332Y0020124D01*
X0135718Y0018525D02*
X0086997Y0018525D01*
X0087626Y0016927D02*
X0222433Y0016927D01*
X0222457Y0018525D02*
X0147410Y0018525D01*
X0148796Y0020124D02*
X0222743Y0020124D01*
X0222743Y0021722D02*
X0149318Y0021722D01*
X0149276Y0023321D02*
X0222743Y0023321D01*
X0226724Y0023321D02*
X0259843Y0023321D01*
X0259843Y0021722D02*
X0226724Y0021722D01*
X0226724Y0020124D02*
X0259843Y0020124D01*
X0259843Y0018525D02*
X0227009Y0018525D01*
X0227033Y0016927D02*
X0259794Y0016927D01*
X0259507Y0015328D02*
X0225766Y0015328D01*
X0223700Y0015328D02*
X0147849Y0015328D01*
X0148294Y0014883D02*
X0147056Y0016121D01*
X0145439Y0016791D01*
X0137689Y0016791D01*
X0136071Y0016121D01*
X0134834Y0014883D01*
X0134164Y0013266D01*
X0134164Y0011515D01*
X0134834Y0009898D01*
X0136071Y0008660D01*
X0137689Y0007991D01*
X0145439Y0007991D01*
X0147056Y0008660D01*
X0148294Y0009898D01*
X0148964Y0011515D01*
X0148964Y0013266D01*
X0148294Y0014883D01*
X0148772Y0013730D02*
X0258987Y0013730D01*
X0258118Y0012131D02*
X0148964Y0012131D01*
X0148557Y0010533D02*
X0256956Y0010533D01*
X0254797Y0008934D02*
X0147330Y0008934D01*
X0135798Y0008934D02*
X0085765Y0008934D01*
X0087863Y0010533D02*
X0134571Y0010533D01*
X0134164Y0012131D02*
X0088636Y0012131D01*
X0088829Y0013730D02*
X0134356Y0013730D01*
X0135279Y0015328D02*
X0088538Y0015328D01*
X0141364Y0018525D02*
X0141764Y0018525D01*
X0141764Y0020124D02*
X0141364Y0020124D01*
X0141364Y0021722D02*
X0141764Y0021722D01*
X0141764Y0023321D02*
X0141364Y0023321D01*
X0141364Y0024919D02*
X0141764Y0024919D01*
X0141764Y0026518D02*
X0141364Y0026518D01*
X0157112Y0026518D02*
X0157512Y0026518D01*
X0157512Y0028116D02*
X0157112Y0028116D01*
X0157112Y0029715D02*
X0157512Y0029715D01*
X0157512Y0031313D02*
X0157112Y0031313D01*
X0157112Y0032912D02*
X0157512Y0032912D01*
X0157512Y0034510D02*
X0157112Y0034510D01*
X0226724Y0024919D02*
X0259843Y0024919D01*
X0239967Y0044101D02*
X0226724Y0044101D01*
X0226724Y0045700D02*
X0239967Y0045700D01*
X0239967Y0047298D02*
X0226724Y0047298D01*
X0226724Y0048897D02*
X0239967Y0048897D01*
X0239967Y0050495D02*
X0226724Y0050495D01*
X0226724Y0052094D02*
X0239967Y0052094D01*
X0239967Y0053692D02*
X0226724Y0053692D01*
X0226724Y0055291D02*
X0239967Y0055291D01*
X0239967Y0056889D02*
X0226724Y0056889D01*
X0226724Y0058488D02*
X0239967Y0058488D01*
X0239967Y0060086D02*
X0226724Y0060086D01*
X0226724Y0061685D02*
X0239967Y0061685D01*
X0239967Y0063283D02*
X0226724Y0063283D01*
X0226724Y0064882D02*
X0239967Y0064882D01*
X0239967Y0066480D02*
X0226724Y0066480D01*
X0226724Y0068079D02*
X0239967Y0068079D01*
X0239967Y0069677D02*
X0226724Y0069677D01*
D16*
X0157312Y0070855D02*
X0157154Y0070698D01*
X0124831Y0070698D01*
X0118926Y0080540D02*
X0156997Y0080540D01*
X0157312Y0080855D01*
X0157312Y0060855D02*
X0143532Y0060855D01*
X0147469Y0051013D02*
X0157154Y0051013D01*
X0157312Y0050855D01*
X0105639Y0030835D02*
X0105639Y0099831D01*
X0109654Y0103847D01*
X0069713Y0102804D02*
X0069713Y0050028D01*
X0042159Y0022474D01*
X0042159Y0013569D01*
X0053729Y0013611D02*
X0064792Y0013611D01*
X0080166Y0028985D01*
X0080166Y0037233D01*
X0070166Y0037233D02*
X0070166Y0026859D01*
X0065776Y0022469D01*
X0053729Y0022469D01*
X0083729Y0022469D02*
X0097272Y0022469D01*
X0105639Y0030835D01*
X0224733Y0017548D02*
X0224733Y0108769D01*
X0219654Y0113847D01*
X0229654Y0113847D02*
X0232765Y0113355D01*
X0241957Y0104162D01*
X0241957Y0029359D01*
X0069713Y0102804D02*
X0069654Y0103847D01*
D17*
X0118926Y0080540D03*
X0100717Y0076111D03*
X0124831Y0070698D03*
X0143532Y0060855D03*
X0147469Y0051013D03*
X0224733Y0017548D03*
X0241957Y0029359D03*
X0059674Y0063611D03*
X0056918Y0068729D03*
D18*
X0037076Y0068729D01*
X0023296Y0054950D01*
X0033296Y0054950D02*
X0033296Y0060068D01*
X0036839Y0063611D01*
X0059674Y0063611D01*
X0059654Y0103847D01*
X0056918Y0096583D02*
X0049654Y0103847D01*
X0056918Y0096583D02*
X0056918Y0068729D01*
X0100698Y0061721D02*
X0100717Y0061741D01*
X0100717Y0076111D01*
M02*
