G75*
%MOIN*%
%OFA0B0*%
%FSLAX25Y25*%
%IPPOS*%
%LPD*%
%AMOC8*
5,1,8,0,0,1.08239X$1,22.5*
%
%ADD10C,0.00400*%
%ADD11C,0.00300*%
%ADD12C,0.00500*%
D10*
X0172924Y0037148D02*
X0173608Y0036465D01*
X0174975Y0036465D01*
X0175659Y0037148D01*
X0172924Y0039884D01*
X0172924Y0037148D01*
X0175659Y0037148D02*
X0175659Y0039884D01*
X0174975Y0040568D01*
X0173608Y0040568D01*
X0172924Y0039884D01*
X0172917Y0041847D02*
X0173601Y0041847D01*
X0172917Y0041847D02*
X0172233Y0042531D01*
X0172233Y0045950D01*
X0174969Y0045950D02*
X0174969Y0043898D01*
X0174285Y0043215D01*
X0172233Y0043215D01*
X0176377Y0044582D02*
X0179112Y0044582D01*
X0179112Y0043898D02*
X0179112Y0045266D01*
X0178428Y0045950D01*
X0177061Y0045950D01*
X0176377Y0045266D01*
X0176377Y0044582D01*
X0177061Y0043215D02*
X0178428Y0043215D01*
X0179112Y0043898D01*
X0180507Y0043215D02*
X0181875Y0043215D01*
X0181191Y0043215D02*
X0181191Y0047318D01*
X0181875Y0047318D01*
X0183283Y0045950D02*
X0183283Y0043898D01*
X0183966Y0043215D01*
X0184650Y0043898D01*
X0185334Y0043215D01*
X0186018Y0043898D01*
X0186018Y0045950D01*
X0187426Y0045266D02*
X0187426Y0043215D01*
X0189478Y0043215D01*
X0190162Y0043898D01*
X0189478Y0044582D01*
X0187426Y0044582D01*
X0187426Y0045266D02*
X0188110Y0045950D01*
X0189478Y0045950D01*
X0191570Y0045266D02*
X0194305Y0045266D01*
X0194305Y0043215D02*
X0194305Y0047318D01*
X0191570Y0047318D02*
X0191570Y0043215D01*
X0192254Y0040568D02*
X0193621Y0040568D01*
X0194305Y0039884D01*
X0194305Y0039200D01*
X0193621Y0038516D01*
X0192254Y0038516D01*
X0191570Y0037832D01*
X0191570Y0037148D01*
X0192254Y0036465D01*
X0193621Y0036465D01*
X0194305Y0037148D01*
X0195713Y0038516D02*
X0198449Y0038516D01*
X0199857Y0039884D02*
X0199857Y0040568D01*
X0199857Y0039884D02*
X0201225Y0038516D01*
X0201225Y0036465D01*
X0201225Y0038516D02*
X0202592Y0039884D01*
X0202592Y0040568D01*
X0204000Y0039884D02*
X0204000Y0039200D01*
X0204684Y0038516D01*
X0206736Y0038516D01*
X0208144Y0038516D02*
X0210879Y0038516D01*
X0212287Y0037148D02*
X0212971Y0036465D01*
X0214339Y0036465D01*
X0215023Y0037148D01*
X0215023Y0039884D01*
X0214339Y0040568D01*
X0212971Y0040568D01*
X0212287Y0039884D01*
X0216431Y0039884D02*
X0217115Y0040568D01*
X0218483Y0040568D01*
X0219167Y0039884D01*
X0219167Y0037148D01*
X0218483Y0036465D01*
X0217115Y0036465D01*
X0216431Y0037148D01*
X0206736Y0036465D02*
X0206736Y0040568D01*
X0204684Y0040568D01*
X0204000Y0039884D01*
X0204684Y0038516D02*
X0204000Y0037832D01*
X0204000Y0037148D01*
X0204684Y0036465D01*
X0206736Y0036465D01*
X0206756Y0041847D02*
X0206072Y0042531D01*
X0206072Y0045950D01*
X0208124Y0045950D01*
X0208808Y0045266D01*
X0208808Y0043898D01*
X0208124Y0043215D01*
X0206072Y0043215D01*
X0206756Y0041847D02*
X0207440Y0041847D01*
X0210216Y0043898D02*
X0210216Y0045266D01*
X0210899Y0045950D01*
X0212267Y0045950D01*
X0212951Y0045266D01*
X0212951Y0043898D01*
X0212267Y0043215D01*
X0210899Y0043215D01*
X0210216Y0043898D01*
X0214359Y0043215D02*
X0214359Y0045266D01*
X0215043Y0045950D01*
X0216411Y0045950D01*
X0217095Y0045266D01*
X0218489Y0045950D02*
X0219857Y0045950D01*
X0219173Y0046634D02*
X0219173Y0043898D01*
X0218489Y0043215D01*
X0217095Y0043215D02*
X0217095Y0047318D01*
X0221258Y0045950D02*
X0221942Y0045950D01*
X0223310Y0044582D01*
X0223310Y0043215D02*
X0223310Y0045950D01*
X0224718Y0045266D02*
X0224718Y0043215D01*
X0226770Y0043215D01*
X0227454Y0043898D01*
X0226770Y0044582D01*
X0224718Y0044582D01*
X0224718Y0045266D02*
X0225402Y0045950D01*
X0226770Y0045950D01*
X0228861Y0047318D02*
X0228861Y0043215D01*
X0230229Y0044582D01*
X0231597Y0043215D01*
X0231597Y0047318D01*
X0232985Y0046634D02*
X0233669Y0045950D01*
X0232985Y0046634D02*
X0232985Y0048002D01*
X0231259Y0049965D02*
X0231942Y0050648D01*
X0231259Y0051332D01*
X0229207Y0051332D01*
X0229207Y0052016D02*
X0229207Y0049965D01*
X0231259Y0049965D01*
X0227799Y0049965D02*
X0226431Y0049965D01*
X0227115Y0049965D02*
X0227115Y0054068D01*
X0227799Y0054068D01*
X0229207Y0052016D02*
X0229891Y0052700D01*
X0231259Y0052700D01*
X0233344Y0052700D02*
X0234028Y0052700D01*
X0235395Y0051332D01*
X0235395Y0049965D02*
X0235395Y0052700D01*
X0236803Y0052016D02*
X0237487Y0052700D01*
X0238855Y0052700D01*
X0239539Y0052016D01*
X0239539Y0050648D01*
X0238855Y0049965D01*
X0237487Y0049965D01*
X0236803Y0050648D01*
X0236803Y0052016D01*
X0240933Y0049965D02*
X0242301Y0049965D01*
X0241617Y0049965D02*
X0241617Y0054068D01*
X0242301Y0054068D01*
X0243709Y0054068D02*
X0246445Y0054068D01*
X0246445Y0049965D01*
X0246445Y0052016D02*
X0245077Y0052016D01*
X0246100Y0047318D02*
X0246100Y0043215D01*
X0247507Y0043898D02*
X0247507Y0045266D01*
X0248191Y0045950D01*
X0249559Y0045950D01*
X0250243Y0045266D01*
X0250243Y0043898D01*
X0249559Y0043215D01*
X0248191Y0043215D01*
X0247507Y0043898D01*
X0246100Y0045266D02*
X0245416Y0045950D01*
X0244048Y0045950D01*
X0243364Y0045266D01*
X0243364Y0043215D01*
X0241956Y0043215D02*
X0241956Y0045950D01*
X0239904Y0045950D01*
X0239220Y0045266D01*
X0239220Y0043215D01*
X0239200Y0040568D02*
X0237832Y0040568D01*
X0237149Y0039884D01*
X0237149Y0039200D01*
X0239884Y0036465D01*
X0237149Y0036465D01*
X0235741Y0037148D02*
X0233005Y0039884D01*
X0233005Y0037148D01*
X0233689Y0036465D01*
X0235057Y0036465D01*
X0235741Y0037148D01*
X0235741Y0039884D01*
X0235057Y0040568D01*
X0233689Y0040568D01*
X0233005Y0039884D01*
X0231597Y0039884D02*
X0230913Y0040568D01*
X0229545Y0040568D01*
X0228861Y0039884D01*
X0228861Y0039200D01*
X0231597Y0036465D01*
X0228861Y0036465D01*
X0227454Y0036465D02*
X0224718Y0036465D01*
X0226086Y0036465D02*
X0226086Y0040568D01*
X0227454Y0039200D01*
X0239200Y0040568D02*
X0239884Y0039884D01*
X0245422Y0039200D02*
X0245422Y0037832D01*
X0246790Y0036465D01*
X0248198Y0037148D02*
X0248882Y0036465D01*
X0250250Y0036465D01*
X0250934Y0037148D01*
X0250934Y0039884D01*
X0250250Y0040568D01*
X0248882Y0040568D01*
X0248198Y0039884D01*
X0246790Y0040568D02*
X0245422Y0039200D01*
X0252328Y0040568D02*
X0253696Y0039200D01*
X0253696Y0037832D01*
X0252328Y0036465D01*
X0253019Y0043215D02*
X0252335Y0043898D01*
X0252335Y0047318D01*
X0253019Y0047318D02*
X0251651Y0047318D01*
X0253019Y0043215D02*
X0253703Y0043215D01*
X0254387Y0043898D01*
X0220893Y0049965D02*
X0218841Y0049965D01*
X0218157Y0050648D01*
X0218157Y0051332D01*
X0218841Y0052016D01*
X0220893Y0052016D01*
X0220893Y0049965D02*
X0220893Y0054068D01*
X0218841Y0054068D01*
X0218157Y0053384D01*
X0218157Y0052700D01*
X0218841Y0052016D01*
X0216749Y0052016D02*
X0216749Y0050648D01*
X0216066Y0049965D01*
X0214698Y0049965D01*
X0214014Y0050648D01*
X0214014Y0052016D01*
X0214698Y0052700D01*
X0216066Y0052700D01*
X0216749Y0052016D01*
X0212606Y0052700D02*
X0212606Y0049965D01*
X0209870Y0049965D02*
X0209870Y0052016D01*
X0210554Y0052700D01*
X0212606Y0052700D01*
X0208462Y0052700D02*
X0208462Y0049965D01*
X0205727Y0049965D02*
X0205727Y0052016D01*
X0206411Y0052700D01*
X0208462Y0052700D01*
X0204319Y0052016D02*
X0204319Y0050648D01*
X0203635Y0049965D01*
X0202267Y0049965D01*
X0201583Y0051332D02*
X0204319Y0051332D01*
X0204319Y0052016D02*
X0203635Y0052700D01*
X0202267Y0052700D01*
X0201583Y0052016D01*
X0201583Y0051332D01*
X0200175Y0052700D02*
X0198807Y0052700D01*
X0199491Y0053384D02*
X0199491Y0050648D01*
X0198807Y0049965D01*
X0199837Y0048002D02*
X0199837Y0046634D01*
X0200521Y0045950D01*
X0201928Y0045266D02*
X0203980Y0045266D01*
X0204664Y0045950D01*
X0204664Y0046634D01*
X0203980Y0047318D01*
X0202612Y0047318D01*
X0201928Y0046634D01*
X0201928Y0043898D01*
X0202612Y0043215D01*
X0203980Y0043215D01*
X0204664Y0043898D01*
X0192254Y0040568D02*
X0191570Y0039884D01*
X0190162Y0039200D02*
X0188794Y0040568D01*
X0187426Y0039200D01*
X0187426Y0036465D01*
X0187426Y0038516D02*
X0190162Y0038516D01*
X0190162Y0039200D02*
X0190162Y0036465D01*
X0181875Y0038516D02*
X0179139Y0038516D01*
X0177731Y0037148D02*
X0177047Y0037148D01*
X0177047Y0036465D01*
X0177731Y0036465D01*
X0177731Y0037148D01*
X0179823Y0036465D02*
X0179823Y0040568D01*
X0181875Y0038516D01*
X0181543Y0049965D02*
X0181543Y0054068D01*
X0182911Y0052700D01*
X0184298Y0050648D02*
X0184298Y0049965D01*
X0184982Y0049965D01*
X0184982Y0050648D01*
X0184298Y0050648D01*
X0182911Y0049965D02*
X0180175Y0049965D01*
X0186390Y0049965D02*
X0189126Y0049965D01*
X0187758Y0049965D02*
X0187758Y0054068D01*
X0189126Y0052700D01*
X0190534Y0051332D02*
X0190534Y0054068D01*
X0193269Y0054068D02*
X0193269Y0051332D01*
X0191902Y0049965D01*
X0190534Y0051332D01*
D11*
X0192369Y0034038D02*
X0192369Y0030935D01*
X0192886Y0030935D02*
X0191851Y0030935D01*
X0190799Y0031452D02*
X0190281Y0030935D01*
X0189247Y0030935D01*
X0188730Y0031969D02*
X0190799Y0031969D01*
X0190799Y0031452D02*
X0190799Y0032486D01*
X0190281Y0033003D01*
X0189247Y0033003D01*
X0188730Y0032486D01*
X0188730Y0031969D01*
X0187668Y0030935D02*
X0185599Y0034038D01*
X0184537Y0034038D02*
X0184537Y0030935D01*
X0182986Y0030935D01*
X0182469Y0031452D01*
X0182469Y0032486D01*
X0182986Y0033003D01*
X0184537Y0033003D01*
X0181407Y0032486D02*
X0181407Y0031452D01*
X0180889Y0030935D01*
X0179855Y0030935D01*
X0179338Y0031452D01*
X0179338Y0032486D01*
X0179855Y0033003D01*
X0180889Y0033003D01*
X0181407Y0032486D01*
X0178276Y0033003D02*
X0176725Y0033003D01*
X0176207Y0032486D01*
X0176207Y0030935D01*
X0175145Y0030935D02*
X0175145Y0033003D01*
X0173594Y0033003D01*
X0173077Y0032486D01*
X0173077Y0030935D01*
X0172015Y0031452D02*
X0171497Y0030935D01*
X0170463Y0030935D01*
X0169946Y0031969D02*
X0172015Y0031969D01*
X0172015Y0031452D02*
X0172015Y0032486D01*
X0171497Y0033003D01*
X0170463Y0033003D01*
X0169946Y0032486D01*
X0169946Y0031969D01*
X0168884Y0033003D02*
X0167850Y0033003D01*
X0168367Y0033521D02*
X0168367Y0031452D01*
X0167850Y0030935D01*
X0166797Y0030418D02*
X0164728Y0030418D01*
X0163149Y0030935D02*
X0163149Y0033521D01*
X0162632Y0034038D01*
X0161579Y0034038D02*
X0161062Y0034038D01*
X0161062Y0030935D01*
X0161579Y0030935D02*
X0160545Y0030935D01*
X0159492Y0031452D02*
X0158975Y0030935D01*
X0157941Y0030935D01*
X0157423Y0031452D01*
X0157423Y0032486D01*
X0157941Y0033003D01*
X0158975Y0033003D01*
X0159492Y0032486D01*
X0159492Y0031452D01*
X0156361Y0030935D02*
X0156361Y0033003D01*
X0156361Y0031969D02*
X0155327Y0033003D01*
X0154810Y0033003D01*
X0153235Y0033003D02*
X0152201Y0033003D01*
X0151684Y0032486D01*
X0151684Y0030935D01*
X0153235Y0030935D01*
X0153752Y0031452D01*
X0153235Y0031969D01*
X0151684Y0031969D01*
X0150622Y0030935D02*
X0149587Y0030935D01*
X0150105Y0030935D02*
X0150105Y0034038D01*
X0150622Y0034038D01*
X0162632Y0032486D02*
X0163666Y0032486D01*
X0178276Y0033003D02*
X0178276Y0030935D01*
X0192369Y0034038D02*
X0192886Y0034038D01*
X0193948Y0032486D02*
X0194465Y0033003D01*
X0196016Y0033003D01*
X0196016Y0034038D02*
X0196016Y0030935D01*
X0194465Y0030935D01*
X0193948Y0031452D01*
X0193948Y0032486D01*
X0197586Y0033003D02*
X0197586Y0030935D01*
X0198103Y0030935D02*
X0197069Y0030935D01*
X0199166Y0030935D02*
X0200717Y0030935D01*
X0201234Y0031452D01*
X0201234Y0032486D01*
X0200717Y0033003D01*
X0199166Y0033003D01*
X0198103Y0033003D02*
X0197586Y0033003D01*
X0197586Y0034038D02*
X0197586Y0034555D01*
X0202296Y0033003D02*
X0202296Y0030935D01*
X0203848Y0030935D01*
X0204365Y0031452D01*
X0204365Y0033003D01*
X0205427Y0033003D02*
X0206978Y0033003D01*
X0207495Y0032486D01*
X0207495Y0031452D01*
X0206978Y0030935D01*
X0205427Y0030935D01*
X0205427Y0034038D01*
X0208558Y0032486D02*
X0208558Y0031452D01*
X0209075Y0030935D01*
X0210109Y0030935D01*
X0210626Y0031452D01*
X0210626Y0032486D01*
X0210109Y0033003D01*
X0209075Y0033003D01*
X0208558Y0032486D01*
X0211684Y0033003D02*
X0212201Y0033003D01*
X0213235Y0031969D01*
X0213235Y0030935D02*
X0213235Y0033003D01*
X0214297Y0032486D02*
X0214297Y0031452D01*
X0214814Y0030935D01*
X0216366Y0030935D01*
X0216366Y0029901D02*
X0216366Y0033003D01*
X0214814Y0033003D01*
X0214297Y0032486D01*
X0217428Y0032486D02*
X0217428Y0031969D01*
X0219496Y0031969D01*
X0219496Y0031452D02*
X0219496Y0032486D01*
X0218979Y0033003D01*
X0217945Y0033003D01*
X0217428Y0032486D01*
X0218979Y0030935D02*
X0219496Y0031452D01*
X0218979Y0030935D02*
X0217945Y0030935D01*
X0220554Y0033003D02*
X0221071Y0033003D01*
X0222105Y0031969D01*
X0222105Y0030935D02*
X0222105Y0033003D01*
X0223167Y0032486D02*
X0223167Y0030935D01*
X0225236Y0030935D02*
X0225236Y0033003D01*
X0223685Y0033003D01*
X0223167Y0032486D01*
X0226298Y0033003D02*
X0226298Y0030935D01*
X0227849Y0030935D01*
X0228367Y0031452D01*
X0228367Y0033003D01*
X0229429Y0034038D02*
X0231497Y0030935D01*
X0232560Y0030935D02*
X0232560Y0032486D01*
X0233077Y0033003D01*
X0233594Y0032486D01*
X0233594Y0030935D01*
X0234628Y0030935D02*
X0234628Y0033003D01*
X0234111Y0033003D01*
X0233594Y0032486D01*
X0235690Y0032486D02*
X0235690Y0031452D01*
X0236207Y0030935D01*
X0237242Y0030935D01*
X0237759Y0031452D01*
X0237759Y0032486D01*
X0237242Y0033003D01*
X0236207Y0033003D01*
X0235690Y0032486D01*
X0238821Y0033003D02*
X0240372Y0033003D01*
X0240889Y0032486D01*
X0240889Y0031452D01*
X0240372Y0030935D01*
X0238821Y0030935D01*
X0241938Y0030935D02*
X0241938Y0031452D01*
X0242455Y0031452D01*
X0242455Y0030935D01*
X0241938Y0030935D01*
X0243517Y0031452D02*
X0243517Y0032486D01*
X0244034Y0033003D01*
X0245585Y0033003D01*
X0245585Y0034038D02*
X0245585Y0030935D01*
X0244034Y0030935D01*
X0243517Y0031452D01*
X0246648Y0030935D02*
X0246648Y0033003D01*
X0248716Y0033003D02*
X0248716Y0031452D01*
X0248199Y0030935D01*
X0246648Y0030935D01*
X0249778Y0030935D02*
X0249778Y0032486D01*
X0250295Y0033003D01*
X0251330Y0033003D01*
X0251847Y0032486D01*
X0252900Y0033003D02*
X0253934Y0033003D01*
X0253417Y0033521D02*
X0253417Y0031452D01*
X0252900Y0030935D01*
X0251847Y0030935D02*
X0251847Y0034038D01*
X0255504Y0034038D02*
X0255504Y0034555D01*
X0255504Y0033003D02*
X0255504Y0030935D01*
X0256021Y0030935D02*
X0254987Y0030935D01*
X0257083Y0030935D02*
X0258634Y0030935D01*
X0259152Y0031452D01*
X0259152Y0032486D01*
X0258634Y0033003D01*
X0257083Y0033003D01*
X0257083Y0030418D01*
X0257600Y0029901D01*
X0258117Y0029901D01*
X0256021Y0033003D02*
X0255504Y0033003D01*
X0132919Y0071615D02*
X0132919Y0072488D01*
X0132046Y0073361D01*
X0131173Y0073361D01*
X0130737Y0072925D01*
X0130737Y0072052D01*
X0129864Y0072052D01*
X0129428Y0071615D01*
X0129428Y0070743D01*
X0130301Y0069870D01*
X0131173Y0069870D01*
X0131173Y0071615D02*
X0130737Y0072052D01*
X0128569Y0072474D02*
X0128133Y0072911D01*
X0127696Y0072474D01*
X0128133Y0072038D01*
X0128569Y0072474D01*
X0127267Y0073776D02*
X0126394Y0073776D01*
X0125521Y0074649D01*
X0125521Y0075522D01*
X0125958Y0075958D01*
X0126830Y0075958D01*
X0127267Y0075522D01*
X0126830Y0075958D02*
X0126830Y0076831D01*
X0127267Y0077268D01*
X0128140Y0077268D01*
X0129013Y0076395D01*
X0129013Y0075522D01*
X0126845Y0078563D02*
X0125099Y0076817D01*
X0123353Y0076817D01*
X0123353Y0078563D01*
X0125099Y0080309D01*
X0118304Y0076769D02*
X0116995Y0078078D01*
X0116122Y0078078D01*
X0115249Y0077205D01*
X0115249Y0076332D01*
X0116559Y0075023D01*
X0115686Y0075896D02*
X0113940Y0075896D01*
X0115686Y0074150D02*
X0118304Y0076769D01*
X0119163Y0075910D02*
X0120909Y0074164D01*
X0120036Y0075037D02*
X0117417Y0072418D01*
X0119585Y0071123D02*
X0121331Y0072869D01*
X0122204Y0072869D01*
X0123513Y0071560D01*
X0120894Y0068941D01*
X0119585Y0070251D01*
X0119585Y0071123D01*
X0113178Y0071560D02*
X0111869Y0072869D01*
X0110996Y0072869D01*
X0110123Y0071996D01*
X0110123Y0071123D01*
X0111433Y0069814D01*
X0110560Y0068941D02*
X0113178Y0071560D01*
X0110560Y0070687D02*
X0108814Y0070687D01*
X0107955Y0071546D02*
X0108828Y0075910D01*
X0110574Y0074164D02*
X0106210Y0073291D01*
X0103336Y0071560D02*
X0101590Y0073305D01*
X0100731Y0074164D02*
X0096367Y0073291D01*
X0098113Y0071546D02*
X0098986Y0075910D01*
X0102463Y0072433D02*
X0099844Y0069814D01*
X0092565Y0071615D02*
X0090819Y0069870D01*
X0089946Y0069870D01*
X0089073Y0070743D01*
X0089073Y0071615D01*
X0089946Y0072488D01*
X0090819Y0071615D01*
X0092565Y0071615D02*
X0092565Y0072488D01*
X0091692Y0073361D01*
X0090819Y0073361D01*
X0090397Y0074656D02*
X0087778Y0072038D01*
X0086033Y0073783D02*
X0088651Y0076402D01*
X0087792Y0077261D02*
X0086483Y0078570D01*
X0085610Y0078570D01*
X0083865Y0076824D01*
X0083865Y0075951D01*
X0085174Y0074642D01*
X0087792Y0077261D01*
X0090397Y0074656D02*
X0086033Y0073783D01*
X0083159Y0071560D02*
X0081849Y0070251D01*
X0081413Y0071560D01*
X0080977Y0071996D01*
X0080104Y0071996D01*
X0079231Y0071123D01*
X0079231Y0070251D01*
X0080104Y0069378D01*
X0080977Y0069378D01*
X0083159Y0071560D02*
X0081413Y0073305D01*
X0080554Y0074164D02*
X0078809Y0072418D01*
X0077063Y0072418D01*
X0077063Y0074164D01*
X0078809Y0075910D01*
D12*
X0082509Y0041170D02*
X0082509Y0033296D01*
M02*
