G75*
%MOIN*%
%OFA0B0*%
%FSLAX25Y25*%
%IPPOS*%
%LPD*%
%AMOC8*
5,1,8,0,0,1.08239X$1,22.5*
%
%ADD10C,0.06555*%
%ADD11C,0.06000*%
%ADD12C,0.04500*%
%ADD13C,0.07400*%
%ADD14C,0.01600*%
%ADD15C,0.01181*%
%ADD16C,0.01800*%
D10*
X0039654Y0103847D03*
X0049654Y0103847D03*
X0059654Y0103847D03*
X0069654Y0103847D03*
X0079654Y0103847D03*
X0089654Y0103847D03*
X0099654Y0103847D03*
X0109654Y0103847D03*
X0119654Y0103847D03*
X0129654Y0103847D03*
X0139654Y0103847D03*
X0149654Y0103847D03*
X0159654Y0103847D03*
X0169654Y0103847D03*
X0179654Y0103847D03*
X0189654Y0103847D03*
X0199654Y0103847D03*
X0209654Y0103847D03*
X0219654Y0103847D03*
X0229654Y0103847D03*
X0229654Y0113847D03*
X0219654Y0113847D03*
X0209654Y0113847D03*
X0199654Y0113847D03*
X0189654Y0113847D03*
X0179654Y0113847D03*
X0169654Y0113847D03*
X0159654Y0113847D03*
X0149654Y0113847D03*
X0139654Y0113847D03*
X0129654Y0113847D03*
X0119654Y0113847D03*
X0109654Y0113847D03*
X0099654Y0113847D03*
X0089654Y0113847D03*
X0079654Y0113847D03*
X0069654Y0113847D03*
X0059654Y0113847D03*
X0049654Y0113847D03*
X0039654Y0113847D03*
D11*
X0080698Y0064721D02*
X0080698Y0058721D01*
X0090698Y0058721D02*
X0090698Y0064721D01*
X0100698Y0064721D02*
X0100698Y0058721D01*
X0110698Y0058721D02*
X0110698Y0064721D01*
X0120698Y0064721D02*
X0120698Y0058721D01*
X0130698Y0058721D02*
X0130698Y0064721D01*
X0154312Y0060855D02*
X0160312Y0060855D01*
X0160312Y0050855D02*
X0154312Y0050855D01*
X0144564Y0046328D02*
X0138564Y0046328D01*
X0154312Y0040855D02*
X0160312Y0040855D01*
X0144564Y0036328D02*
X0138564Y0036328D01*
X0154312Y0030855D02*
X0160312Y0030855D01*
X0144564Y0026328D02*
X0138564Y0026328D01*
X0138564Y0016328D02*
X0144564Y0016328D01*
X0053296Y0051950D02*
X0053296Y0057950D01*
X0043296Y0057950D02*
X0043296Y0051950D01*
X0033296Y0051950D02*
X0033296Y0057950D01*
X0023296Y0057950D02*
X0023296Y0051950D01*
X0013296Y0051950D02*
X0013296Y0057950D01*
X0154312Y0070855D02*
X0160312Y0070855D01*
X0160312Y0080855D02*
X0154312Y0080855D01*
X0154312Y0090855D02*
X0160312Y0090855D01*
D12*
X0080166Y0039483D02*
X0080166Y0034983D01*
X0075166Y0034983D02*
X0075166Y0039483D01*
X0070166Y0039483D02*
X0070166Y0034983D01*
X0065166Y0034983D02*
X0065166Y0039483D01*
D13*
X0054202Y0043139D03*
X0042159Y0031369D03*
X0053729Y0022469D03*
X0053729Y0013611D03*
X0042159Y0013569D03*
X0016559Y0013569D03*
X0016559Y0031369D03*
X0024202Y0043139D03*
X0083729Y0022469D03*
X0083729Y0013611D03*
D14*
X0015982Y0007660D02*
X0013003Y0008628D01*
X0010469Y0010469D01*
X0008628Y0013003D01*
X0007660Y0015982D01*
X0007537Y0017548D01*
X0007537Y0112036D01*
X0007660Y0113602D01*
X0008628Y0116581D01*
X0010469Y0119115D01*
X0013003Y0120956D01*
X0015982Y0121924D01*
X0017548Y0122047D01*
X0249831Y0122047D01*
X0251398Y0121924D01*
X0254376Y0120956D01*
X0256910Y0119115D01*
X0258751Y0116581D01*
X0259719Y0113602D01*
X0259843Y0112036D01*
X0259843Y0017548D01*
X0259719Y0015982D01*
X0258751Y0013003D01*
X0256910Y0010469D01*
X0254376Y0008628D01*
X0251398Y0007660D01*
X0249831Y0007537D01*
X0017548Y0007537D01*
X0015982Y0007660D01*
X0015545Y0008469D02*
X0017574Y0008469D01*
X0019448Y0009246D01*
X0020883Y0010680D01*
X0021659Y0012555D01*
X0021659Y0014584D01*
X0020883Y0016458D01*
X0019448Y0017893D01*
X0017574Y0018669D01*
X0015545Y0018669D01*
X0013670Y0017893D01*
X0012235Y0016458D01*
X0011459Y0014584D01*
X0011459Y0012555D01*
X0012235Y0010680D01*
X0013670Y0009246D01*
X0015545Y0008469D01*
X0014423Y0008934D02*
X0012582Y0008934D01*
X0012383Y0010533D02*
X0010423Y0010533D01*
X0009262Y0012131D02*
X0011635Y0012131D01*
X0011459Y0013730D02*
X0008392Y0013730D01*
X0007873Y0015328D02*
X0011767Y0015328D01*
X0012704Y0016927D02*
X0007586Y0016927D01*
X0007537Y0018525D02*
X0015197Y0018525D01*
X0017922Y0018525D02*
X0040797Y0018525D01*
X0041145Y0018669D02*
X0039270Y0017893D01*
X0037835Y0016458D01*
X0037059Y0014584D01*
X0037059Y0012555D01*
X0037835Y0010680D01*
X0039270Y0009246D01*
X0041145Y0008469D01*
X0043174Y0008469D01*
X0045048Y0009246D01*
X0046483Y0010680D01*
X0047259Y0012555D01*
X0047259Y0014584D01*
X0046483Y0016458D01*
X0045048Y0017893D01*
X0043174Y0018669D01*
X0041145Y0018669D01*
X0043522Y0018525D02*
X0050461Y0018525D01*
X0050840Y0018146D02*
X0051095Y0018040D01*
X0050840Y0017935D01*
X0049406Y0016500D01*
X0048629Y0014625D01*
X0048629Y0012597D01*
X0049406Y0010722D01*
X0050840Y0009287D01*
X0052715Y0008511D01*
X0054744Y0008511D01*
X0056618Y0009287D01*
X0058053Y0010722D01*
X0058829Y0012597D01*
X0058829Y0014625D01*
X0058053Y0016500D01*
X0056618Y0017935D01*
X0056363Y0018040D01*
X0056618Y0018146D01*
X0058053Y0019580D01*
X0058829Y0021455D01*
X0058829Y0023484D01*
X0058053Y0025358D01*
X0056618Y0026793D01*
X0054744Y0027569D01*
X0052715Y0027569D01*
X0050840Y0026793D01*
X0049406Y0025358D01*
X0048629Y0023484D01*
X0048629Y0021455D01*
X0049406Y0019580D01*
X0050840Y0018146D01*
X0049832Y0016927D02*
X0046014Y0016927D01*
X0046951Y0015328D02*
X0048920Y0015328D01*
X0048629Y0013730D02*
X0047259Y0013730D01*
X0047084Y0012131D02*
X0048822Y0012131D01*
X0049595Y0010533D02*
X0046335Y0010533D01*
X0044295Y0008934D02*
X0051693Y0008934D01*
X0055765Y0008934D02*
X0081693Y0008934D01*
X0080840Y0009287D02*
X0082715Y0008511D01*
X0084744Y0008511D01*
X0085642Y0008883D01*
X0085857Y0008668D01*
X0223963Y0008668D01*
X0224273Y0008358D01*
X0226178Y0008358D01*
X0227525Y0009706D01*
X0227525Y0011611D01*
X0226178Y0012958D01*
X0224273Y0012958D01*
X0223963Y0012649D01*
X0147667Y0012649D01*
X0147691Y0012666D01*
X0148225Y0013201D01*
X0148669Y0013812D01*
X0149012Y0014485D01*
X0149246Y0015204D01*
X0149364Y0015950D01*
X0149364Y0016128D01*
X0141764Y0016128D01*
X0141764Y0016528D01*
X0149364Y0016528D01*
X0149364Y0016705D01*
X0149246Y0017452D01*
X0149012Y0018170D01*
X0148669Y0018843D01*
X0148225Y0019455D01*
X0148185Y0019494D01*
X0232821Y0019494D01*
X0233131Y0019185D01*
X0235036Y0019185D01*
X0236383Y0020532D01*
X0236383Y0022438D01*
X0235036Y0023785D01*
X0233131Y0023785D01*
X0232821Y0023476D01*
X0147934Y0023476D01*
X0148294Y0023835D01*
X0148964Y0025452D01*
X0148964Y0027203D01*
X0148294Y0028820D01*
X0147056Y0030058D01*
X0145439Y0030728D01*
X0137689Y0030728D01*
X0136071Y0030058D01*
X0134834Y0028820D01*
X0134164Y0027203D01*
X0134164Y0025452D01*
X0134834Y0023835D01*
X0135193Y0023476D01*
X0128609Y0023476D01*
X0120917Y0031168D01*
X0119750Y0032334D01*
X0082679Y0032334D01*
X0083260Y0032916D01*
X0083816Y0034257D01*
X0083816Y0040000D01*
X0089479Y0034337D01*
X0134626Y0034337D01*
X0134834Y0033835D01*
X0136071Y0032597D01*
X0137689Y0031928D01*
X0145439Y0031928D01*
X0147056Y0032597D01*
X0148294Y0033835D01*
X0148964Y0035452D01*
X0148964Y0037203D01*
X0148294Y0038820D01*
X0147056Y0040058D01*
X0145439Y0040728D01*
X0137689Y0040728D01*
X0136071Y0040058D01*
X0134834Y0038820D01*
X0134626Y0038318D01*
X0091128Y0038318D01*
X0085110Y0044337D01*
X0134626Y0044337D01*
X0134834Y0043835D01*
X0136071Y0042597D01*
X0137689Y0041928D01*
X0145439Y0041928D01*
X0147056Y0042597D01*
X0148294Y0043835D01*
X0148964Y0045452D01*
X0148964Y0047203D01*
X0148338Y0048713D01*
X0148422Y0048713D01*
X0149769Y0050060D01*
X0149769Y0051965D01*
X0149460Y0052275D01*
X0149460Y0099170D01*
X0150585Y0099170D01*
X0152304Y0099882D01*
X0152369Y0099946D01*
X0152369Y0094813D01*
X0151819Y0094585D01*
X0150582Y0093348D01*
X0149912Y0091730D01*
X0149912Y0089980D01*
X0150582Y0088363D01*
X0151819Y0087125D01*
X0153437Y0086455D01*
X0161187Y0086455D01*
X0162804Y0087125D01*
X0164042Y0088363D01*
X0164712Y0089980D01*
X0164712Y0091730D01*
X0164042Y0093348D01*
X0162804Y0094585D01*
X0161187Y0095255D01*
X0156350Y0095255D01*
X0156350Y0100537D01*
X0157005Y0099882D01*
X0158724Y0099170D01*
X0160585Y0099170D01*
X0162304Y0099882D01*
X0163620Y0101198D01*
X0164332Y0102917D01*
X0164332Y0104778D01*
X0163620Y0106497D01*
X0162304Y0107813D01*
X0160585Y0108525D01*
X0158724Y0108525D01*
X0157005Y0107813D01*
X0156350Y0107158D01*
X0156350Y0109967D01*
X0155184Y0111133D01*
X0154059Y0112258D01*
X0154332Y0112917D01*
X0154332Y0114778D01*
X0153620Y0116497D01*
X0152304Y0117813D01*
X0150585Y0118525D01*
X0148724Y0118525D01*
X0147005Y0117813D01*
X0145689Y0116497D01*
X0144977Y0114778D01*
X0144977Y0112917D01*
X0145689Y0111198D01*
X0147005Y0109882D01*
X0148724Y0109170D01*
X0150585Y0109170D01*
X0151244Y0109443D01*
X0152369Y0108318D01*
X0152369Y0107748D01*
X0152304Y0107813D01*
X0150585Y0108525D01*
X0148724Y0108525D01*
X0147005Y0107813D01*
X0145689Y0106497D01*
X0144977Y0104778D01*
X0144977Y0102917D01*
X0145479Y0101705D01*
X0145479Y0062161D01*
X0144485Y0063155D01*
X0144047Y0063155D01*
X0132238Y0074964D01*
X0131732Y0099645D01*
X0132304Y0099882D01*
X0133620Y0101198D01*
X0134332Y0102917D01*
X0134332Y0104778D01*
X0133620Y0106497D01*
X0132304Y0107813D01*
X0130585Y0108525D01*
X0128724Y0108525D01*
X0127005Y0107813D01*
X0126822Y0107630D01*
X0126822Y0107977D01*
X0126831Y0107987D01*
X0126822Y0108799D01*
X0126822Y0109613D01*
X0126813Y0109622D01*
X0126812Y0109636D01*
X0126231Y0110204D01*
X0125656Y0110779D01*
X0125643Y0110779D01*
X0124079Y0112307D01*
X0124332Y0112917D01*
X0124332Y0114778D01*
X0123620Y0116497D01*
X0122304Y0117813D01*
X0120585Y0118525D01*
X0118724Y0118525D01*
X0117005Y0117813D01*
X0115689Y0116497D01*
X0114977Y0114778D01*
X0114977Y0112917D01*
X0115689Y0111198D01*
X0117005Y0109882D01*
X0118724Y0109170D01*
X0120585Y0109170D01*
X0121293Y0109463D01*
X0122841Y0107950D01*
X0122841Y0107808D01*
X0122316Y0108190D01*
X0121603Y0108553D01*
X0120843Y0108800D01*
X0120054Y0108925D01*
X0119947Y0108925D01*
X0119947Y0104140D01*
X0119362Y0104140D01*
X0119362Y0108925D01*
X0119255Y0108925D01*
X0118465Y0108800D01*
X0117705Y0108553D01*
X0116993Y0108190D01*
X0116985Y0108184D01*
X0116980Y0108642D01*
X0116980Y0109455D01*
X0116970Y0109464D01*
X0116970Y0109477D01*
X0116388Y0110046D01*
X0115813Y0110621D01*
X0115800Y0110621D01*
X0114078Y0112305D01*
X0114332Y0112917D01*
X0114332Y0114778D01*
X0113620Y0116497D01*
X0112304Y0117813D01*
X0110585Y0118525D01*
X0108724Y0118525D01*
X0107005Y0117813D01*
X0105689Y0116497D01*
X0104977Y0114778D01*
X0104977Y0112917D01*
X0105689Y0111198D01*
X0107005Y0109882D01*
X0108724Y0109170D01*
X0110585Y0109170D01*
X0111291Y0109462D01*
X0112998Y0107793D01*
X0112998Y0107118D01*
X0112304Y0107813D01*
X0110585Y0108525D01*
X0108724Y0108525D01*
X0107005Y0107813D01*
X0105689Y0106497D01*
X0104977Y0104778D01*
X0104977Y0102917D01*
X0105689Y0101198D01*
X0107005Y0099882D01*
X0108724Y0099170D01*
X0110585Y0099170D01*
X0112304Y0099882D01*
X0112998Y0100576D01*
X0112998Y0083653D01*
X0116626Y0080025D01*
X0116626Y0079587D01*
X0117973Y0078240D01*
X0119879Y0078240D01*
X0121226Y0079587D01*
X0121226Y0081493D01*
X0119879Y0082840D01*
X0119441Y0082840D01*
X0116980Y0085302D01*
X0116980Y0099514D01*
X0116993Y0099505D01*
X0117705Y0099142D01*
X0118465Y0098895D01*
X0119255Y0098770D01*
X0119362Y0098770D01*
X0119362Y0103555D01*
X0119947Y0103555D01*
X0119947Y0098770D01*
X0120054Y0098770D01*
X0120843Y0098895D01*
X0121603Y0099142D01*
X0122316Y0099505D01*
X0122841Y0099886D01*
X0122841Y0071960D01*
X0122531Y0071650D01*
X0122531Y0069745D01*
X0123879Y0068398D01*
X0125784Y0068398D01*
X0127131Y0069745D01*
X0127131Y0071650D01*
X0126822Y0071960D01*
X0126822Y0100064D01*
X0127005Y0099882D01*
X0127751Y0099573D01*
X0128274Y0074103D01*
X0128274Y0073298D01*
X0128291Y0073281D01*
X0128291Y0073258D01*
X0128871Y0072701D01*
X0133072Y0068500D01*
X0131573Y0069121D01*
X0129822Y0069121D01*
X0128205Y0068451D01*
X0126967Y0067214D01*
X0126298Y0065596D01*
X0126298Y0057846D01*
X0126967Y0056229D01*
X0128205Y0054991D01*
X0129822Y0054321D01*
X0131573Y0054321D01*
X0133190Y0054991D01*
X0134428Y0056229D01*
X0135098Y0057846D01*
X0135098Y0065596D01*
X0134477Y0067096D01*
X0141232Y0060340D01*
X0141232Y0059902D01*
X0142580Y0058555D01*
X0144485Y0058555D01*
X0145479Y0059549D01*
X0145479Y0052275D01*
X0145169Y0051965D01*
X0145169Y0050728D01*
X0137689Y0050728D01*
X0136071Y0050058D01*
X0134834Y0048820D01*
X0134626Y0048318D01*
X0086050Y0048318D01*
X0080047Y0054321D01*
X0081573Y0054321D01*
X0083190Y0054991D01*
X0084428Y0056229D01*
X0085098Y0057846D01*
X0085098Y0065596D01*
X0084428Y0067214D01*
X0083190Y0068451D01*
X0081573Y0069121D01*
X0079822Y0069121D01*
X0078205Y0068451D01*
X0076967Y0067214D01*
X0076298Y0065596D01*
X0076298Y0058070D01*
X0052820Y0081547D01*
X0052820Y0081985D01*
X0051473Y0083332D01*
X0049568Y0083332D01*
X0048220Y0081985D01*
X0048220Y0080080D01*
X0049568Y0078732D01*
X0050005Y0078732D01*
X0060661Y0068076D01*
X0059902Y0068076D01*
X0058555Y0066729D01*
X0058555Y0064824D01*
X0059902Y0063476D01*
X0060340Y0063476D01*
X0080683Y0043133D01*
X0079440Y0043133D01*
X0078099Y0042577D01*
X0077666Y0042145D01*
X0077234Y0042577D01*
X0075892Y0043133D01*
X0074440Y0043133D01*
X0073099Y0042577D01*
X0072666Y0042145D01*
X0072234Y0042577D01*
X0070892Y0043133D01*
X0069440Y0043133D01*
X0068099Y0042577D01*
X0067666Y0042145D01*
X0067234Y0042577D01*
X0065892Y0043133D01*
X0064440Y0043133D01*
X0063099Y0042577D01*
X0062072Y0041551D01*
X0061516Y0040209D01*
X0061516Y0039224D01*
X0060932Y0039224D01*
X0058929Y0041226D01*
X0059302Y0042124D01*
X0059302Y0044153D01*
X0058525Y0046027D01*
X0057090Y0047462D01*
X0055941Y0047938D01*
X0056423Y0048288D01*
X0056957Y0048823D01*
X0057401Y0049434D01*
X0057744Y0050107D01*
X0057978Y0050826D01*
X0058096Y0051572D01*
X0058096Y0054750D01*
X0053496Y0054750D01*
X0053496Y0055150D01*
X0053096Y0055150D01*
X0053096Y0062750D01*
X0052918Y0062750D01*
X0052172Y0062631D01*
X0051453Y0062398D01*
X0050780Y0062055D01*
X0050169Y0061611D01*
X0049635Y0061077D01*
X0049191Y0060465D01*
X0048848Y0059792D01*
X0048614Y0059074D01*
X0048496Y0058327D01*
X0048496Y0055150D01*
X0053096Y0055150D01*
X0053096Y0054750D01*
X0048496Y0054750D01*
X0048496Y0051572D01*
X0048614Y0050826D01*
X0048848Y0050107D01*
X0049191Y0049434D01*
X0049635Y0048823D01*
X0050169Y0048288D01*
X0050780Y0047844D01*
X0051433Y0047512D01*
X0051313Y0047462D01*
X0049878Y0046027D01*
X0049102Y0044153D01*
X0049102Y0042124D01*
X0049878Y0040250D01*
X0051313Y0038815D01*
X0053187Y0038039D01*
X0055216Y0038039D01*
X0056114Y0038411D01*
X0058117Y0036409D01*
X0059283Y0035243D01*
X0061516Y0035243D01*
X0061516Y0034257D01*
X0062072Y0032916D01*
X0062653Y0032334D01*
X0057743Y0032334D01*
X0046113Y0043963D01*
X0044947Y0045129D01*
X0028897Y0045129D01*
X0028525Y0046027D01*
X0027090Y0047462D01*
X0025525Y0048110D01*
X0025788Y0048219D01*
X0027026Y0049457D01*
X0027696Y0051074D01*
X0027696Y0058825D01*
X0027026Y0060442D01*
X0025788Y0061680D01*
X0025287Y0061888D01*
X0025287Y0075586D01*
X0048151Y0099407D01*
X0048724Y0099170D01*
X0050585Y0099170D01*
X0052304Y0099882D01*
X0053620Y0101198D01*
X0054332Y0102917D01*
X0054332Y0104778D01*
X0053620Y0106497D01*
X0052304Y0107813D01*
X0050585Y0108525D01*
X0048724Y0108525D01*
X0047005Y0107813D01*
X0045689Y0106497D01*
X0044977Y0104778D01*
X0044977Y0102917D01*
X0045286Y0102171D01*
X0021874Y0077780D01*
X0021306Y0077211D01*
X0021306Y0077187D01*
X0021289Y0077170D01*
X0021306Y0076366D01*
X0021306Y0061888D01*
X0020804Y0061680D01*
X0019566Y0060442D01*
X0018896Y0058825D01*
X0018896Y0051074D01*
X0019566Y0049457D01*
X0020804Y0048219D01*
X0021972Y0047735D01*
X0021313Y0047462D01*
X0019878Y0046027D01*
X0019102Y0044153D01*
X0019102Y0042124D01*
X0019878Y0040250D01*
X0021313Y0038815D01*
X0023187Y0038039D01*
X0025216Y0038039D01*
X0027090Y0038815D01*
X0028525Y0040250D01*
X0028897Y0041148D01*
X0043298Y0041148D01*
X0054928Y0029519D01*
X0056094Y0028353D01*
X0118101Y0028353D01*
X0125794Y0020661D01*
X0126960Y0019494D01*
X0134943Y0019494D01*
X0134903Y0019455D01*
X0134458Y0018843D01*
X0134115Y0018170D01*
X0133882Y0017452D01*
X0133764Y0016705D01*
X0133764Y0016528D01*
X0141364Y0016528D01*
X0141364Y0016128D01*
X0133764Y0016128D01*
X0133764Y0015950D01*
X0133882Y0015204D01*
X0134115Y0014485D01*
X0134458Y0013812D01*
X0134903Y0013201D01*
X0135437Y0012666D01*
X0135461Y0012649D01*
X0088829Y0012649D01*
X0088829Y0014625D01*
X0088053Y0016500D01*
X0086618Y0017935D01*
X0086363Y0018040D01*
X0086618Y0018146D01*
X0088053Y0019580D01*
X0088829Y0021455D01*
X0088829Y0023484D01*
X0088053Y0025358D01*
X0086618Y0026793D01*
X0084744Y0027569D01*
X0082715Y0027569D01*
X0080840Y0026793D01*
X0079406Y0025358D01*
X0078629Y0023484D01*
X0078629Y0021455D01*
X0079406Y0019580D01*
X0080840Y0018146D01*
X0081095Y0018040D01*
X0080840Y0017935D01*
X0079406Y0016500D01*
X0078629Y0014625D01*
X0078629Y0012597D01*
X0079406Y0010722D01*
X0080840Y0009287D01*
X0079595Y0010533D02*
X0057863Y0010533D01*
X0058636Y0012131D02*
X0078822Y0012131D01*
X0078629Y0013730D02*
X0058829Y0013730D01*
X0058538Y0015328D02*
X0078920Y0015328D01*
X0079832Y0016927D02*
X0057626Y0016927D01*
X0056997Y0018525D02*
X0080461Y0018525D01*
X0079181Y0020124D02*
X0058278Y0020124D01*
X0058829Y0021722D02*
X0078629Y0021722D01*
X0078629Y0023321D02*
X0058829Y0023321D01*
X0058235Y0024919D02*
X0079224Y0024919D01*
X0080565Y0026518D02*
X0056893Y0026518D01*
X0054928Y0029519D02*
X0054928Y0029519D01*
X0054732Y0029715D02*
X0046994Y0029715D01*
X0047259Y0030355D02*
X0046483Y0028480D01*
X0045048Y0027046D01*
X0043174Y0026269D01*
X0041145Y0026269D01*
X0039270Y0027046D01*
X0037835Y0028480D01*
X0037059Y0030355D01*
X0037059Y0032384D01*
X0037835Y0034258D01*
X0039270Y0035693D01*
X0041145Y0036469D01*
X0043174Y0036469D01*
X0045048Y0035693D01*
X0046483Y0034258D01*
X0047259Y0032384D01*
X0047259Y0030355D01*
X0047259Y0031313D02*
X0053133Y0031313D01*
X0051535Y0032912D02*
X0047040Y0032912D01*
X0046231Y0034510D02*
X0049936Y0034510D01*
X0048338Y0036109D02*
X0044044Y0036109D01*
X0040274Y0036109D02*
X0018444Y0036109D01*
X0017574Y0036469D02*
X0015545Y0036469D01*
X0013670Y0035693D01*
X0012235Y0034258D01*
X0011459Y0032384D01*
X0011459Y0030355D01*
X0012235Y0028480D01*
X0013670Y0027046D01*
X0015545Y0026269D01*
X0017574Y0026269D01*
X0019448Y0027046D01*
X0020883Y0028480D01*
X0021659Y0030355D01*
X0021659Y0032384D01*
X0020883Y0034258D01*
X0019448Y0035693D01*
X0017574Y0036469D01*
X0014674Y0036109D02*
X0007537Y0036109D01*
X0007537Y0034510D02*
X0012487Y0034510D01*
X0011678Y0032912D02*
X0007537Y0032912D01*
X0007537Y0031313D02*
X0011459Y0031313D01*
X0011724Y0029715D02*
X0007537Y0029715D01*
X0007537Y0028116D02*
X0012600Y0028116D01*
X0014945Y0026518D02*
X0007537Y0026518D01*
X0007537Y0024919D02*
X0049224Y0024919D01*
X0050565Y0026518D02*
X0043773Y0026518D01*
X0046118Y0028116D02*
X0118338Y0028116D01*
X0119937Y0026518D02*
X0086893Y0026518D01*
X0088235Y0024919D02*
X0121535Y0024919D01*
X0125567Y0026518D02*
X0134164Y0026518D01*
X0134385Y0024919D02*
X0127165Y0024919D01*
X0123134Y0023321D02*
X0088829Y0023321D01*
X0088829Y0021722D02*
X0124732Y0021722D01*
X0126331Y0020124D02*
X0088278Y0020124D01*
X0086997Y0018525D02*
X0134296Y0018525D01*
X0133799Y0016927D02*
X0087626Y0016927D01*
X0088538Y0015328D02*
X0133862Y0015328D01*
X0134518Y0013730D02*
X0088829Y0013730D01*
X0122370Y0029715D02*
X0135728Y0029715D01*
X0134542Y0028116D02*
X0123968Y0028116D01*
X0120771Y0031313D02*
X0149912Y0031313D01*
X0149912Y0031730D02*
X0149912Y0029980D01*
X0150582Y0028363D01*
X0151819Y0027125D01*
X0153437Y0026455D01*
X0161187Y0026455D01*
X0162804Y0027125D01*
X0164042Y0028363D01*
X0164712Y0029980D01*
X0164712Y0031730D01*
X0164042Y0033348D01*
X0162804Y0034585D01*
X0161187Y0035255D01*
X0153437Y0035255D01*
X0151819Y0034585D01*
X0150582Y0033348D01*
X0149912Y0031730D01*
X0150401Y0032912D02*
X0147370Y0032912D01*
X0148574Y0034510D02*
X0151744Y0034510D01*
X0152469Y0036407D02*
X0153188Y0036173D01*
X0153934Y0036055D01*
X0157112Y0036055D01*
X0157112Y0040655D01*
X0157512Y0040655D01*
X0157512Y0041055D01*
X0165112Y0041055D01*
X0165112Y0041233D01*
X0164994Y0041979D01*
X0164760Y0042698D01*
X0164417Y0043371D01*
X0163973Y0043982D01*
X0163439Y0044516D01*
X0162828Y0044960D01*
X0162154Y0045303D01*
X0161436Y0045537D01*
X0160690Y0045655D01*
X0157512Y0045655D01*
X0157512Y0041055D01*
X0157112Y0041055D01*
X0157112Y0045655D01*
X0153934Y0045655D01*
X0153188Y0045537D01*
X0152469Y0045303D01*
X0151796Y0044960D01*
X0151185Y0044516D01*
X0150651Y0043982D01*
X0150206Y0043371D01*
X0149863Y0042698D01*
X0149630Y0041979D01*
X0149512Y0041233D01*
X0149512Y0041055D01*
X0157112Y0041055D01*
X0157112Y0040655D01*
X0149512Y0040655D01*
X0149512Y0040477D01*
X0149630Y0039731D01*
X0149863Y0039013D01*
X0150206Y0038339D01*
X0150651Y0037728D01*
X0151185Y0037194D01*
X0151796Y0036750D01*
X0152469Y0036407D01*
X0153596Y0036109D02*
X0148964Y0036109D01*
X0148755Y0037707D02*
X0150671Y0037707D01*
X0149768Y0039306D02*
X0147808Y0039306D01*
X0146828Y0042503D02*
X0149800Y0042503D01*
X0150770Y0044101D02*
X0148404Y0044101D01*
X0148964Y0045700D02*
X0259843Y0045700D01*
X0259843Y0047298D02*
X0162978Y0047298D01*
X0162804Y0047125D02*
X0164042Y0048363D01*
X0164712Y0049980D01*
X0164712Y0051730D01*
X0164042Y0053348D01*
X0162804Y0054585D01*
X0161187Y0055255D01*
X0153437Y0055255D01*
X0151819Y0054585D01*
X0150582Y0053348D01*
X0149912Y0051730D01*
X0149912Y0049980D01*
X0150582Y0048363D01*
X0151819Y0047125D01*
X0153437Y0046455D01*
X0161187Y0046455D01*
X0162804Y0047125D01*
X0164263Y0048897D02*
X0259843Y0048897D01*
X0259843Y0050495D02*
X0164712Y0050495D01*
X0164561Y0052094D02*
X0259843Y0052094D01*
X0259843Y0053692D02*
X0163697Y0053692D01*
X0162235Y0056889D02*
X0259843Y0056889D01*
X0259843Y0055291D02*
X0149460Y0055291D01*
X0149460Y0056889D02*
X0152388Y0056889D01*
X0151819Y0057125D02*
X0153437Y0056455D01*
X0161187Y0056455D01*
X0162804Y0057125D01*
X0164042Y0058363D01*
X0164712Y0059980D01*
X0164712Y0061730D01*
X0164042Y0063348D01*
X0162804Y0064585D01*
X0161187Y0065255D01*
X0153437Y0065255D01*
X0151819Y0064585D01*
X0150582Y0063348D01*
X0149912Y0061730D01*
X0149912Y0059980D01*
X0150582Y0058363D01*
X0151819Y0057125D01*
X0150530Y0058488D02*
X0149460Y0058488D01*
X0149460Y0060086D02*
X0149912Y0060086D01*
X0149912Y0061685D02*
X0149460Y0061685D01*
X0149460Y0063283D02*
X0150555Y0063283D01*
X0149460Y0064882D02*
X0152536Y0064882D01*
X0153375Y0066480D02*
X0149460Y0066480D01*
X0149460Y0068079D02*
X0150865Y0068079D01*
X0150582Y0068363D02*
X0151819Y0067125D01*
X0153437Y0066455D01*
X0161187Y0066455D01*
X0162804Y0067125D01*
X0164042Y0068363D01*
X0164712Y0069980D01*
X0164712Y0071730D01*
X0164042Y0073348D01*
X0162804Y0074585D01*
X0161187Y0075255D01*
X0153437Y0075255D01*
X0151819Y0074585D01*
X0150582Y0073348D01*
X0149912Y0071730D01*
X0149912Y0069980D01*
X0150582Y0068363D01*
X0150037Y0069677D02*
X0149460Y0069677D01*
X0145479Y0069677D02*
X0137525Y0069677D01*
X0139123Y0068079D02*
X0145479Y0068079D01*
X0145479Y0066480D02*
X0140722Y0066480D01*
X0142321Y0064882D02*
X0145479Y0064882D01*
X0145479Y0063283D02*
X0143919Y0063283D01*
X0139887Y0061685D02*
X0135098Y0061685D01*
X0135098Y0063283D02*
X0138289Y0063283D01*
X0136690Y0064882D02*
X0135098Y0064882D01*
X0135092Y0066480D02*
X0134731Y0066480D01*
X0131895Y0069677D02*
X0127064Y0069677D01*
X0127833Y0068079D02*
X0123562Y0068079D01*
X0123190Y0068451D02*
X0121573Y0069121D01*
X0119822Y0069121D01*
X0118205Y0068451D01*
X0116967Y0067214D01*
X0116298Y0065596D01*
X0116298Y0057846D01*
X0116967Y0056229D01*
X0118205Y0054991D01*
X0119822Y0054321D01*
X0121573Y0054321D01*
X0123190Y0054991D01*
X0124428Y0056229D01*
X0125098Y0057846D01*
X0125098Y0065596D01*
X0124428Y0067214D01*
X0123190Y0068451D01*
X0122599Y0069677D02*
X0112688Y0069677D01*
X0112688Y0068659D02*
X0112688Y0071876D01*
X0111522Y0073043D01*
X0087452Y0097113D01*
X0086960Y0097605D01*
X0086960Y0099927D01*
X0087005Y0099882D01*
X0088724Y0099170D01*
X0090585Y0099170D01*
X0092304Y0099882D01*
X0093620Y0101198D01*
X0094332Y0102917D01*
X0094332Y0104778D01*
X0093620Y0106497D01*
X0092304Y0107813D01*
X0090585Y0108525D01*
X0088724Y0108525D01*
X0087005Y0107813D01*
X0086960Y0107768D01*
X0086960Y0109357D01*
X0085794Y0110523D01*
X0084059Y0112258D01*
X0084332Y0112917D01*
X0084332Y0114778D01*
X0083620Y0116497D01*
X0082304Y0117813D01*
X0080585Y0118525D01*
X0078724Y0118525D01*
X0077005Y0117813D01*
X0075689Y0116497D01*
X0074977Y0114778D01*
X0074977Y0112917D01*
X0075689Y0111198D01*
X0077005Y0109882D01*
X0078724Y0109170D01*
X0080585Y0109170D01*
X0081244Y0109443D01*
X0082979Y0107708D01*
X0082979Y0107138D01*
X0082304Y0107813D01*
X0080585Y0108525D01*
X0078724Y0108525D01*
X0077005Y0107813D01*
X0076625Y0107433D01*
X0076625Y0109691D01*
X0075459Y0110857D01*
X0074059Y0112258D01*
X0074332Y0112917D01*
X0074332Y0114778D01*
X0073620Y0116497D01*
X0072304Y0117813D01*
X0070585Y0118525D01*
X0068724Y0118525D01*
X0067005Y0117813D01*
X0065689Y0116497D01*
X0064977Y0114778D01*
X0064977Y0112917D01*
X0065689Y0111198D01*
X0067005Y0109882D01*
X0068724Y0109170D01*
X0070585Y0109170D01*
X0071244Y0109443D01*
X0072644Y0108042D01*
X0071751Y0108042D01*
X0072304Y0107813D02*
X0070585Y0108525D01*
X0068724Y0108525D01*
X0067005Y0107813D01*
X0065689Y0106497D01*
X0064977Y0104778D01*
X0064977Y0102917D01*
X0065689Y0101198D01*
X0067005Y0099882D01*
X0068724Y0099170D01*
X0070585Y0099170D01*
X0072304Y0099882D01*
X0072644Y0100222D01*
X0072644Y0096448D01*
X0073810Y0095282D01*
X0073810Y0095282D01*
X0098707Y0070385D01*
X0098707Y0068659D01*
X0098205Y0068451D01*
X0096967Y0067214D01*
X0096298Y0065596D01*
X0096298Y0057846D01*
X0096967Y0056229D01*
X0098205Y0054991D01*
X0099822Y0054321D01*
X0101573Y0054321D01*
X0103190Y0054991D01*
X0104428Y0056229D01*
X0105098Y0057846D01*
X0105098Y0065596D01*
X0104428Y0067214D01*
X0103190Y0068451D01*
X0102688Y0068659D01*
X0102688Y0072034D01*
X0101522Y0073200D01*
X0076625Y0098097D01*
X0076625Y0100261D01*
X0077005Y0099882D01*
X0078724Y0099170D01*
X0080585Y0099170D01*
X0082304Y0099882D01*
X0082979Y0100557D01*
X0082979Y0095956D01*
X0084637Y0094298D01*
X0108707Y0070227D01*
X0108707Y0068659D01*
X0108205Y0068451D01*
X0106967Y0067214D01*
X0106298Y0065596D01*
X0106298Y0057846D01*
X0106967Y0056229D01*
X0108205Y0054991D01*
X0109822Y0054321D01*
X0111573Y0054321D01*
X0113190Y0054991D01*
X0114428Y0056229D01*
X0115098Y0057846D01*
X0115098Y0065596D01*
X0114428Y0067214D01*
X0113190Y0068451D01*
X0112688Y0068659D01*
X0113562Y0068079D02*
X0117833Y0068079D01*
X0116664Y0066480D02*
X0114731Y0066480D01*
X0115098Y0064882D02*
X0116298Y0064882D01*
X0116298Y0063283D02*
X0115098Y0063283D01*
X0115098Y0061685D02*
X0116298Y0061685D01*
X0116298Y0060086D02*
X0115098Y0060086D01*
X0115098Y0058488D02*
X0116298Y0058488D01*
X0116694Y0056889D02*
X0114701Y0056889D01*
X0113490Y0055291D02*
X0117905Y0055291D01*
X0123490Y0055291D02*
X0127905Y0055291D01*
X0126694Y0056889D02*
X0124701Y0056889D01*
X0125098Y0058488D02*
X0126298Y0058488D01*
X0126298Y0060086D02*
X0125098Y0060086D01*
X0125098Y0061685D02*
X0126298Y0061685D01*
X0126298Y0063283D02*
X0125098Y0063283D01*
X0125098Y0064882D02*
X0126298Y0064882D01*
X0126664Y0066480D02*
X0124731Y0066480D01*
X0122531Y0071276D02*
X0112688Y0071276D01*
X0111690Y0072874D02*
X0122841Y0072874D01*
X0122841Y0074473D02*
X0110092Y0074473D01*
X0108493Y0076072D02*
X0122841Y0076072D01*
X0122841Y0077670D02*
X0106895Y0077670D01*
X0102863Y0076072D02*
X0098651Y0076072D01*
X0097052Y0077670D02*
X0101265Y0077670D01*
X0099666Y0079269D02*
X0095454Y0079269D01*
X0093855Y0080867D02*
X0098067Y0080867D01*
X0096469Y0082466D02*
X0092257Y0082466D01*
X0090658Y0084064D02*
X0094870Y0084064D01*
X0093272Y0085663D02*
X0089060Y0085663D01*
X0087461Y0087261D02*
X0091673Y0087261D01*
X0090075Y0088860D02*
X0085863Y0088860D01*
X0084264Y0090458D02*
X0088476Y0090458D01*
X0086878Y0092057D02*
X0082666Y0092057D01*
X0081067Y0093655D02*
X0085279Y0093655D01*
X0084637Y0094298D02*
X0084637Y0094298D01*
X0083681Y0095254D02*
X0079468Y0095254D01*
X0077870Y0096852D02*
X0082979Y0096852D01*
X0082979Y0098451D02*
X0076625Y0098451D01*
X0072644Y0098451D02*
X0057234Y0098451D01*
X0058151Y0099407D02*
X0058724Y0099170D01*
X0060585Y0099170D01*
X0062304Y0099882D01*
X0063620Y0101198D01*
X0064332Y0102917D01*
X0064332Y0104778D01*
X0063620Y0106497D01*
X0062304Y0107813D01*
X0060585Y0108525D01*
X0058724Y0108525D01*
X0057005Y0107813D01*
X0055689Y0106497D01*
X0054977Y0104778D01*
X0054977Y0102917D01*
X0055286Y0102171D01*
X0031874Y0077780D01*
X0031306Y0077211D01*
X0031306Y0077187D01*
X0031289Y0077170D01*
X0031306Y0076366D01*
X0031306Y0061888D01*
X0030804Y0061680D01*
X0029566Y0060442D01*
X0028896Y0058825D01*
X0028896Y0051074D01*
X0029566Y0049457D01*
X0030804Y0048219D01*
X0032421Y0047550D01*
X0034171Y0047550D01*
X0035788Y0048219D01*
X0037026Y0049457D01*
X0037696Y0051074D01*
X0037696Y0058825D01*
X0037026Y0060442D01*
X0035788Y0061680D01*
X0035287Y0061888D01*
X0035287Y0075586D01*
X0058151Y0099407D01*
X0055699Y0096852D02*
X0072644Y0096852D01*
X0073838Y0095254D02*
X0054165Y0095254D01*
X0052630Y0093655D02*
X0075437Y0093655D01*
X0077035Y0092057D02*
X0051096Y0092057D01*
X0049562Y0090458D02*
X0078634Y0090458D01*
X0080232Y0088860D02*
X0048027Y0088860D01*
X0046493Y0087261D02*
X0081831Y0087261D01*
X0083429Y0085663D02*
X0044959Y0085663D01*
X0040975Y0087261D02*
X0036493Y0087261D01*
X0034959Y0085663D02*
X0039441Y0085663D01*
X0037906Y0084064D02*
X0033424Y0084064D01*
X0031890Y0082466D02*
X0036372Y0082466D01*
X0034838Y0080867D02*
X0030356Y0080867D01*
X0028821Y0079269D02*
X0033303Y0079269D01*
X0031764Y0077670D02*
X0027287Y0077670D01*
X0025753Y0076072D02*
X0031306Y0076072D01*
X0031306Y0074473D02*
X0025287Y0074473D01*
X0025287Y0072874D02*
X0031306Y0072874D01*
X0031306Y0071276D02*
X0025287Y0071276D01*
X0025287Y0069677D02*
X0031306Y0069677D01*
X0031306Y0068079D02*
X0025287Y0068079D01*
X0025287Y0066480D02*
X0031306Y0066480D01*
X0031306Y0064882D02*
X0025287Y0064882D01*
X0025287Y0063283D02*
X0031306Y0063283D01*
X0030816Y0061685D02*
X0025776Y0061685D01*
X0027173Y0060086D02*
X0029419Y0060086D01*
X0028896Y0058488D02*
X0027696Y0058488D01*
X0027696Y0056889D02*
X0028896Y0056889D01*
X0028896Y0055291D02*
X0027696Y0055291D01*
X0027696Y0053692D02*
X0028896Y0053692D01*
X0028896Y0052094D02*
X0027696Y0052094D01*
X0027456Y0050495D02*
X0029136Y0050495D01*
X0030126Y0048897D02*
X0026466Y0048897D01*
X0027254Y0047298D02*
X0051149Y0047298D01*
X0049742Y0045700D02*
X0028661Y0045700D01*
X0021149Y0047298D02*
X0007537Y0047298D01*
X0007537Y0045700D02*
X0019742Y0045700D01*
X0019102Y0044101D02*
X0007537Y0044101D01*
X0007537Y0042503D02*
X0019102Y0042503D01*
X0019607Y0040904D02*
X0007537Y0040904D01*
X0007537Y0039306D02*
X0020822Y0039306D01*
X0027581Y0039306D02*
X0045141Y0039306D01*
X0046739Y0037707D02*
X0007537Y0037707D01*
X0020631Y0034510D02*
X0038087Y0034510D01*
X0037278Y0032912D02*
X0021440Y0032912D01*
X0021659Y0031313D02*
X0037059Y0031313D01*
X0037324Y0029715D02*
X0021394Y0029715D01*
X0020518Y0028116D02*
X0038200Y0028116D01*
X0040545Y0026518D02*
X0018173Y0026518D01*
X0007537Y0023321D02*
X0048629Y0023321D01*
X0048629Y0021722D02*
X0007537Y0021722D01*
X0007537Y0020124D02*
X0049181Y0020124D01*
X0038304Y0016927D02*
X0020414Y0016927D01*
X0021351Y0015328D02*
X0037367Y0015328D01*
X0037059Y0013730D02*
X0021659Y0013730D01*
X0021484Y0012131D02*
X0037235Y0012131D01*
X0037983Y0010533D02*
X0020735Y0010533D01*
X0018695Y0008934D02*
X0040023Y0008934D01*
X0057165Y0032912D02*
X0062076Y0032912D01*
X0061516Y0034510D02*
X0055566Y0034510D01*
X0053968Y0036109D02*
X0058416Y0036109D01*
X0056818Y0037707D02*
X0052369Y0037707D01*
X0050822Y0039306D02*
X0050771Y0039306D01*
X0049607Y0040904D02*
X0049172Y0040904D01*
X0049102Y0042503D02*
X0047574Y0042503D01*
X0046113Y0043963D02*
X0046113Y0043963D01*
X0045975Y0044101D02*
X0049102Y0044101D01*
X0045788Y0048219D02*
X0044171Y0047550D01*
X0042421Y0047550D01*
X0040804Y0048219D01*
X0039566Y0049457D01*
X0038896Y0051074D01*
X0038896Y0058825D01*
X0039566Y0060442D01*
X0040804Y0061680D01*
X0042421Y0062350D01*
X0044171Y0062350D01*
X0045788Y0061680D01*
X0047026Y0060442D01*
X0047696Y0058825D01*
X0047696Y0051074D01*
X0047026Y0049457D01*
X0045788Y0048219D01*
X0046466Y0048897D02*
X0049581Y0048897D01*
X0048722Y0050495D02*
X0047456Y0050495D01*
X0047696Y0052094D02*
X0048496Y0052094D01*
X0048496Y0053692D02*
X0047696Y0053692D01*
X0047696Y0055291D02*
X0048496Y0055291D01*
X0048496Y0056889D02*
X0047696Y0056889D01*
X0047696Y0058488D02*
X0048521Y0058488D01*
X0048998Y0060086D02*
X0047173Y0060086D01*
X0045776Y0061685D02*
X0050271Y0061685D01*
X0053096Y0061685D02*
X0053496Y0061685D01*
X0053496Y0062750D02*
X0053496Y0055150D01*
X0058096Y0055150D01*
X0058096Y0058327D01*
X0057978Y0059074D01*
X0057744Y0059792D01*
X0057401Y0060465D01*
X0056957Y0061077D01*
X0056423Y0061611D01*
X0055812Y0062055D01*
X0055139Y0062398D01*
X0054420Y0062631D01*
X0053674Y0062750D01*
X0053496Y0062750D01*
X0053496Y0060086D02*
X0053096Y0060086D01*
X0053096Y0058488D02*
X0053496Y0058488D01*
X0053496Y0056889D02*
X0053096Y0056889D01*
X0053096Y0055291D02*
X0053496Y0055291D01*
X0058096Y0055291D02*
X0068526Y0055291D01*
X0070124Y0053692D02*
X0058096Y0053692D01*
X0058096Y0052094D02*
X0071723Y0052094D01*
X0073321Y0050495D02*
X0057871Y0050495D01*
X0057011Y0048897D02*
X0074920Y0048897D01*
X0076518Y0047298D02*
X0057254Y0047298D01*
X0058661Y0045700D02*
X0078117Y0045700D01*
X0079715Y0044101D02*
X0059302Y0044101D01*
X0059302Y0042503D02*
X0063024Y0042503D01*
X0061804Y0040904D02*
X0059251Y0040904D01*
X0060849Y0039306D02*
X0061516Y0039306D01*
X0067308Y0042503D02*
X0068024Y0042503D01*
X0072308Y0042503D02*
X0073024Y0042503D01*
X0077308Y0042503D02*
X0078024Y0042503D01*
X0083816Y0039306D02*
X0084511Y0039306D01*
X0083816Y0037707D02*
X0086109Y0037707D01*
X0090141Y0039306D02*
X0135319Y0039306D01*
X0136300Y0042503D02*
X0086944Y0042503D01*
X0088542Y0040904D02*
X0157112Y0040904D01*
X0157512Y0040904D02*
X0259843Y0040904D01*
X0259843Y0039306D02*
X0164855Y0039306D01*
X0164760Y0039013D02*
X0164994Y0039731D01*
X0165112Y0040477D01*
X0165112Y0040655D01*
X0157512Y0040655D01*
X0157512Y0036055D01*
X0160690Y0036055D01*
X0161436Y0036173D01*
X0162154Y0036407D01*
X0162828Y0036750D01*
X0163439Y0037194D01*
X0163973Y0037728D01*
X0164417Y0038339D01*
X0164760Y0039013D01*
X0163952Y0037707D02*
X0259843Y0037707D01*
X0259843Y0036109D02*
X0161028Y0036109D01*
X0162879Y0034510D02*
X0259843Y0034510D01*
X0259843Y0032912D02*
X0164222Y0032912D01*
X0164712Y0031313D02*
X0259843Y0031313D01*
X0259843Y0029715D02*
X0164602Y0029715D01*
X0163795Y0028116D02*
X0259843Y0028116D01*
X0259843Y0026518D02*
X0161338Y0026518D01*
X0153286Y0026518D02*
X0148964Y0026518D01*
X0148743Y0024919D02*
X0259843Y0024919D01*
X0259843Y0023321D02*
X0235501Y0023321D01*
X0236383Y0021722D02*
X0259843Y0021722D01*
X0259843Y0020124D02*
X0235975Y0020124D01*
X0227005Y0012131D02*
X0258118Y0012131D01*
X0258987Y0013730D02*
X0148609Y0013730D01*
X0149265Y0015328D02*
X0259507Y0015328D01*
X0259719Y0015982D02*
X0259719Y0015982D01*
X0259794Y0016927D02*
X0149329Y0016927D01*
X0148831Y0018525D02*
X0259843Y0018525D01*
X0256956Y0010533D02*
X0227525Y0010533D01*
X0226754Y0008934D02*
X0254797Y0008934D01*
X0259843Y0042503D02*
X0164823Y0042503D01*
X0163854Y0044101D02*
X0259843Y0044101D01*
X0259843Y0058488D02*
X0164094Y0058488D01*
X0164712Y0060086D02*
X0259843Y0060086D01*
X0259843Y0061685D02*
X0164712Y0061685D01*
X0164069Y0063283D02*
X0259843Y0063283D01*
X0259843Y0064882D02*
X0162088Y0064882D01*
X0161248Y0066480D02*
X0259843Y0066480D01*
X0259843Y0068079D02*
X0163758Y0068079D01*
X0164587Y0069677D02*
X0259843Y0069677D01*
X0259843Y0071276D02*
X0164712Y0071276D01*
X0164238Y0072874D02*
X0259843Y0072874D01*
X0259843Y0074473D02*
X0162916Y0074473D01*
X0161187Y0076455D02*
X0162804Y0077125D01*
X0164042Y0078363D01*
X0164712Y0079980D01*
X0164712Y0081730D01*
X0164042Y0083348D01*
X0162804Y0084585D01*
X0161187Y0085255D01*
X0153437Y0085255D01*
X0151819Y0084585D01*
X0150582Y0083348D01*
X0149912Y0081730D01*
X0149912Y0079980D01*
X0150582Y0078363D01*
X0151819Y0077125D01*
X0153437Y0076455D01*
X0161187Y0076455D01*
X0163349Y0077670D02*
X0259843Y0077670D01*
X0259843Y0076072D02*
X0149460Y0076072D01*
X0149460Y0077670D02*
X0151274Y0077670D01*
X0150206Y0079269D02*
X0149460Y0079269D01*
X0149460Y0080867D02*
X0149912Y0080867D01*
X0150216Y0082466D02*
X0149460Y0082466D01*
X0149460Y0084064D02*
X0151298Y0084064D01*
X0149460Y0085663D02*
X0259843Y0085663D01*
X0259843Y0087261D02*
X0162940Y0087261D01*
X0164248Y0088860D02*
X0259843Y0088860D01*
X0259843Y0090458D02*
X0164712Y0090458D01*
X0164577Y0092057D02*
X0259843Y0092057D01*
X0259843Y0093655D02*
X0163734Y0093655D01*
X0161191Y0095254D02*
X0259843Y0095254D01*
X0259843Y0096852D02*
X0156350Y0096852D01*
X0156350Y0098451D02*
X0259843Y0098451D01*
X0259843Y0100049D02*
X0232471Y0100049D01*
X0232304Y0099882D02*
X0233620Y0101198D01*
X0234332Y0102917D01*
X0234332Y0104778D01*
X0233620Y0106497D01*
X0232304Y0107813D01*
X0230585Y0108525D01*
X0228724Y0108525D01*
X0227005Y0107813D01*
X0225689Y0106497D01*
X0224977Y0104778D01*
X0224977Y0102917D01*
X0225689Y0101198D01*
X0227005Y0099882D01*
X0228724Y0099170D01*
X0230585Y0099170D01*
X0232304Y0099882D01*
X0233806Y0101648D02*
X0259843Y0101648D01*
X0259843Y0103246D02*
X0234332Y0103246D01*
X0234304Y0104845D02*
X0259843Y0104845D01*
X0259843Y0106443D02*
X0233642Y0106443D01*
X0231751Y0108042D02*
X0259843Y0108042D01*
X0259843Y0109640D02*
X0231721Y0109640D01*
X0232304Y0109882D02*
X0233620Y0111198D01*
X0234332Y0112917D01*
X0234332Y0114778D01*
X0233620Y0116497D01*
X0232304Y0117813D01*
X0230585Y0118525D01*
X0228724Y0118525D01*
X0227005Y0117813D01*
X0225689Y0116497D01*
X0224977Y0114778D01*
X0224977Y0112917D01*
X0225689Y0111198D01*
X0227005Y0109882D01*
X0228724Y0109170D01*
X0230585Y0109170D01*
X0232304Y0109882D01*
X0233637Y0111239D02*
X0259843Y0111239D01*
X0259779Y0112837D02*
X0234299Y0112837D01*
X0234332Y0114436D02*
X0259448Y0114436D01*
X0258929Y0116034D02*
X0233811Y0116034D01*
X0232484Y0117633D02*
X0257987Y0117633D01*
X0256750Y0119231D02*
X0010629Y0119231D01*
X0012829Y0120830D02*
X0254550Y0120830D01*
X0227588Y0109640D02*
X0221721Y0109640D01*
X0222304Y0109882D02*
X0220585Y0109170D01*
X0218724Y0109170D01*
X0217005Y0109882D01*
X0215689Y0111198D01*
X0214977Y0112917D01*
X0214977Y0114778D01*
X0215689Y0116497D01*
X0217005Y0117813D01*
X0218724Y0118525D01*
X0220585Y0118525D01*
X0222304Y0117813D01*
X0223620Y0116497D01*
X0224332Y0114778D01*
X0224332Y0112917D01*
X0223620Y0111198D01*
X0222304Y0109882D01*
X0223637Y0111239D02*
X0225672Y0111239D01*
X0225010Y0112837D02*
X0224299Y0112837D01*
X0224332Y0114436D02*
X0224977Y0114436D01*
X0225497Y0116034D02*
X0223811Y0116034D01*
X0222484Y0117633D02*
X0226825Y0117633D01*
X0216825Y0117633D02*
X0212484Y0117633D01*
X0212304Y0117813D02*
X0210585Y0118525D01*
X0208724Y0118525D01*
X0207005Y0117813D01*
X0205689Y0116497D01*
X0204977Y0114778D01*
X0204977Y0112917D01*
X0205689Y0111198D01*
X0207005Y0109882D01*
X0208724Y0109170D01*
X0210585Y0109170D01*
X0212304Y0109882D01*
X0213620Y0111198D01*
X0214332Y0112917D01*
X0214332Y0114778D01*
X0213620Y0116497D01*
X0212304Y0117813D01*
X0213811Y0116034D02*
X0215497Y0116034D01*
X0214977Y0114436D02*
X0214332Y0114436D01*
X0214299Y0112837D02*
X0215010Y0112837D01*
X0215672Y0111239D02*
X0213637Y0111239D01*
X0211721Y0109640D02*
X0217588Y0109640D01*
X0218724Y0108525D02*
X0217005Y0107813D01*
X0215689Y0106497D01*
X0214977Y0104778D01*
X0214977Y0102917D01*
X0215689Y0101198D01*
X0217005Y0099882D01*
X0218724Y0099170D01*
X0220585Y0099170D01*
X0222304Y0099882D01*
X0223620Y0101198D01*
X0224332Y0102917D01*
X0224332Y0104778D01*
X0223620Y0106497D01*
X0222304Y0107813D01*
X0220585Y0108525D01*
X0218724Y0108525D01*
X0217558Y0108042D02*
X0211751Y0108042D01*
X0212304Y0107813D02*
X0210585Y0108525D01*
X0208724Y0108525D01*
X0207005Y0107813D01*
X0205689Y0106497D01*
X0204977Y0104778D01*
X0204977Y0102917D01*
X0205689Y0101198D01*
X0207005Y0099882D01*
X0208724Y0099170D01*
X0210585Y0099170D01*
X0212304Y0099882D01*
X0213620Y0101198D01*
X0214332Y0102917D01*
X0214332Y0104778D01*
X0213620Y0106497D01*
X0212304Y0107813D01*
X0213642Y0106443D02*
X0215667Y0106443D01*
X0215005Y0104845D02*
X0214304Y0104845D01*
X0214332Y0103246D02*
X0214977Y0103246D01*
X0215502Y0101648D02*
X0213806Y0101648D01*
X0212471Y0100049D02*
X0216837Y0100049D01*
X0222471Y0100049D02*
X0226837Y0100049D01*
X0225502Y0101648D02*
X0223806Y0101648D01*
X0224332Y0103246D02*
X0224977Y0103246D01*
X0225005Y0104845D02*
X0224304Y0104845D01*
X0223642Y0106443D02*
X0225667Y0106443D01*
X0227558Y0108042D02*
X0221751Y0108042D01*
X0207558Y0108042D02*
X0201751Y0108042D01*
X0202304Y0107813D02*
X0200585Y0108525D01*
X0198724Y0108525D01*
X0197005Y0107813D01*
X0195689Y0106497D01*
X0194977Y0104778D01*
X0194977Y0102917D01*
X0195689Y0101198D01*
X0197005Y0099882D01*
X0198724Y0099170D01*
X0200585Y0099170D01*
X0202304Y0099882D01*
X0203620Y0101198D01*
X0204332Y0102917D01*
X0204332Y0104778D01*
X0203620Y0106497D01*
X0202304Y0107813D01*
X0203642Y0106443D02*
X0205667Y0106443D01*
X0205005Y0104845D02*
X0204304Y0104845D01*
X0204332Y0103246D02*
X0204977Y0103246D01*
X0205502Y0101648D02*
X0203806Y0101648D01*
X0202471Y0100049D02*
X0206837Y0100049D01*
X0196837Y0100049D02*
X0192471Y0100049D01*
X0192304Y0099882D02*
X0193620Y0101198D01*
X0194332Y0102917D01*
X0194332Y0104778D01*
X0193620Y0106497D01*
X0192304Y0107813D01*
X0190585Y0108525D01*
X0188724Y0108525D01*
X0187005Y0107813D01*
X0185689Y0106497D01*
X0184977Y0104778D01*
X0184977Y0102917D01*
X0185689Y0101198D01*
X0187005Y0099882D01*
X0188724Y0099170D01*
X0190585Y0099170D01*
X0192304Y0099882D01*
X0193806Y0101648D02*
X0195502Y0101648D01*
X0194977Y0103246D02*
X0194332Y0103246D01*
X0194304Y0104845D02*
X0195005Y0104845D01*
X0195667Y0106443D02*
X0193642Y0106443D01*
X0191751Y0108042D02*
X0197558Y0108042D01*
X0197588Y0109640D02*
X0191721Y0109640D01*
X0192304Y0109882D02*
X0193620Y0111198D01*
X0194332Y0112917D01*
X0194332Y0114778D01*
X0193620Y0116497D01*
X0192304Y0117813D01*
X0190585Y0118525D01*
X0188724Y0118525D01*
X0187005Y0117813D01*
X0185689Y0116497D01*
X0184977Y0114778D01*
X0184977Y0112917D01*
X0185689Y0111198D01*
X0187005Y0109882D01*
X0188724Y0109170D01*
X0190585Y0109170D01*
X0192304Y0109882D01*
X0193637Y0111239D02*
X0195672Y0111239D01*
X0195689Y0111198D02*
X0197005Y0109882D01*
X0198724Y0109170D01*
X0200585Y0109170D01*
X0202304Y0109882D01*
X0203620Y0111198D01*
X0204332Y0112917D01*
X0204332Y0114778D01*
X0203620Y0116497D01*
X0202304Y0117813D01*
X0200585Y0118525D01*
X0198724Y0118525D01*
X0197005Y0117813D01*
X0195689Y0116497D01*
X0194977Y0114778D01*
X0194977Y0112917D01*
X0195689Y0111198D01*
X0195010Y0112837D02*
X0194299Y0112837D01*
X0194332Y0114436D02*
X0194977Y0114436D01*
X0195497Y0116034D02*
X0193811Y0116034D01*
X0192484Y0117633D02*
X0196825Y0117633D01*
X0202484Y0117633D02*
X0206825Y0117633D01*
X0205497Y0116034D02*
X0203811Y0116034D01*
X0204332Y0114436D02*
X0204977Y0114436D01*
X0205010Y0112837D02*
X0204299Y0112837D01*
X0203637Y0111239D02*
X0205672Y0111239D01*
X0207588Y0109640D02*
X0201721Y0109640D01*
X0187588Y0109640D02*
X0181721Y0109640D01*
X0182304Y0109882D02*
X0180585Y0109170D01*
X0178724Y0109170D01*
X0177005Y0109882D01*
X0175689Y0111198D01*
X0174977Y0112917D01*
X0174977Y0114778D01*
X0175689Y0116497D01*
X0177005Y0117813D01*
X0178724Y0118525D01*
X0180585Y0118525D01*
X0182304Y0117813D01*
X0183620Y0116497D01*
X0184332Y0114778D01*
X0184332Y0112917D01*
X0183620Y0111198D01*
X0182304Y0109882D01*
X0183637Y0111239D02*
X0185672Y0111239D01*
X0185010Y0112837D02*
X0184299Y0112837D01*
X0184332Y0114436D02*
X0184977Y0114436D01*
X0185497Y0116034D02*
X0183811Y0116034D01*
X0182484Y0117633D02*
X0186825Y0117633D01*
X0176825Y0117633D02*
X0172484Y0117633D01*
X0172304Y0117813D02*
X0170585Y0118525D01*
X0168724Y0118525D01*
X0167005Y0117813D01*
X0165689Y0116497D01*
X0164977Y0114778D01*
X0164977Y0112917D01*
X0165689Y0111198D01*
X0167005Y0109882D01*
X0168724Y0109170D01*
X0170585Y0109170D01*
X0172304Y0109882D01*
X0173620Y0111198D01*
X0174332Y0112917D01*
X0174332Y0114778D01*
X0173620Y0116497D01*
X0172304Y0117813D01*
X0173811Y0116034D02*
X0175497Y0116034D01*
X0174977Y0114436D02*
X0174332Y0114436D01*
X0174299Y0112837D02*
X0175010Y0112837D01*
X0175672Y0111239D02*
X0173637Y0111239D01*
X0171721Y0109640D02*
X0177588Y0109640D01*
X0178724Y0108525D02*
X0177005Y0107813D01*
X0175689Y0106497D01*
X0174977Y0104778D01*
X0174977Y0102917D01*
X0175689Y0101198D01*
X0177005Y0099882D01*
X0178724Y0099170D01*
X0180585Y0099170D01*
X0182304Y0099882D01*
X0183620Y0101198D01*
X0184332Y0102917D01*
X0184332Y0104778D01*
X0183620Y0106497D01*
X0182304Y0107813D01*
X0180585Y0108525D01*
X0178724Y0108525D01*
X0177558Y0108042D02*
X0171751Y0108042D01*
X0172304Y0107813D02*
X0170585Y0108525D01*
X0168724Y0108525D01*
X0167005Y0107813D01*
X0165689Y0106497D01*
X0164977Y0104778D01*
X0164977Y0102917D01*
X0165689Y0101198D01*
X0167005Y0099882D01*
X0168724Y0099170D01*
X0170585Y0099170D01*
X0172304Y0099882D01*
X0173620Y0101198D01*
X0174332Y0102917D01*
X0174332Y0104778D01*
X0173620Y0106497D01*
X0172304Y0107813D01*
X0173642Y0106443D02*
X0175667Y0106443D01*
X0175005Y0104845D02*
X0174304Y0104845D01*
X0174332Y0103246D02*
X0174977Y0103246D01*
X0175502Y0101648D02*
X0173806Y0101648D01*
X0172471Y0100049D02*
X0176837Y0100049D01*
X0182471Y0100049D02*
X0186837Y0100049D01*
X0185502Y0101648D02*
X0183806Y0101648D01*
X0184332Y0103246D02*
X0184977Y0103246D01*
X0185005Y0104845D02*
X0184304Y0104845D01*
X0183642Y0106443D02*
X0185667Y0106443D01*
X0187558Y0108042D02*
X0181751Y0108042D01*
X0167558Y0108042D02*
X0161751Y0108042D01*
X0161721Y0109640D02*
X0167588Y0109640D01*
X0165672Y0111239D02*
X0163637Y0111239D01*
X0163620Y0111198D02*
X0164332Y0112917D01*
X0164332Y0114778D01*
X0163620Y0116497D01*
X0162304Y0117813D01*
X0160585Y0118525D01*
X0158724Y0118525D01*
X0157005Y0117813D01*
X0155689Y0116497D01*
X0154977Y0114778D01*
X0154977Y0112917D01*
X0155689Y0111198D01*
X0157005Y0109882D01*
X0158724Y0109170D01*
X0160585Y0109170D01*
X0162304Y0109882D01*
X0163620Y0111198D01*
X0164299Y0112837D02*
X0165010Y0112837D01*
X0164977Y0114436D02*
X0164332Y0114436D01*
X0163811Y0116034D02*
X0165497Y0116034D01*
X0166825Y0117633D02*
X0162484Y0117633D01*
X0156825Y0117633D02*
X0152484Y0117633D01*
X0153811Y0116034D02*
X0155497Y0116034D01*
X0154977Y0114436D02*
X0154332Y0114436D01*
X0154299Y0112837D02*
X0155010Y0112837D01*
X0155078Y0111239D02*
X0155672Y0111239D01*
X0156350Y0109640D02*
X0157588Y0109640D01*
X0157558Y0108042D02*
X0156350Y0108042D01*
X0152369Y0108042D02*
X0151751Y0108042D01*
X0147558Y0108042D02*
X0141751Y0108042D01*
X0142304Y0107813D02*
X0140585Y0108525D01*
X0138724Y0108525D01*
X0137005Y0107813D01*
X0135689Y0106497D01*
X0134977Y0104778D01*
X0134977Y0102917D01*
X0135689Y0101198D01*
X0137005Y0099882D01*
X0138724Y0099170D01*
X0140585Y0099170D01*
X0142304Y0099882D01*
X0143620Y0101198D01*
X0144332Y0102917D01*
X0144332Y0104778D01*
X0143620Y0106497D01*
X0142304Y0107813D01*
X0143642Y0106443D02*
X0145667Y0106443D01*
X0145005Y0104845D02*
X0144304Y0104845D01*
X0144332Y0103246D02*
X0144977Y0103246D01*
X0145479Y0101648D02*
X0143806Y0101648D01*
X0142471Y0100049D02*
X0145479Y0100049D01*
X0145479Y0098451D02*
X0131756Y0098451D01*
X0131789Y0096852D02*
X0145479Y0096852D01*
X0145479Y0095254D02*
X0131822Y0095254D01*
X0131855Y0093655D02*
X0145479Y0093655D01*
X0145479Y0092057D02*
X0131887Y0092057D01*
X0131920Y0090458D02*
X0145479Y0090458D01*
X0145479Y0088860D02*
X0131953Y0088860D01*
X0131986Y0087261D02*
X0145479Y0087261D01*
X0145479Y0085663D02*
X0132019Y0085663D01*
X0132051Y0084064D02*
X0145479Y0084064D01*
X0145479Y0082466D02*
X0132084Y0082466D01*
X0132117Y0080867D02*
X0145479Y0080867D01*
X0145479Y0079269D02*
X0132150Y0079269D01*
X0132183Y0077670D02*
X0145479Y0077670D01*
X0145479Y0076072D02*
X0132216Y0076072D01*
X0132729Y0074473D02*
X0145479Y0074473D01*
X0145479Y0072874D02*
X0134328Y0072874D01*
X0135926Y0071276D02*
X0145479Y0071276D01*
X0149460Y0071276D02*
X0149912Y0071276D01*
X0149460Y0072874D02*
X0150386Y0072874D01*
X0149460Y0074473D02*
X0151707Y0074473D01*
X0164417Y0079269D02*
X0259843Y0079269D01*
X0259843Y0080867D02*
X0164712Y0080867D01*
X0164407Y0082466D02*
X0259843Y0082466D01*
X0259843Y0084064D02*
X0163325Y0084064D01*
X0151683Y0087261D02*
X0149460Y0087261D01*
X0149460Y0088860D02*
X0150376Y0088860D01*
X0149912Y0090458D02*
X0149460Y0090458D01*
X0149460Y0092057D02*
X0150047Y0092057D01*
X0149460Y0093655D02*
X0150889Y0093655D01*
X0149460Y0095254D02*
X0152369Y0095254D01*
X0152369Y0096852D02*
X0149460Y0096852D01*
X0149460Y0098451D02*
X0152369Y0098451D01*
X0156350Y0100049D02*
X0156837Y0100049D01*
X0162471Y0100049D02*
X0166837Y0100049D01*
X0165502Y0101648D02*
X0163806Y0101648D01*
X0164332Y0103246D02*
X0164977Y0103246D01*
X0165005Y0104845D02*
X0164304Y0104845D01*
X0163642Y0106443D02*
X0165667Y0106443D01*
X0147588Y0109640D02*
X0141721Y0109640D01*
X0142304Y0109882D02*
X0140585Y0109170D01*
X0138724Y0109170D01*
X0137005Y0109882D01*
X0135689Y0111198D01*
X0134977Y0112917D01*
X0134977Y0114778D01*
X0135689Y0116497D01*
X0137005Y0117813D01*
X0138724Y0118525D01*
X0140585Y0118525D01*
X0142304Y0117813D01*
X0143620Y0116497D01*
X0144332Y0114778D01*
X0144332Y0112917D01*
X0143620Y0111198D01*
X0142304Y0109882D01*
X0143637Y0111239D02*
X0145672Y0111239D01*
X0145010Y0112837D02*
X0144299Y0112837D01*
X0144332Y0114436D02*
X0144977Y0114436D01*
X0145497Y0116034D02*
X0143811Y0116034D01*
X0142484Y0117633D02*
X0146825Y0117633D01*
X0136825Y0117633D02*
X0132484Y0117633D01*
X0132304Y0117813D02*
X0130585Y0118525D01*
X0128724Y0118525D01*
X0127005Y0117813D01*
X0125689Y0116497D01*
X0124977Y0114778D01*
X0124977Y0112917D01*
X0125689Y0111198D01*
X0127005Y0109882D01*
X0128724Y0109170D01*
X0130585Y0109170D01*
X0132304Y0109882D01*
X0133620Y0111198D01*
X0134332Y0112917D01*
X0134332Y0114778D01*
X0133620Y0116497D01*
X0132304Y0117813D01*
X0133811Y0116034D02*
X0135497Y0116034D01*
X0134977Y0114436D02*
X0134332Y0114436D01*
X0134299Y0112837D02*
X0135010Y0112837D01*
X0135672Y0111239D02*
X0133637Y0111239D01*
X0131721Y0109640D02*
X0137588Y0109640D01*
X0137558Y0108042D02*
X0131751Y0108042D01*
X0133642Y0106443D02*
X0135667Y0106443D01*
X0135005Y0104845D02*
X0134304Y0104845D01*
X0134332Y0103246D02*
X0134977Y0103246D01*
X0135502Y0101648D02*
X0133806Y0101648D01*
X0132471Y0100049D02*
X0136837Y0100049D01*
X0127774Y0098451D02*
X0126822Y0098451D01*
X0126822Y0096852D02*
X0127807Y0096852D01*
X0127840Y0095254D02*
X0126822Y0095254D01*
X0126822Y0093655D02*
X0127873Y0093655D01*
X0127905Y0092057D02*
X0126822Y0092057D01*
X0126822Y0090458D02*
X0127938Y0090458D01*
X0127971Y0088860D02*
X0126822Y0088860D01*
X0126822Y0087261D02*
X0128004Y0087261D01*
X0128037Y0085663D02*
X0126822Y0085663D01*
X0126822Y0084064D02*
X0128070Y0084064D01*
X0128102Y0082466D02*
X0126822Y0082466D01*
X0126822Y0080867D02*
X0128135Y0080867D01*
X0128168Y0079269D02*
X0126822Y0079269D01*
X0126822Y0077670D02*
X0128201Y0077670D01*
X0128234Y0076072D02*
X0126822Y0076072D01*
X0126822Y0074473D02*
X0128266Y0074473D01*
X0128691Y0072874D02*
X0126822Y0072874D01*
X0127131Y0071276D02*
X0130296Y0071276D01*
X0122841Y0079269D02*
X0120907Y0079269D01*
X0121226Y0080867D02*
X0122841Y0080867D01*
X0122841Y0082466D02*
X0120253Y0082466D01*
X0118217Y0084064D02*
X0122841Y0084064D01*
X0122841Y0085663D02*
X0116980Y0085663D01*
X0116980Y0087261D02*
X0122841Y0087261D01*
X0122841Y0088860D02*
X0116980Y0088860D01*
X0116980Y0090458D02*
X0122841Y0090458D01*
X0122841Y0092057D02*
X0116980Y0092057D01*
X0116980Y0093655D02*
X0122841Y0093655D01*
X0122841Y0095254D02*
X0116980Y0095254D01*
X0116980Y0096852D02*
X0122841Y0096852D01*
X0122841Y0098451D02*
X0116980Y0098451D01*
X0112998Y0098451D02*
X0086960Y0098451D01*
X0087452Y0097113D02*
X0087452Y0097113D01*
X0087712Y0096852D02*
X0112998Y0096852D01*
X0112998Y0095254D02*
X0089311Y0095254D01*
X0090910Y0093655D02*
X0112998Y0093655D01*
X0112998Y0092057D02*
X0092508Y0092057D01*
X0094107Y0090458D02*
X0112998Y0090458D01*
X0112998Y0088860D02*
X0095705Y0088860D01*
X0097304Y0087261D02*
X0112998Y0087261D01*
X0112998Y0085663D02*
X0098902Y0085663D01*
X0100501Y0084064D02*
X0112998Y0084064D01*
X0114186Y0082466D02*
X0102099Y0082466D01*
X0103698Y0080867D02*
X0115784Y0080867D01*
X0116945Y0079269D02*
X0105296Y0079269D01*
X0104462Y0074473D02*
X0100249Y0074473D01*
X0101848Y0072874D02*
X0106060Y0072874D01*
X0107659Y0071276D02*
X0102688Y0071276D01*
X0102688Y0069677D02*
X0108707Y0069677D01*
X0107833Y0068079D02*
X0103562Y0068079D01*
X0104731Y0066480D02*
X0106664Y0066480D01*
X0106298Y0064882D02*
X0105098Y0064882D01*
X0105098Y0063283D02*
X0106298Y0063283D01*
X0106298Y0061685D02*
X0105098Y0061685D01*
X0105098Y0060086D02*
X0106298Y0060086D01*
X0106298Y0058488D02*
X0105098Y0058488D01*
X0104701Y0056889D02*
X0106694Y0056889D01*
X0107905Y0055291D02*
X0103490Y0055291D01*
X0097905Y0055291D02*
X0093490Y0055291D01*
X0093190Y0054991D02*
X0094428Y0056229D01*
X0095098Y0057846D01*
X0095098Y0065596D01*
X0094428Y0067214D01*
X0093190Y0068451D01*
X0091573Y0069121D01*
X0089822Y0069121D01*
X0088205Y0068451D01*
X0086967Y0067214D01*
X0086298Y0065596D01*
X0086298Y0057846D01*
X0086967Y0056229D01*
X0088205Y0054991D01*
X0089822Y0054321D01*
X0091573Y0054321D01*
X0093190Y0054991D01*
X0094701Y0056889D02*
X0096694Y0056889D01*
X0096298Y0058488D02*
X0095098Y0058488D01*
X0095098Y0060086D02*
X0096298Y0060086D01*
X0096298Y0061685D02*
X0095098Y0061685D01*
X0095098Y0063283D02*
X0096298Y0063283D01*
X0096298Y0064882D02*
X0095098Y0064882D01*
X0094731Y0066480D02*
X0096664Y0066480D01*
X0097833Y0068079D02*
X0093562Y0068079D01*
X0098707Y0069677D02*
X0064690Y0069677D01*
X0066289Y0068079D02*
X0077833Y0068079D01*
X0076664Y0066480D02*
X0067887Y0066480D01*
X0069486Y0064882D02*
X0076298Y0064882D01*
X0076298Y0063283D02*
X0071084Y0063283D01*
X0072683Y0061685D02*
X0076298Y0061685D01*
X0076298Y0060086D02*
X0074281Y0060086D01*
X0075880Y0058488D02*
X0076298Y0058488D01*
X0083490Y0055291D02*
X0087905Y0055291D01*
X0086694Y0056889D02*
X0084701Y0056889D01*
X0085098Y0058488D02*
X0086298Y0058488D01*
X0086298Y0060086D02*
X0085098Y0060086D01*
X0085098Y0061685D02*
X0086298Y0061685D01*
X0086298Y0063283D02*
X0085098Y0063283D01*
X0085098Y0064882D02*
X0086298Y0064882D01*
X0086664Y0066480D02*
X0084731Y0066480D01*
X0083562Y0068079D02*
X0087833Y0068079D01*
X0096218Y0072874D02*
X0061493Y0072874D01*
X0063092Y0071276D02*
X0097816Y0071276D01*
X0094619Y0074473D02*
X0059895Y0074473D01*
X0058296Y0076072D02*
X0093021Y0076072D01*
X0091422Y0077670D02*
X0056698Y0077670D01*
X0055099Y0079269D02*
X0089823Y0079269D01*
X0088225Y0080867D02*
X0053501Y0080867D01*
X0052340Y0082466D02*
X0086626Y0082466D01*
X0085028Y0084064D02*
X0043424Y0084064D01*
X0041890Y0082466D02*
X0048701Y0082466D01*
X0048220Y0080867D02*
X0040356Y0080867D01*
X0038821Y0079269D02*
X0049032Y0079269D01*
X0051068Y0077670D02*
X0037287Y0077670D01*
X0035753Y0076072D02*
X0052666Y0076072D01*
X0054265Y0074473D02*
X0035287Y0074473D01*
X0035287Y0072874D02*
X0055863Y0072874D01*
X0057462Y0071276D02*
X0035287Y0071276D01*
X0035287Y0069677D02*
X0059060Y0069677D01*
X0060659Y0068079D02*
X0035287Y0068079D01*
X0035287Y0066480D02*
X0058555Y0066480D01*
X0058555Y0064882D02*
X0035287Y0064882D01*
X0035287Y0063283D02*
X0060533Y0063283D01*
X0062132Y0061685D02*
X0056321Y0061685D01*
X0057594Y0060086D02*
X0063730Y0060086D01*
X0065329Y0058488D02*
X0058071Y0058488D01*
X0058096Y0056889D02*
X0066927Y0056889D01*
X0080675Y0053692D02*
X0145479Y0053692D01*
X0145479Y0055291D02*
X0133490Y0055291D01*
X0134701Y0056889D02*
X0145479Y0056889D01*
X0145479Y0058488D02*
X0135098Y0058488D01*
X0135098Y0060086D02*
X0141232Y0060086D01*
X0149460Y0053692D02*
X0150927Y0053692D01*
X0150062Y0052094D02*
X0149641Y0052094D01*
X0145298Y0052094D02*
X0082274Y0052094D01*
X0083872Y0050495D02*
X0137128Y0050495D01*
X0134910Y0048897D02*
X0085471Y0048897D01*
X0085345Y0044101D02*
X0134723Y0044101D01*
X0148924Y0047298D02*
X0151646Y0047298D01*
X0150360Y0048897D02*
X0148606Y0048897D01*
X0149769Y0050495D02*
X0149912Y0050495D01*
X0157112Y0044101D02*
X0157512Y0044101D01*
X0157512Y0042503D02*
X0157112Y0042503D01*
X0157112Y0039306D02*
X0157512Y0039306D01*
X0157512Y0037707D02*
X0157112Y0037707D01*
X0157112Y0036109D02*
X0157512Y0036109D01*
X0150022Y0029715D02*
X0147399Y0029715D01*
X0148585Y0028116D02*
X0150828Y0028116D01*
X0135757Y0032912D02*
X0083257Y0032912D01*
X0083816Y0034510D02*
X0089306Y0034510D01*
X0087708Y0036109D02*
X0083816Y0036109D01*
X0043542Y0040904D02*
X0028796Y0040904D01*
X0015788Y0048219D02*
X0014171Y0047550D01*
X0012421Y0047550D01*
X0010804Y0048219D01*
X0009566Y0049457D01*
X0008896Y0051074D01*
X0008896Y0058825D01*
X0009566Y0060442D01*
X0010804Y0061680D01*
X0012421Y0062350D01*
X0014171Y0062350D01*
X0015788Y0061680D01*
X0017026Y0060442D01*
X0017696Y0058825D01*
X0017696Y0051074D01*
X0017026Y0049457D01*
X0015788Y0048219D01*
X0016466Y0048897D02*
X0020126Y0048897D01*
X0019136Y0050495D02*
X0017456Y0050495D01*
X0017696Y0052094D02*
X0018896Y0052094D01*
X0018896Y0053692D02*
X0017696Y0053692D01*
X0017696Y0055291D02*
X0018896Y0055291D01*
X0018896Y0056889D02*
X0017696Y0056889D01*
X0017696Y0058488D02*
X0018896Y0058488D01*
X0019419Y0060086D02*
X0017173Y0060086D01*
X0015776Y0061685D02*
X0020816Y0061685D01*
X0021306Y0063283D02*
X0007537Y0063283D01*
X0007537Y0061685D02*
X0010816Y0061685D01*
X0009419Y0060086D02*
X0007537Y0060086D01*
X0007537Y0058488D02*
X0008896Y0058488D01*
X0008896Y0056889D02*
X0007537Y0056889D01*
X0007537Y0055291D02*
X0008896Y0055291D01*
X0008896Y0053692D02*
X0007537Y0053692D01*
X0007537Y0052094D02*
X0008896Y0052094D01*
X0009136Y0050495D02*
X0007537Y0050495D01*
X0007537Y0048897D02*
X0010126Y0048897D01*
X0036466Y0048897D02*
X0040126Y0048897D01*
X0039136Y0050495D02*
X0037456Y0050495D01*
X0037696Y0052094D02*
X0038896Y0052094D01*
X0038896Y0053692D02*
X0037696Y0053692D01*
X0037696Y0055291D02*
X0038896Y0055291D01*
X0038896Y0056889D02*
X0037696Y0056889D01*
X0037696Y0058488D02*
X0038896Y0058488D01*
X0039419Y0060086D02*
X0037173Y0060086D01*
X0035776Y0061685D02*
X0040816Y0061685D01*
X0021306Y0064882D02*
X0007537Y0064882D01*
X0007537Y0066480D02*
X0021306Y0066480D01*
X0021306Y0068079D02*
X0007537Y0068079D01*
X0007537Y0069677D02*
X0021306Y0069677D01*
X0021306Y0071276D02*
X0007537Y0071276D01*
X0007537Y0072874D02*
X0021306Y0072874D01*
X0021306Y0074473D02*
X0007537Y0074473D01*
X0007537Y0076072D02*
X0021306Y0076072D01*
X0021764Y0077670D02*
X0007537Y0077670D01*
X0007537Y0079269D02*
X0023303Y0079269D01*
X0024838Y0080867D02*
X0007537Y0080867D01*
X0007537Y0082466D02*
X0026372Y0082466D01*
X0027906Y0084064D02*
X0007537Y0084064D01*
X0007537Y0085663D02*
X0029441Y0085663D01*
X0030975Y0087261D02*
X0007537Y0087261D01*
X0007537Y0088860D02*
X0032509Y0088860D01*
X0034044Y0090458D02*
X0007537Y0090458D01*
X0007537Y0092057D02*
X0035578Y0092057D01*
X0037112Y0093655D02*
X0007537Y0093655D01*
X0007537Y0095254D02*
X0038647Y0095254D01*
X0040181Y0096852D02*
X0007537Y0096852D01*
X0007537Y0098451D02*
X0041715Y0098451D01*
X0041603Y0099142D02*
X0042316Y0099505D01*
X0042962Y0099974D01*
X0043527Y0100539D01*
X0043997Y0101186D01*
X0044360Y0101898D01*
X0044607Y0102658D01*
X0044732Y0103448D01*
X0044732Y0103555D01*
X0039947Y0103555D01*
X0039947Y0104140D01*
X0039362Y0104140D01*
X0039362Y0108925D01*
X0039255Y0108925D01*
X0038465Y0108800D01*
X0037705Y0108553D01*
X0036993Y0108190D01*
X0036347Y0107720D01*
X0035781Y0107155D01*
X0035312Y0106508D01*
X0034949Y0105796D01*
X0034702Y0105036D01*
X0034577Y0104247D01*
X0034577Y0104140D01*
X0039362Y0104140D01*
X0039362Y0103555D01*
X0034577Y0103555D01*
X0034577Y0103448D01*
X0034702Y0102658D01*
X0034949Y0101898D01*
X0035312Y0101186D01*
X0035781Y0100539D01*
X0036347Y0099974D01*
X0036993Y0099505D01*
X0037705Y0099142D01*
X0038465Y0098895D01*
X0039255Y0098770D01*
X0039362Y0098770D01*
X0039362Y0103555D01*
X0039947Y0103555D01*
X0039947Y0098770D01*
X0040054Y0098770D01*
X0040843Y0098895D01*
X0041603Y0099142D01*
X0043037Y0100049D02*
X0043250Y0100049D01*
X0044232Y0101648D02*
X0044784Y0101648D01*
X0044700Y0103246D02*
X0044977Y0103246D01*
X0044732Y0104140D02*
X0044732Y0104247D01*
X0044607Y0105036D01*
X0044360Y0105796D01*
X0043997Y0106508D01*
X0043527Y0107155D01*
X0042962Y0107720D01*
X0042316Y0108190D01*
X0041603Y0108553D01*
X0040843Y0108800D01*
X0040054Y0108925D01*
X0039947Y0108925D01*
X0039947Y0104140D01*
X0044732Y0104140D01*
X0044637Y0104845D02*
X0045005Y0104845D01*
X0045667Y0106443D02*
X0044030Y0106443D01*
X0042520Y0108042D02*
X0047558Y0108042D01*
X0047588Y0109640D02*
X0041721Y0109640D01*
X0042304Y0109882D02*
X0043620Y0111198D01*
X0044332Y0112917D01*
X0044332Y0114778D01*
X0043620Y0116497D01*
X0042304Y0117813D01*
X0040585Y0118525D01*
X0038724Y0118525D01*
X0037005Y0117813D01*
X0035689Y0116497D01*
X0034977Y0114778D01*
X0034977Y0112917D01*
X0035689Y0111198D01*
X0037005Y0109882D01*
X0038724Y0109170D01*
X0040585Y0109170D01*
X0042304Y0109882D01*
X0043637Y0111239D02*
X0045672Y0111239D01*
X0045689Y0111198D02*
X0047005Y0109882D01*
X0048724Y0109170D01*
X0050585Y0109170D01*
X0052304Y0109882D01*
X0053620Y0111198D01*
X0054332Y0112917D01*
X0054332Y0114778D01*
X0053620Y0116497D01*
X0052304Y0117813D01*
X0050585Y0118525D01*
X0048724Y0118525D01*
X0047005Y0117813D01*
X0045689Y0116497D01*
X0044977Y0114778D01*
X0044977Y0112917D01*
X0045689Y0111198D01*
X0045010Y0112837D02*
X0044299Y0112837D01*
X0044332Y0114436D02*
X0044977Y0114436D01*
X0045497Y0116034D02*
X0043811Y0116034D01*
X0042484Y0117633D02*
X0046825Y0117633D01*
X0052484Y0117633D02*
X0056825Y0117633D01*
X0057005Y0117813D02*
X0055689Y0116497D01*
X0054977Y0114778D01*
X0054977Y0112917D01*
X0055689Y0111198D01*
X0057005Y0109882D01*
X0058724Y0109170D01*
X0060585Y0109170D01*
X0062304Y0109882D01*
X0063620Y0111198D01*
X0064332Y0112917D01*
X0064332Y0114778D01*
X0063620Y0116497D01*
X0062304Y0117813D01*
X0060585Y0118525D01*
X0058724Y0118525D01*
X0057005Y0117813D01*
X0055497Y0116034D02*
X0053811Y0116034D01*
X0054332Y0114436D02*
X0054977Y0114436D01*
X0055010Y0112837D02*
X0054299Y0112837D01*
X0053637Y0111239D02*
X0055672Y0111239D01*
X0057588Y0109640D02*
X0051721Y0109640D01*
X0051751Y0108042D02*
X0057558Y0108042D01*
X0055667Y0106443D02*
X0053642Y0106443D01*
X0054304Y0104845D02*
X0055005Y0104845D01*
X0054977Y0103246D02*
X0054332Y0103246D01*
X0054784Y0101648D02*
X0053806Y0101648D01*
X0053250Y0100049D02*
X0052471Y0100049D01*
X0051715Y0098451D02*
X0047234Y0098451D01*
X0045699Y0096852D02*
X0050181Y0096852D01*
X0048647Y0095254D02*
X0044165Y0095254D01*
X0042630Y0093655D02*
X0047112Y0093655D01*
X0045578Y0092057D02*
X0041096Y0092057D01*
X0039562Y0090458D02*
X0044044Y0090458D01*
X0042509Y0088860D02*
X0038027Y0088860D01*
X0039362Y0100049D02*
X0039947Y0100049D01*
X0039947Y0101648D02*
X0039362Y0101648D01*
X0039362Y0103246D02*
X0039947Y0103246D01*
X0039947Y0104845D02*
X0039362Y0104845D01*
X0039362Y0106443D02*
X0039947Y0106443D01*
X0039947Y0108042D02*
X0039362Y0108042D01*
X0037588Y0109640D02*
X0007537Y0109640D01*
X0007537Y0108042D02*
X0036789Y0108042D01*
X0035278Y0106443D02*
X0007537Y0106443D01*
X0007537Y0104845D02*
X0034671Y0104845D01*
X0034609Y0103246D02*
X0007537Y0103246D01*
X0007537Y0101648D02*
X0035076Y0101648D01*
X0036272Y0100049D02*
X0007537Y0100049D01*
X0007537Y0111239D02*
X0035672Y0111239D01*
X0035010Y0112837D02*
X0007600Y0112837D01*
X0007931Y0114436D02*
X0034977Y0114436D01*
X0035497Y0116034D02*
X0008450Y0116034D01*
X0009392Y0117633D02*
X0036825Y0117633D01*
X0062484Y0117633D02*
X0066825Y0117633D01*
X0065497Y0116034D02*
X0063811Y0116034D01*
X0064332Y0114436D02*
X0064977Y0114436D01*
X0065010Y0112837D02*
X0064299Y0112837D01*
X0063637Y0111239D02*
X0065672Y0111239D01*
X0067588Y0109640D02*
X0061721Y0109640D01*
X0061751Y0108042D02*
X0067558Y0108042D01*
X0065667Y0106443D02*
X0063642Y0106443D01*
X0064304Y0104845D02*
X0065005Y0104845D01*
X0064977Y0103246D02*
X0064332Y0103246D01*
X0063806Y0101648D02*
X0065502Y0101648D01*
X0066837Y0100049D02*
X0062471Y0100049D01*
X0072471Y0100049D02*
X0072644Y0100049D01*
X0076625Y0100049D02*
X0076837Y0100049D01*
X0082471Y0100049D02*
X0082979Y0100049D01*
X0092471Y0100049D02*
X0096837Y0100049D01*
X0097005Y0099882D02*
X0098724Y0099170D01*
X0100585Y0099170D01*
X0102304Y0099882D01*
X0103620Y0101198D01*
X0104332Y0102917D01*
X0104332Y0104778D01*
X0103620Y0106497D01*
X0102304Y0107813D01*
X0100585Y0108525D01*
X0098724Y0108525D01*
X0097005Y0107813D01*
X0095689Y0106497D01*
X0094977Y0104778D01*
X0094977Y0102917D01*
X0095689Y0101198D01*
X0097005Y0099882D01*
X0095502Y0101648D02*
X0093806Y0101648D01*
X0094332Y0103246D02*
X0094977Y0103246D01*
X0095005Y0104845D02*
X0094304Y0104845D01*
X0093642Y0106443D02*
X0095667Y0106443D01*
X0097558Y0108042D02*
X0091751Y0108042D01*
X0091721Y0109640D02*
X0097588Y0109640D01*
X0097005Y0109882D02*
X0098724Y0109170D01*
X0100585Y0109170D01*
X0102304Y0109882D01*
X0103620Y0111198D01*
X0104332Y0112917D01*
X0104332Y0114778D01*
X0103620Y0116497D01*
X0102304Y0117813D01*
X0100585Y0118525D01*
X0098724Y0118525D01*
X0097005Y0117813D01*
X0095689Y0116497D01*
X0094977Y0114778D01*
X0094977Y0112917D01*
X0095689Y0111198D01*
X0097005Y0109882D01*
X0095672Y0111239D02*
X0093637Y0111239D01*
X0093620Y0111198D02*
X0094332Y0112917D01*
X0094332Y0114778D01*
X0093620Y0116497D01*
X0092304Y0117813D01*
X0090585Y0118525D01*
X0088724Y0118525D01*
X0087005Y0117813D01*
X0085689Y0116497D01*
X0084977Y0114778D01*
X0084977Y0112917D01*
X0085689Y0111198D01*
X0087005Y0109882D01*
X0088724Y0109170D01*
X0090585Y0109170D01*
X0092304Y0109882D01*
X0093620Y0111198D01*
X0094299Y0112837D02*
X0095010Y0112837D01*
X0094977Y0114436D02*
X0094332Y0114436D01*
X0093811Y0116034D02*
X0095497Y0116034D01*
X0096825Y0117633D02*
X0092484Y0117633D01*
X0086825Y0117633D02*
X0082484Y0117633D01*
X0083811Y0116034D02*
X0085497Y0116034D01*
X0084977Y0114436D02*
X0084332Y0114436D01*
X0084299Y0112837D02*
X0085010Y0112837D01*
X0085078Y0111239D02*
X0085672Y0111239D01*
X0086676Y0109640D02*
X0087588Y0109640D01*
X0087558Y0108042D02*
X0086960Y0108042D01*
X0082645Y0108042D02*
X0081751Y0108042D01*
X0077558Y0108042D02*
X0076625Y0108042D01*
X0076625Y0109640D02*
X0077588Y0109640D01*
X0075672Y0111239D02*
X0075078Y0111239D01*
X0075010Y0112837D02*
X0074299Y0112837D01*
X0074332Y0114436D02*
X0074977Y0114436D01*
X0075497Y0116034D02*
X0073811Y0116034D01*
X0072484Y0117633D02*
X0076825Y0117633D01*
X0072644Y0108042D02*
X0072644Y0107473D01*
X0072304Y0107813D01*
X0101751Y0108042D02*
X0107558Y0108042D01*
X0107588Y0109640D02*
X0101721Y0109640D01*
X0103637Y0111239D02*
X0105672Y0111239D01*
X0105010Y0112837D02*
X0104299Y0112837D01*
X0104332Y0114436D02*
X0104977Y0114436D01*
X0105497Y0116034D02*
X0103811Y0116034D01*
X0102484Y0117633D02*
X0106825Y0117633D01*
X0112484Y0117633D02*
X0116825Y0117633D01*
X0115497Y0116034D02*
X0113811Y0116034D01*
X0114332Y0114436D02*
X0114977Y0114436D01*
X0115010Y0112837D02*
X0114299Y0112837D01*
X0115169Y0111239D02*
X0115672Y0111239D01*
X0116804Y0109640D02*
X0117588Y0109640D01*
X0119362Y0108042D02*
X0119947Y0108042D01*
X0119947Y0106443D02*
X0119362Y0106443D01*
X0122520Y0108042D02*
X0122747Y0108042D01*
X0125172Y0111239D02*
X0125672Y0111239D01*
X0126808Y0109640D02*
X0127588Y0109640D01*
X0127558Y0108042D02*
X0126831Y0108042D01*
X0119947Y0104845D02*
X0119362Y0104845D01*
X0119362Y0103246D02*
X0119947Y0103246D01*
X0119947Y0101648D02*
X0119362Y0101648D01*
X0119362Y0100049D02*
X0119947Y0100049D01*
X0112998Y0100049D02*
X0112471Y0100049D01*
X0106837Y0100049D02*
X0102471Y0100049D01*
X0103806Y0101648D02*
X0105502Y0101648D01*
X0104977Y0103246D02*
X0104332Y0103246D01*
X0104304Y0104845D02*
X0105005Y0104845D01*
X0105667Y0106443D02*
X0103642Y0106443D01*
X0111751Y0108042D02*
X0112744Y0108042D01*
X0124299Y0112837D02*
X0125010Y0112837D01*
X0124977Y0114436D02*
X0124332Y0114436D01*
X0123811Y0116034D02*
X0125497Y0116034D01*
X0126825Y0117633D02*
X0122484Y0117633D01*
X0126822Y0100049D02*
X0126837Y0100049D01*
D15*
X0129654Y0103847D02*
X0130265Y0074123D01*
X0143532Y0060855D01*
X0147469Y0051013D02*
X0147469Y0101662D01*
X0149654Y0103847D01*
X0154359Y0109143D02*
X0154359Y0093808D01*
X0157312Y0090855D01*
X0124831Y0108788D02*
X0124831Y0070698D01*
X0110698Y0071052D02*
X0110698Y0061721D01*
X0100698Y0061721D02*
X0100698Y0071209D01*
X0074635Y0097272D01*
X0074635Y0108867D01*
X0069654Y0113847D01*
X0079654Y0113847D02*
X0084969Y0108532D01*
X0084969Y0096780D01*
X0085461Y0096288D01*
X0110698Y0071052D01*
X0118926Y0080540D02*
X0114989Y0084477D01*
X0114989Y0108631D01*
X0109654Y0113847D01*
X0119654Y0113847D02*
X0124831Y0108788D01*
X0149654Y0113847D02*
X0154359Y0109143D01*
X0059654Y0103847D02*
X0033296Y0076387D01*
X0033296Y0054950D01*
X0023296Y0054950D02*
X0023296Y0076387D01*
X0049654Y0103847D01*
X0050520Y0081032D02*
X0085225Y0046328D01*
X0141564Y0046328D01*
X0141564Y0036328D02*
X0090304Y0036328D01*
X0060855Y0065776D01*
X0054202Y0043139D02*
X0060107Y0037233D01*
X0065166Y0037233D01*
X0056918Y0030343D02*
X0044123Y0043139D01*
X0024202Y0043139D01*
X0056918Y0030343D02*
X0118926Y0030343D01*
X0127784Y0021485D01*
X0234083Y0021485D01*
X0225225Y0010658D02*
X0086682Y0010658D01*
X0083729Y0013611D01*
D16*
X0147469Y0051013D03*
X0143532Y0060855D03*
X0124831Y0070698D03*
X0118926Y0080540D03*
X0060855Y0065776D03*
X0050520Y0081032D03*
X0225225Y0010658D03*
X0234083Y0021485D03*
M02*
