G75*
%MOIN*%
%OFA0B0*%
%FSLAX25Y25*%
%IPPOS*%
%LPD*%
%AMOC8*
5,1,8,0,0,1.08239X$1,22.5*
%
%ADD10C,0.00000*%
D10*
X0017548Y0005737D02*
X0249831Y0005737D01*
X0250116Y0005740D01*
X0250402Y0005751D01*
X0250687Y0005768D01*
X0250971Y0005792D01*
X0251255Y0005823D01*
X0251538Y0005861D01*
X0251819Y0005906D01*
X0252100Y0005957D01*
X0252380Y0006015D01*
X0252658Y0006080D01*
X0252934Y0006152D01*
X0253208Y0006230D01*
X0253481Y0006315D01*
X0253751Y0006407D01*
X0254019Y0006505D01*
X0254285Y0006609D01*
X0254548Y0006720D01*
X0254808Y0006837D01*
X0255066Y0006960D01*
X0255320Y0007090D01*
X0255571Y0007226D01*
X0255819Y0007367D01*
X0256063Y0007515D01*
X0256304Y0007668D01*
X0256540Y0007828D01*
X0256773Y0007993D01*
X0257002Y0008163D01*
X0257227Y0008339D01*
X0257447Y0008521D01*
X0257663Y0008707D01*
X0257874Y0008899D01*
X0258081Y0009096D01*
X0258283Y0009298D01*
X0258480Y0009505D01*
X0258672Y0009716D01*
X0258858Y0009932D01*
X0259040Y0010152D01*
X0259216Y0010377D01*
X0259386Y0010606D01*
X0259551Y0010839D01*
X0259711Y0011075D01*
X0259864Y0011316D01*
X0260012Y0011560D01*
X0260153Y0011808D01*
X0260289Y0012059D01*
X0260419Y0012313D01*
X0260542Y0012571D01*
X0260659Y0012831D01*
X0260770Y0013094D01*
X0260874Y0013360D01*
X0260972Y0013628D01*
X0261064Y0013898D01*
X0261149Y0014171D01*
X0261227Y0014445D01*
X0261299Y0014721D01*
X0261364Y0014999D01*
X0261422Y0015279D01*
X0261473Y0015560D01*
X0261518Y0015841D01*
X0261556Y0016124D01*
X0261587Y0016408D01*
X0261611Y0016692D01*
X0261628Y0016977D01*
X0261639Y0017263D01*
X0261642Y0017548D01*
X0261643Y0017548D02*
X0261643Y0112036D01*
X0261642Y0112036D02*
X0261639Y0112321D01*
X0261628Y0112607D01*
X0261611Y0112892D01*
X0261587Y0113176D01*
X0261556Y0113460D01*
X0261518Y0113743D01*
X0261473Y0114024D01*
X0261422Y0114305D01*
X0261364Y0114585D01*
X0261299Y0114863D01*
X0261227Y0115139D01*
X0261149Y0115413D01*
X0261064Y0115686D01*
X0260972Y0115956D01*
X0260874Y0116224D01*
X0260770Y0116490D01*
X0260659Y0116753D01*
X0260542Y0117013D01*
X0260419Y0117271D01*
X0260289Y0117525D01*
X0260153Y0117776D01*
X0260012Y0118024D01*
X0259864Y0118268D01*
X0259711Y0118509D01*
X0259551Y0118745D01*
X0259386Y0118978D01*
X0259216Y0119207D01*
X0259040Y0119432D01*
X0258858Y0119652D01*
X0258672Y0119868D01*
X0258480Y0120079D01*
X0258283Y0120286D01*
X0258081Y0120488D01*
X0257874Y0120685D01*
X0257663Y0120877D01*
X0257447Y0121063D01*
X0257227Y0121245D01*
X0257002Y0121421D01*
X0256773Y0121591D01*
X0256540Y0121756D01*
X0256304Y0121916D01*
X0256063Y0122069D01*
X0255819Y0122217D01*
X0255571Y0122358D01*
X0255320Y0122494D01*
X0255066Y0122624D01*
X0254808Y0122747D01*
X0254548Y0122864D01*
X0254285Y0122975D01*
X0254019Y0123079D01*
X0253751Y0123177D01*
X0253481Y0123269D01*
X0253208Y0123354D01*
X0252934Y0123432D01*
X0252658Y0123504D01*
X0252380Y0123569D01*
X0252100Y0123627D01*
X0251819Y0123678D01*
X0251538Y0123723D01*
X0251255Y0123761D01*
X0250971Y0123792D01*
X0250687Y0123816D01*
X0250402Y0123833D01*
X0250116Y0123844D01*
X0249831Y0123847D01*
X0017548Y0123847D01*
X0017263Y0123844D01*
X0016977Y0123833D01*
X0016692Y0123816D01*
X0016408Y0123792D01*
X0016124Y0123761D01*
X0015841Y0123723D01*
X0015560Y0123678D01*
X0015279Y0123627D01*
X0014999Y0123569D01*
X0014721Y0123504D01*
X0014445Y0123432D01*
X0014171Y0123354D01*
X0013898Y0123269D01*
X0013628Y0123177D01*
X0013360Y0123079D01*
X0013094Y0122975D01*
X0012831Y0122864D01*
X0012571Y0122747D01*
X0012313Y0122624D01*
X0012059Y0122494D01*
X0011808Y0122358D01*
X0011560Y0122217D01*
X0011316Y0122069D01*
X0011075Y0121916D01*
X0010839Y0121756D01*
X0010606Y0121591D01*
X0010377Y0121421D01*
X0010152Y0121245D01*
X0009932Y0121063D01*
X0009716Y0120877D01*
X0009505Y0120685D01*
X0009298Y0120488D01*
X0009096Y0120286D01*
X0008899Y0120079D01*
X0008707Y0119868D01*
X0008521Y0119652D01*
X0008339Y0119432D01*
X0008163Y0119207D01*
X0007993Y0118978D01*
X0007828Y0118745D01*
X0007668Y0118509D01*
X0007515Y0118268D01*
X0007367Y0118024D01*
X0007226Y0117776D01*
X0007090Y0117525D01*
X0006960Y0117271D01*
X0006837Y0117013D01*
X0006720Y0116753D01*
X0006609Y0116490D01*
X0006505Y0116224D01*
X0006407Y0115956D01*
X0006315Y0115686D01*
X0006230Y0115413D01*
X0006152Y0115139D01*
X0006080Y0114863D01*
X0006015Y0114585D01*
X0005957Y0114305D01*
X0005906Y0114024D01*
X0005861Y0113743D01*
X0005823Y0113460D01*
X0005792Y0113176D01*
X0005768Y0112892D01*
X0005751Y0112607D01*
X0005740Y0112321D01*
X0005737Y0112036D01*
X0005737Y0017548D01*
X0005740Y0017263D01*
X0005751Y0016977D01*
X0005768Y0016692D01*
X0005792Y0016408D01*
X0005823Y0016124D01*
X0005861Y0015841D01*
X0005906Y0015560D01*
X0005957Y0015279D01*
X0006015Y0014999D01*
X0006080Y0014721D01*
X0006152Y0014445D01*
X0006230Y0014171D01*
X0006315Y0013898D01*
X0006407Y0013628D01*
X0006505Y0013360D01*
X0006609Y0013094D01*
X0006720Y0012831D01*
X0006837Y0012571D01*
X0006960Y0012313D01*
X0007090Y0012059D01*
X0007226Y0011808D01*
X0007367Y0011560D01*
X0007515Y0011316D01*
X0007668Y0011075D01*
X0007828Y0010839D01*
X0007993Y0010606D01*
X0008163Y0010377D01*
X0008339Y0010152D01*
X0008521Y0009932D01*
X0008707Y0009716D01*
X0008899Y0009505D01*
X0009096Y0009298D01*
X0009298Y0009096D01*
X0009505Y0008899D01*
X0009716Y0008707D01*
X0009932Y0008521D01*
X0010152Y0008339D01*
X0010377Y0008163D01*
X0010606Y0007993D01*
X0010839Y0007828D01*
X0011075Y0007668D01*
X0011316Y0007515D01*
X0011560Y0007367D01*
X0011808Y0007226D01*
X0012059Y0007090D01*
X0012313Y0006960D01*
X0012571Y0006837D01*
X0012831Y0006720D01*
X0013094Y0006609D01*
X0013360Y0006505D01*
X0013628Y0006407D01*
X0013898Y0006315D01*
X0014171Y0006230D01*
X0014445Y0006152D01*
X0014721Y0006080D01*
X0014999Y0006015D01*
X0015279Y0005957D01*
X0015560Y0005906D01*
X0015841Y0005861D01*
X0016124Y0005823D01*
X0016408Y0005792D01*
X0016692Y0005768D01*
X0016977Y0005751D01*
X0017263Y0005740D01*
X0017548Y0005737D01*
M02*
