G75*
%MOIN*%
%OFA0B0*%
%FSLAX25Y25*%
%IPPOS*%
%LPD*%
%AMOC8*
5,1,8,0,0,1.08239X$1,22.5*
%
%ADD10C,0.07355*%
%ADD11C,0.06800*%
%ADD12C,0.05300*%
%ADD13C,0.08200*%
%ADD14C,0.02600*%
D10*
X0039654Y0103847D03*
X0049654Y0103847D03*
X0059654Y0103847D03*
X0069654Y0103847D03*
X0079654Y0103847D03*
X0089654Y0103847D03*
X0099654Y0103847D03*
X0109654Y0103847D03*
X0119654Y0103847D03*
X0129654Y0103847D03*
X0139654Y0103847D03*
X0149654Y0103847D03*
X0159654Y0103847D03*
X0169654Y0103847D03*
X0179654Y0103847D03*
X0189654Y0103847D03*
X0199654Y0103847D03*
X0209654Y0103847D03*
X0219654Y0103847D03*
X0229654Y0103847D03*
X0229654Y0113847D03*
X0219654Y0113847D03*
X0209654Y0113847D03*
X0199654Y0113847D03*
X0189654Y0113847D03*
X0179654Y0113847D03*
X0169654Y0113847D03*
X0159654Y0113847D03*
X0149654Y0113847D03*
X0139654Y0113847D03*
X0129654Y0113847D03*
X0119654Y0113847D03*
X0109654Y0113847D03*
X0099654Y0113847D03*
X0089654Y0113847D03*
X0079654Y0113847D03*
X0069654Y0113847D03*
X0059654Y0113847D03*
X0049654Y0113847D03*
X0039654Y0113847D03*
D11*
X0080698Y0064721D02*
X0080698Y0058721D01*
X0090698Y0058721D02*
X0090698Y0064721D01*
X0100698Y0064721D02*
X0100698Y0058721D01*
X0110698Y0058721D02*
X0110698Y0064721D01*
X0120698Y0064721D02*
X0120698Y0058721D01*
X0130698Y0058721D02*
X0130698Y0064721D01*
X0154312Y0060855D02*
X0160312Y0060855D01*
X0160312Y0050855D02*
X0154312Y0050855D01*
X0144564Y0046328D02*
X0138564Y0046328D01*
X0154312Y0040855D02*
X0160312Y0040855D01*
X0144564Y0036328D02*
X0138564Y0036328D01*
X0154312Y0030855D02*
X0160312Y0030855D01*
X0144564Y0026328D02*
X0138564Y0026328D01*
X0138564Y0016328D02*
X0144564Y0016328D01*
X0053296Y0051950D02*
X0053296Y0057950D01*
X0043296Y0057950D02*
X0043296Y0051950D01*
X0033296Y0051950D02*
X0033296Y0057950D01*
X0023296Y0057950D02*
X0023296Y0051950D01*
X0013296Y0051950D02*
X0013296Y0057950D01*
X0154312Y0070855D02*
X0160312Y0070855D01*
X0160312Y0080855D02*
X0154312Y0080855D01*
X0154312Y0090855D02*
X0160312Y0090855D01*
D12*
X0080166Y0039483D02*
X0080166Y0034983D01*
X0075166Y0034983D02*
X0075166Y0039483D01*
X0070166Y0039483D02*
X0070166Y0034983D01*
X0065166Y0034983D02*
X0065166Y0039483D01*
D13*
X0016559Y0013569D03*
X0042159Y0013569D03*
X0053729Y0013611D03*
X0053729Y0022469D03*
X0042159Y0031369D03*
X0054202Y0043139D03*
X0024202Y0043139D03*
X0016559Y0031369D03*
X0083729Y0022469D03*
X0083729Y0013611D03*
D14*
X0147469Y0051013D03*
X0143532Y0060855D03*
X0124831Y0070698D03*
X0118926Y0080540D03*
X0060855Y0065776D03*
X0050520Y0081032D03*
X0225225Y0010658D03*
X0234083Y0021485D03*
M02*
