%
M48
M72
T01C0.0120
T02C0.0300
T03C0.0354
T04C0.0400
T05C0.0437
%
T01
X5967Y6361
X5692Y6873
X10072Y7611
X17874Y9074
X19874Y7574
X20874Y8074
X21874Y8574
X18874Y7074
X24174Y2774
X22474Y2374
T02
X8017Y3723
X7517Y3723
X7017Y3723
X6517Y3723
T03
X5420Y4314
X2420Y4314
X5373Y2247
X5373Y1361
X8373Y1361
X8373Y2247
T04
X1656Y1357
X4216Y1357
X4216Y3137
X1656Y3137
X1330Y5495
X2330Y5495
X3330Y5495
X4330Y5495
X5330Y5495
X8070Y6172
X9070Y6172
X10070Y6172
X11070Y6172
X12070Y6172
X13070Y6172
X14156Y4239
X14156Y3239
X14156Y2239
X14156Y1239
X17862Y1531
X18862Y1531
X19862Y1531
X20862Y1531
X21862Y1531
X22862Y1531
X23862Y1531
T05
X22965Y10385
X21965Y10385
X20965Y10385
X19965Y10385
X18965Y10385
X17965Y10385
X16965Y10385
X15965Y10385
X14965Y10385
X13965Y10385
X12965Y10385
X11965Y10385
X10965Y10385
X9965Y10385
X8965Y10385
X7965Y10385
X6965Y10385
X5965Y10385
X4965Y10385
X3965Y10385
X3965Y11385
X4965Y11385
X5965Y11385
X6965Y11385
X7965Y11385
X8965Y11385
X9965Y11385
X10965Y11385
X11965Y11385
X12965Y11385
X13965Y11385
X14965Y11385
X15965Y11385
X16965Y11385
X17965Y11385
X18965Y11385
X19965Y11385
X20965Y11385
X21965Y11385
X22965Y11385
M30
